<svg width="15" height="16" viewBox="0 0 15 16" fill="none" xmlns="http://www.w3.org/2000/svg">
<path d="M13.794 7.14017C13.8552 7.48986 13.8977 7.82558 13.8977 8.27984C13.8977 10.4177 13.1211 12.217 11.7909 13.4054L10.0354 11.589C10.8133 10.9411 11.1707 10.0621 11.2589 9.48805H7.81348V7.14014L13.794 7.14017Z" stroke="#F2F8E2" stroke-width="1.2" stroke-miterlimit="10" stroke-linecap="round" stroke-linejoin="round"/>
<path d="M11.9385 3.08025L10.1429 4.86686C8.183 2.9099 4.81732 3.81252 3.7567 6.39408L1.9209 4.49452C3.08653 2.57045 5.1538 1.29395 7.51494 1.29395C9.29163 1.29395 10.7867 1.9685 11.9385 3.08025Z" stroke="#F2F8E2" stroke-width="1.2" stroke-miterlimit="10" stroke-linecap="round" stroke-linejoin="round"/>
<path d="M10.0367 11.5893L11.7921 13.4057C10.6991 14.3825 9.23192 14.9466 7.51489 14.9466C5.23142 14.9466 3.2229 13.7526 2.03906 11.934L3.85954 10.0503C4.53274 11.4621 5.92024 12.4308 7.51489 12.4308C8.63429 12.4308 9.45352 12.0749 10.0367 11.5893Z" stroke="#F2F8E2" stroke-width="1.2" stroke-miterlimit="10" stroke-linecap="round" stroke-linejoin="round"/>
<path d="M3.85961 10.0503L2.03913 11.934C1.33085 10.8458 0.917969 9.53395 0.917969 8.12029C0.917969 6.78701 1.2853 5.54432 1.92099 4.49463L3.75679 6.39419C3.54598 6.90646 3.42634 7.48483 3.42634 8.12029C3.42634 8.81409 3.58254 9.46972 3.85961 10.0503Z" stroke="#F2F8E2" stroke-width="1.2" stroke-miterlimit="10" stroke-linecap="round" stroke-linejoin="round"/>
</svg>
