<svg width="191" height="191" viewBox="0 0 191 191" fill="none" xmlns="http://www.w3.org/2000/svg">
<path d="M33.498 69.0352C33.8342 69.6795 34.1856 70.3161 34.5524 70.9452C34.7395 71.2584 34.9344 71.5716 35.1101 71.8734C34.705 70.8581 34.1626 69.9031 33.498 69.0352Z" fill="#DBDBDB"/>
<path d="M96.5886 176.156C138.684 176.156 172.809 172.147 172.809 167.202C172.809 162.256 138.684 158.248 96.5886 158.248C54.4932 158.248 20.3682 162.256 20.3682 167.202C20.3682 172.147 54.4932 176.156 96.5886 176.156Z" fill="#EBEBEB"/>
<path d="M65.1052 130.644C65.1052 130.644 56.7508 133.673 55.1732 138.907C53.5955 144.14 61.9842 157.384 61.9842 157.384C61.9842 157.384 58.2406 159.84 57.8968 160.822C57.553 161.804 59.4248 163.37 59.4248 163.37C59.4248 163.37 59.3561 164.539 60.7313 165.437C62.1065 166.334 63.9706 165.437 63.9706 165.437C64.8999 165.935 65.9466 166.172 66.9999 166.124C68.7876 166.055 72.6458 161.647 73.0584 160.96C73.471 160.272 65.1052 130.644 65.1052 130.644Z" fill="#FFC727"/>
<path d="M57.5605 135.492C56.6043 136.292 55.7861 137.245 55.1386 138.311C54.8224 138.854 54.5467 139.419 54.3135 140.003C54.0647 140.571 53.8864 141.168 53.7825 141.779C53.7328 142.135 53.6755 142.486 53.6373 142.845C53.5896 143.162 53.5896 143.484 53.6373 143.8C53.6373 143.827 53.6794 143.827 53.6908 143.8C53.7606 143.641 53.8119 143.474 53.8436 143.304C53.8933 143.113 53.9582 142.922 54.0193 142.738C54.1339 142.383 54.2715 142.039 54.4013 141.691C54.6579 140.964 54.9563 140.253 55.2952 139.56C55.6352 138.88 56.0363 138.234 56.4412 137.585C56.8445 136.923 57.3033 136.297 57.8126 135.713C57.842 135.68 57.8569 135.636 57.854 135.592C57.8511 135.547 57.8307 135.506 57.7973 135.476C57.7639 135.447 57.7201 135.432 57.6757 135.435C57.6313 135.438 57.5898 135.458 57.5605 135.492Z" fill="#FFC727"/>
<path d="M56.2193 138.616C56.0109 138.85 55.8158 139.094 55.6349 139.35C55.4767 139.595 55.3351 139.85 55.2108 140.114C54.9455 140.673 54.7541 141.265 54.6417 141.875C54.3829 143.091 54.4038 144.35 54.7028 145.557C54.7028 145.572 54.7088 145.587 54.7196 145.598C54.7303 145.608 54.7449 145.614 54.7601 145.614C54.7753 145.614 54.7899 145.608 54.8006 145.598C54.8114 145.587 54.8174 145.572 54.8174 145.557C54.9243 144.984 54.9664 144.411 55.0428 143.815C55.1192 143.219 55.1917 142.669 55.3102 142.085C55.4299 141.519 55.5804 140.961 55.7609 140.412C55.9393 139.851 56.1815 139.313 56.4829 138.807C56.4965 138.773 56.4983 138.734 56.4878 138.699C56.4773 138.663 56.4553 138.631 56.4251 138.61C56.3949 138.588 56.3583 138.577 56.3211 138.578C56.2838 138.579 56.248 138.592 56.2193 138.616Z" fill="#FFC727"/>
<g opacity="0.1">
<path d="M65.1052 130.644C65.1052 130.644 56.7508 133.673 55.1732 138.907C53.5955 144.14 61.9842 157.384 61.9842 157.384C61.9842 157.384 58.2406 159.84 57.8968 160.822C57.553 161.804 59.4248 163.37 59.4248 163.37C59.4248 163.37 59.3561 164.539 60.7313 165.437C62.1065 166.334 63.9706 165.437 63.9706 165.437C64.8999 165.935 65.9466 166.172 66.9999 166.124C68.7876 166.055 72.6458 161.647 73.0584 160.96C73.471 160.272 65.1052 130.644 65.1052 130.644Z" fill="black"/>
<path d="M57.5605 135.492C56.6043 136.292 55.7861 137.245 55.1386 138.311C54.8224 138.854 54.5467 139.419 54.3135 140.003C54.0647 140.571 53.8864 141.168 53.7825 141.779C53.7328 142.135 53.6755 142.486 53.6373 142.845C53.5896 143.162 53.5896 143.484 53.6373 143.8C53.6373 143.827 53.6794 143.827 53.6908 143.8C53.7606 143.641 53.8119 143.474 53.8436 143.304C53.8933 143.113 53.9582 142.922 54.0193 142.738C54.1339 142.383 54.2715 142.039 54.4013 141.691C54.6579 140.964 54.9563 140.253 55.2952 139.56C55.6352 138.88 56.0363 138.234 56.4412 137.585C56.8445 136.923 57.3033 136.297 57.8126 135.713C57.842 135.68 57.8569 135.636 57.854 135.592C57.8511 135.547 57.8307 135.506 57.7973 135.476C57.7639 135.447 57.7201 135.432 57.6757 135.435C57.6313 135.438 57.5898 135.458 57.5605 135.492Z" fill="black"/>
<path d="M56.2193 138.616C56.0109 138.85 55.8158 139.094 55.6349 139.35C55.4767 139.595 55.3351 139.85 55.2108 140.114C54.9455 140.673 54.7541 141.265 54.6417 141.875C54.3829 143.091 54.4038 144.35 54.7028 145.557C54.7028 145.572 54.7088 145.587 54.7196 145.598C54.7303 145.608 54.7449 145.614 54.7601 145.614C54.7753 145.614 54.7899 145.608 54.8006 145.598C54.8114 145.587 54.8174 145.572 54.8174 145.557C54.9243 144.984 54.9664 144.411 55.0428 143.815C55.1192 143.219 55.1917 142.669 55.3102 142.085C55.4299 141.519 55.5804 140.961 55.7609 140.412C55.9393 139.851 56.1815 139.313 56.4829 138.807C56.4965 138.773 56.4983 138.734 56.4878 138.699C56.4773 138.663 56.4553 138.631 56.4251 138.61C56.3949 138.588 56.3583 138.577 56.3211 138.578C56.2838 138.579 56.248 138.592 56.2193 138.616Z" fill="black"/>
</g>
<path d="M73.0461 160.921C72.6335 161.612 68.7753 166.021 66.9875 166.086C65.933 166.135 64.8848 165.897 63.9545 165.398C63.9545 165.398 62.0941 166.296 60.7227 165.398C59.3514 164.5 59.4125 163.331 59.4125 163.331C59.4125 163.331 57.5521 161.75 57.8845 160.787C58.2168 159.825 61.9719 157.349 61.9719 157.349C63.9888 157.006 66.193 157.789 66.193 157.789C65.2157 157.313 64.1504 157.045 63.0644 157.002C64.6803 156.785 66.324 157.059 67.7821 157.789C69.371 158.535 71.0588 159.05 72.7939 159.317C73.0079 160.264 73.0995 160.822 73.0461 160.921Z" fill="white"/>
<path d="M73.046 160.921C72.6334 161.613 68.7752 166.021 66.9875 166.086C66.317 166.112 65.6469 166.025 65.0049 165.83L68.97 158.328C70.2083 158.785 71.4875 159.122 72.79 159.336C73.0078 160.264 73.0995 160.822 73.046 160.921Z" fill="#DBDBDB"/>
<path d="M61.4068 158.732C61.0407 158.993 60.6946 159.28 60.3716 159.592C60.0139 159.908 59.7072 160.278 59.4625 160.688C59.0193 161.51 59.2714 162.472 59.3822 163.362C59.3822 163.4 59.4434 163.397 59.4395 163.362C59.2973 162.508 59.4311 161.63 59.8215 160.856C60.2763 160.109 60.8258 159.423 61.4565 158.816C61.5023 158.763 61.445 158.706 61.4068 158.732Z" fill="#263238"/>
<path d="M66.3916 160.329C65.5786 160.912 64.8761 161.635 64.3173 162.465C64.0722 162.874 63.9124 163.329 63.8474 163.802C63.8034 164.317 63.8605 164.836 64.0155 165.33C64.0155 165.356 64.0652 165.356 64.069 165.33C64.1378 164.852 64.1798 164.371 64.2829 163.897C64.3867 163.463 64.5473 163.044 64.7604 162.652C64.9672 162.249 65.2088 161.866 65.4824 161.506C65.7804 161.124 66.1127 160.742 66.4259 160.36C66.445 160.352 66.4183 160.31 66.3916 160.329Z" fill="#263238"/>
<path d="M54.2671 81.7478C52.911 81.9311 50.1644 62.4682 54.8401 56.0697C55.5124 55.1491 69.7381 61.9678 69.9482 62.4682C70.1583 62.9687 57.0595 81.3658 54.2671 81.7478Z" fill="#FFC727"/>
<path opacity="0.2" d="M69.9485 62.4531C70.0173 62.6097 68.7834 64.5159 66.9766 67.0677C63.9206 62.052 55.1078 56.62 54.8901 56.7537C54.6723 56.8874 53.2207 62.2201 53.0641 68.0227C52.8846 74.8987 54.4011 79.5056 55.1346 81.3124C54.8812 81.5173 54.5847 81.6623 54.2674 81.7365C52.9151 81.9198 50.1686 62.4569 54.8442 56.0546C55.5127 55.134 69.7308 61.9527 69.9485 62.4531Z" fill="black"/>
<path d="M58.6567 79.8074C58.5363 79.2015 58.3845 78.6022 58.2021 78.012C58.0278 77.4238 57.8199 76.846 57.5795 76.2815C57.1156 75.1528 56.5 74.0925 55.7497 73.13C55.3766 72.6526 54.9555 72.2149 54.4929 71.8236C54.2675 71.6211 54.0192 71.4416 53.7748 71.2659C53.5303 71.0902 53.2667 70.9374 53.0108 70.7998C52.743 70.6573 52.4676 70.5297 52.1856 70.4178C51.8991 70.3223 51.6164 70.2001 51.3185 70.1313C50.7262 69.9623 50.1204 69.8447 49.5078 69.7799C50.7617 69.7483 52.0057 70.0099 53.1406 70.5439C54.2823 71.0939 55.2811 71.9006 56.0591 72.9008C56.8336 73.8899 57.4425 74.9981 57.8622 76.1822C58.292 77.3484 58.5594 78.5683 58.6567 79.8074Z" fill="#263238"/>
<path d="M59.4776 79.3373C59.4518 78.4501 59.3663 77.5657 59.2217 76.69C59.0865 75.8153 58.9003 74.9492 58.6639 74.0962C58.2043 72.3908 57.5115 70.7569 56.6049 69.241C56.1534 68.486 55.6425 67.7681 55.0769 67.0942C54.5002 66.4282 53.8731 65.8076 53.2013 65.2376C52.5284 64.6656 51.8062 64.1543 51.043 63.7096C50.2798 63.2541 49.4858 62.8521 48.667 62.5063C50.3745 63.0572 51.9725 63.9028 53.3885 65.0046C54.7958 66.1315 55.991 67.5001 56.9182 69.0462C57.8326 70.5926 58.5123 72.2661 58.9352 74.0122C59.3711 75.7519 59.5538 77.5454 59.4776 79.3373Z" fill="#263238"/>
<path d="M104.413 85.0101C105.689 85.4914 112.767 67.1592 109.662 59.863C109.218 58.8164 93.8239 62.2391 93.4992 62.6822C93.1745 63.1253 101.777 84.0131 104.413 85.0101Z" fill="#FFC727"/>
<path opacity="0.2" d="M93.5024 62.6825C93.3993 62.8162 94.1671 64.9516 95.3513 67.8472C99.4731 63.6452 109.275 60.3561 109.459 60.5319C109.642 60.7076 109.841 66.2351 108.695 71.9231C107.316 78.6539 104.791 82.8025 103.671 84.3992C103.872 84.654 104.126 84.8614 104.416 85.0066C105.696 85.4917 112.774 67.1596 109.669 59.8634C109.214 58.8281 93.8233 62.2432 93.5024 62.6825Z" fill="black"/>
<path d="M104.584 79.8072C104.681 78.5649 104.951 77.3422 105.386 76.1744C105.806 74.9903 106.415 73.8821 107.189 72.893C107.969 71.8945 108.967 71.0882 110.108 70.5361C111.244 70.0021 112.489 69.7405 113.744 69.7721C113.132 69.8365 112.526 69.9541 111.934 70.1235C111.636 70.1923 111.353 70.3145 111.063 70.41C110.782 70.522 110.508 70.6495 110.241 70.792C109.97 70.9296 109.722 71.1015 109.477 71.2581C109.233 71.4147 108.985 71.6133 108.763 71.8158C108.299 72.207 107.877 72.6448 107.502 73.1222C106.752 74.0847 106.137 75.1449 105.673 76.2737C105.203 77.4122 104.844 78.5928 104.599 79.7996L104.584 79.8072Z" fill="#263238"/>
<path d="M103.76 79.3375C103.68 77.5485 103.86 75.7574 104.294 74.0201C104.718 72.2748 105.396 70.6014 106.308 69.0541C107.24 67.5082 108.44 66.1409 109.853 65.0163C111.267 63.9145 112.864 63.069 114.57 62.5181C113.753 62.8638 112.96 63.2659 112.198 63.7214C111.434 64.166 110.71 64.6773 110.036 65.2494C109.364 65.8184 108.739 66.4391 108.164 67.1059C107.597 67.7789 107.086 68.4968 106.636 69.2527C105.726 70.7671 105.033 72.4013 104.577 74.1079C104.337 74.96 104.151 75.8263 104.019 76.7017C103.874 77.5735 103.787 78.4541 103.76 79.3375Z" fill="#263238"/>
<path d="M49.4961 91.2407C49.4961 93.7619 52.6399 101.016 59.1378 106.112C59.1378 106.112 61.5902 138.23 62.1288 140.851C62.6674 143.472 69.5167 163.358 69.4938 163.633C69.4709 163.909 66.5295 166.307 66.1475 167.11C65.8619 167.802 65.6829 168.534 65.6165 169.279C65.6165 169.463 67.3431 171.388 68.3516 171.464C68.3516 171.464 71.335 173.394 73.7302 172.148C73.7302 172.148 75.9534 172.591 77.1682 172.179C78.3829 171.766 81.2747 168.989 82.3137 168.057C83.3527 167.125 83.0051 165.276 83.0051 165.276L90.2135 165.822C90.2135 165.822 90.6604 169.054 91.0959 170.024C91.5314 170.995 94.4116 173.038 95.5462 173.26C96.6807 173.481 98.6328 172.622 98.6328 172.622C98.6328 172.622 100.657 173.233 102.071 173.004C103.484 172.775 104.451 170.792 104.451 170.792C105.229 170.497 105.958 170.086 106.613 169.574C107.354 168.894 105.62 166.277 104.607 165.647C104.039 165.281 103.397 165.044 102.728 164.951C102.728 164.951 122.836 164.447 126.736 164.004C130.637 163.561 134.575 162.663 135.14 161.418C135.706 160.173 135.354 135.469 134.044 132.054C132.734 128.638 125.732 118.997 123.218 116.965C120.705 114.932 107.304 102.135 107.304 102.135C107.304 102.135 112.992 94.7245 113.661 89.9113C113.863 88.4521 99.7787 66.4871 94.7746 63.2553C89.7704 60.0236 70.5978 61.6242 68.2752 62.9994C61.5023 66.9951 49.4961 89.7891 49.4961 91.2407Z" fill="#FFC727"/>
<path d="M62.2662 138.005C62.3311 137.321 62.4113 136.634 62.5183 135.95C62.5251 135.897 62.5121 135.843 62.4818 135.799C62.4516 135.755 62.4061 135.724 62.3542 135.711C62.3023 135.698 62.2475 135.705 62.2002 135.73C62.153 135.755 62.1166 135.797 62.0981 135.847C61.874 136.513 61.7003 137.195 61.5786 137.887C61.4665 138.586 61.4039 139.291 61.3914 139.999C61.3494 141.336 61.3494 142.822 61.9873 144.037C61.9873 144.056 62.037 144.037 62.0408 144.037C62.2471 142.719 62.0599 141.363 62.1057 140.03C62.1401 139.346 62.2127 138.666 62.2662 138.005Z" fill="#FFC727"/>
<path d="M62.5342 133.348C61.6807 134.434 61.0921 135.704 60.8152 137.058C60.6456 137.721 60.5458 138.401 60.5173 139.086C60.4982 139.426 60.4982 139.766 60.5173 140.106C60.5623 140.443 60.6403 140.774 60.7503 141.095C60.7503 141.13 60.8229 141.133 60.8267 141.095C60.8763 140.774 60.9718 140.457 61.0062 140.136C61.0406 139.816 61.0673 139.506 61.1132 139.193C61.2125 138.547 61.3156 137.902 61.4952 137.264C61.8659 136.008 62.3255 134.78 62.8704 133.589C62.943 133.394 62.6985 133.157 62.5342 133.348Z" fill="#FFC727"/>
<path d="M51.7879 86.6835C51.3028 87.2686 50.8549 87.8835 50.447 88.5248C50.0519 89.1704 49.7108 89.8476 49.4271 90.5494C49.1194 91.2452 48.8715 91.966 48.686 92.7039C48.5339 93.461 48.4255 94.2263 48.3613 94.9959C48.3613 95.0837 48.4721 95.1219 48.4988 95.0302C48.7089 94.3159 48.9916 93.6207 49.2629 92.9292C49.5341 92.2378 49.7709 91.5388 50.0612 90.855C50.3515 90.1712 50.6724 89.4989 50.9933 88.8266C51.3142 88.1542 51.6313 87.4857 52.0018 86.8402C52.0858 86.7141 51.8872 86.5613 51.7879 86.6835Z" fill="#FFC727"/>
<path d="M50.9748 89.6399C50.626 90.2498 50.3308 90.8889 50.0923 91.5499C49.8695 92.2039 49.7046 92.8762 49.5996 93.5592C49.4106 94.925 49.4714 96.3139 49.7791 97.658C49.7816 97.6657 49.7865 97.6723 49.793 97.677C49.7995 97.6818 49.8074 97.6843 49.8154 97.6843C49.8234 97.6843 49.8313 97.6818 49.8378 97.677C49.8443 97.6723 49.8492 97.6657 49.8517 97.658C49.8528 96.3105 49.973 94.9658 50.2108 93.6394C50.3169 92.9847 50.4558 92.3357 50.6271 91.695C50.7856 91.0402 50.9768 90.3938 51.2001 89.7583C51.2536 89.5978 51.0397 89.5176 50.9748 89.6399Z" fill="#FFC727"/>
<path d="M111.88 86.4963C111.369 85.8141 110.81 85.1695 110.207 84.5672C110.169 84.5251 110.092 84.5672 110.127 84.6321C111.008 85.8452 111.775 87.1367 112.419 88.4903C112.744 89.1473 113.061 89.812 113.332 90.492C113.603 91.1719 113.851 91.9016 114.096 92.6121C114.382 93.4105 114.596 94.2318 114.829 95.0454C114.831 95.0513 114.835 95.0563 114.84 95.0599C114.846 95.0634 114.852 95.0654 114.858 95.0654C114.864 95.0654 114.87 95.0634 114.875 95.0599C114.88 95.0563 114.884 95.0513 114.887 95.0454C114.917 91.9703 113.702 88.9258 111.88 86.4963Z" fill="#FFC727"/>
<path d="M113.58 94.0026C113.577 93.6936 113.556 93.385 113.519 93.0782C113.458 92.4493 113.348 91.8261 113.19 91.214C112.837 90.0075 112.382 88.8331 111.831 87.7035C111.8 87.6385 111.689 87.7035 111.712 87.7569C112.094 88.922 112.346 90.1444 112.625 91.3401C112.763 91.9322 112.912 92.5205 113.064 93.1088C113.141 93.4067 113.21 93.7123 113.294 94.0065C113.378 94.3006 113.423 94.6138 113.527 94.9003C113.527 94.9233 113.576 94.9271 113.58 94.9003C113.595 94.6013 113.595 94.3017 113.58 94.0026Z" fill="#FFC727"/>
<path d="M130.393 123.906C129.831 123.176 129.285 122.439 128.712 121.724C128.134 121.017 127.507 120.351 126.836 119.73C126.164 119.108 125.484 118.493 124.762 117.927C124.04 117.362 123.234 116.865 122.47 116.35C122.057 116.067 121.618 115.822 121.19 115.559C120.762 115.295 120.292 115.001 119.83 114.741C119.8 114.722 119.773 114.768 119.804 114.791C120.568 115.326 121.293 115.864 122 116.457C122.707 117.049 123.36 117.629 124.032 118.225C124.705 118.821 125.4 119.402 126.065 120.009C126.408 120.322 126.744 120.639 127.077 120.964C127.409 121.289 127.753 121.564 128.085 121.866C128.849 122.553 129.613 123.218 130.312 123.959C130.358 123.993 130.423 123.944 130.393 123.906Z" fill="#FFC727"/>
<path d="M135.645 134.105C135.31 133.297 134.927 132.51 134.499 131.748C134.086 130.984 133.639 130.22 133.165 129.456C132.688 128.735 132.162 128.047 131.592 127.397C130.954 126.652 130.274 125.949 129.617 125.22C129.594 125.193 129.555 125.22 129.578 125.262C130.682 126.595 131.488 128.131 132.417 129.594C132.867 130.319 133.307 131.053 133.719 131.802C134.132 132.55 134.483 133.33 134.865 134.094C135.297 134.953 135.751 135.805 136.183 136.664C136.244 136.783 136.416 136.691 136.386 136.573C136.198 135.734 135.95 134.909 135.645 134.105Z" fill="#FFC727"/>
<path d="M136.038 137.997C135.903 137.33 135.711 136.676 135.465 136.042C135.229 135.427 134.954 134.834 134.659 134.246C134.363 133.623 134.025 133.02 133.647 132.443C133.628 132.42 133.582 132.443 133.594 132.466C133.834 133.081 134.098 133.688 134.327 134.307C134.556 134.926 134.755 135.564 134.95 136.217C135.145 136.87 135.332 137.485 135.553 138.127C135.775 138.769 135.935 139.399 136.153 140.037C136.159 140.055 136.171 140.07 136.186 140.079C136.202 140.089 136.221 140.092 136.239 140.089C136.257 140.086 136.274 140.076 136.285 140.061C136.297 140.047 136.303 140.029 136.302 140.011C136.278 139.333 136.189 138.659 136.038 137.997Z" fill="#FFC727"/>
<path d="M62.5071 68.8135C61.2694 70.3835 59.9974 71.9421 58.8666 73.5885C57.7359 75.2349 56.6663 76.9539 55.696 78.7035C55.1284 79.7024 54.6182 80.733 54.168 81.7901C54.163 81.7992 54.1617 81.8099 54.1646 81.82C54.1675 81.83 54.1742 81.8385 54.1833 81.8435C54.1924 81.8486 54.2032 81.8498 54.2132 81.847C54.2233 81.8441 54.2317 81.8374 54.2368 81.8283C55.3828 80.1818 56.3989 78.4361 57.4532 76.7285C58.5076 75.021 59.6001 73.344 60.662 71.6441C61.258 70.6853 61.8844 69.7341 62.53 68.8212C62.5186 68.8135 62.5109 68.8097 62.5071 68.8135Z" fill="#263238"/>
<path d="M107.473 79.0739C106.357 77.3434 105.272 75.6015 104.069 73.9283C102.866 72.2552 101.643 70.6661 100.329 69.1113C100.329 69.1113 100.283 69.1113 100.295 69.1381C101.399 70.8533 102.556 72.5302 103.733 74.1919C104.909 75.8536 106.193 77.4618 107.411 79.1083C107.416 79.1164 107.424 79.1223 107.433 79.1248C107.442 79.1274 107.451 79.1262 107.459 79.1216C107.467 79.1171 107.473 79.1095 107.476 79.1005C107.478 79.0916 107.477 79.082 107.473 79.0739Z" fill="#263238"/>
<path d="M87.1537 127.458C84.6936 127.278 82.5697 125.601 81.5536 123.665C81.1471 122.896 80.888 122.057 80.7896 121.193C81.0006 121.118 81.1999 121.014 81.3817 120.884C81.8864 120.471 82.2803 119.94 82.5277 119.337C82.8474 118.68 83.0368 117.968 83.0854 117.239C83.1083 116.712 83.0854 115.841 82.4475 115.593C81.8095 115.345 81.3015 115.933 81.0837 116.357C80.7745 116.998 80.5473 117.676 80.4076 118.374C80.2356 119.148 80.1676 119.942 80.2051 120.735C80.0419 120.752 79.8771 120.744 79.7162 120.712C78.3868 120.464 77.8062 119.23 77.6648 118.145C77.5086 116.873 77.5447 115.586 77.7718 114.325C78.2329 111.718 79.2137 109.23 80.6559 107.009C80.8316 106.734 80.9997 106.456 81.1907 106.188C81.2098 106.158 81.1563 106.131 81.1372 106.161C79.3838 108.599 77.894 111.189 77.2599 114.054C76.9215 115.442 76.8348 116.879 77.004 118.298C77.1873 119.593 77.9055 120.945 79.4526 121.258C79.715 121.313 79.9847 121.325 80.251 121.292C80.3035 121.755 80.3981 122.211 80.5336 122.656C80.9438 123.905 81.6885 125.017 82.6866 125.871C83.6848 126.726 84.8982 127.291 86.1949 127.504C86.5063 127.549 86.8201 127.574 87.1346 127.58C87.2645 127.611 87.2568 127.469 87.1537 127.458ZM80.7285 119.948C80.7409 119.305 80.8203 118.665 80.9653 118.038C81.0417 117.717 81.1334 117.396 81.2403 117.079C81.3217 116.786 81.4507 116.509 81.6223 116.258C81.779 116.059 82.0884 115.761 82.3863 115.944C82.6843 116.128 82.6576 116.498 82.6728 116.75C82.6927 117.419 82.5622 118.084 82.2908 118.695C82.0043 119.371 81.5268 120.261 80.7628 120.605C80.7323 120.391 80.7246 120.169 80.7285 119.948Z" fill="#263238"/>
<path d="M84.8615 148.3C83.3335 146.55 77.8786 139.651 76.6485 137.715C74.1732 133.822 72.1257 129.651 69.9903 125.594C68.7793 123.302 67.4118 120.567 66.2734 118.233C66.2543 118.198 66.1932 118.213 66.2085 118.252C68.0497 122.454 69.4937 126.522 71.2776 130.346C73.3019 134.54 75.8054 138.486 78.7381 142.104C80.3654 144.163 82.9095 146.501 84.7813 148.376C84.8042 148.395 84.8959 148.342 84.8615 148.3Z" fill="#263238"/>
<path d="M83.4785 158.148C83.4518 155.665 83.3257 153.182 83.1882 150.707C83.1118 149.297 83.0163 147.884 82.9628 146.474C82.9628 146.461 82.9576 146.448 82.9483 146.439C82.939 146.43 82.9263 146.424 82.9132 146.424C82.9 146.424 82.8874 146.43 82.878 146.439C82.8687 146.448 82.8635 146.461 82.8635 146.474C82.8635 148.957 82.7909 151.44 82.7756 153.927C82.7604 156.414 82.8253 158.893 82.9399 161.368C83.0087 162.785 83.1347 164.195 83.2493 165.605C83.2524 165.616 83.2592 165.626 83.2685 165.633C83.2778 165.64 83.2892 165.644 83.3009 165.644C83.3126 165.644 83.324 165.64 83.3333 165.633C83.3426 165.626 83.3494 165.616 83.3525 165.605C83.3983 164.363 83.4709 163.122 83.4823 161.876C83.4938 160.631 83.49 159.389 83.4785 158.148Z" fill="#263238"/>
<path d="M90.2902 162.418C90.2902 161.2 90.2711 159.981 90.2252 158.763C90.1386 156.326 90.0202 153.89 89.87 151.455C89.7859 150.068 89.6713 148.678 89.5835 147.291C89.5835 147.271 89.5754 147.252 89.5611 147.237C89.5468 147.223 89.5273 147.215 89.5071 147.215C89.4868 147.215 89.4674 147.223 89.453 147.237C89.4387 147.252 89.4307 147.271 89.4307 147.291C89.4574 149.728 89.4307 152.166 89.5032 154.603C89.5758 157.04 89.6675 159.477 89.8241 161.91C89.8661 162.598 89.912 163.282 89.9693 163.966C89.996 164.294 90.0266 164.619 90.0533 164.943C90.0801 165.268 90.1374 165.604 90.1565 165.937C90.1588 165.943 90.1632 165.949 90.169 165.953C90.1748 165.958 90.1818 165.96 90.1889 165.96C90.1961 165.96 90.203 165.958 90.2089 165.953C90.2147 165.949 90.2191 165.943 90.2214 165.937C90.2769 165.381 90.2998 164.822 90.2902 164.264C90.2978 163.656 90.294 163.037 90.2902 162.418Z" fill="#263238"/>
<path d="M110.016 144.335C110.296 142.251 110.59 140.173 110.898 138.1C110.898 138.086 110.893 138.073 110.883 138.063C110.873 138.053 110.859 138.047 110.845 138.047C110.831 138.047 110.817 138.053 110.807 138.063C110.797 138.073 110.791 138.086 110.791 138.1C110.476 139.916 110.146 141.728 109.802 143.536C109.462 145.332 109.183 147.138 108.813 148.93C108.398 150.698 107.797 152.418 107.021 154.06C106.284 155.733 105.55 157.41 104.848 159.103C104.466 160.054 104.053 161.013 103.667 161.96C103.472 162.438 103.285 162.911 103.087 163.393C102.888 163.874 102.731 164.401 102.544 164.901C102.538 164.915 102.537 164.93 102.542 164.943C102.547 164.957 102.558 164.968 102.571 164.974C102.584 164.98 102.599 164.981 102.613 164.976C102.626 164.971 102.637 164.96 102.643 164.947C102.857 164.531 103.094 164.137 103.3 163.717C103.507 163.297 103.705 162.885 103.9 162.464C104.282 161.624 104.695 160.787 105.084 159.947C105.867 158.266 106.612 156.578 107.376 154.885C107.758 154.064 108.098 153.239 108.412 152.395C108.707 151.548 108.946 150.683 109.126 149.805C109.546 147.994 109.783 146.153 110.016 144.335Z" fill="#263238"/>
<path d="M82.3292 168.053C81.2863 168.989 78.4098 171.766 77.1836 172.179C75.9574 172.591 73.7456 172.152 73.7456 172.152C71.3505 173.394 68.3671 171.468 68.3671 171.468C67.3586 171.388 65.6167 169.463 65.6319 169.279C65.6979 168.533 65.877 167.802 66.1629 167.11C66.5449 166.311 69.4863 163.908 69.5092 163.63C71.2932 163.221 73.0771 163.041 76.4387 164.161C75.2418 163.365 73.83 162.956 72.3933 162.988C72.3933 162.988 79.0783 162.491 83.0359 165.28C83.0206 165.276 83.3644 167.121 82.3292 168.053Z" fill="white"/>
<path d="M70.9687 165.658C70.4798 165.974 70.023 166.338 69.605 166.743C69.1847 167.115 68.8341 167.558 68.5698 168.053C68.3287 168.529 68.1882 169.049 68.1572 169.581C68.1594 170.209 68.2746 170.832 68.4972 171.419C68.4972 171.445 68.5545 171.442 68.5507 171.419C68.4705 170.826 68.4628 170.226 68.5278 169.631C68.6167 169.14 68.7996 168.67 69.0664 168.248C69.3306 167.802 69.6322 167.379 69.9679 166.984C70.3193 166.571 70.7319 166.22 71.0681 165.792C71.1254 165.715 71.0528 165.609 70.9687 165.658Z" fill="#263238"/>
<path d="M76.4925 166.307C75.5617 166.979 74.7746 167.829 74.1775 168.81C73.9033 169.313 73.7396 169.869 73.6974 170.441C73.6553 171.013 73.7356 171.587 73.9331 172.125C73.9352 172.131 73.9391 172.136 73.9443 172.14C73.9494 172.143 73.9555 172.145 73.9617 172.145C73.9679 172.145 73.974 172.143 73.9792 172.14C73.9843 172.136 73.9882 172.131 73.9904 172.125C73.9788 171.564 74.0249 171.004 74.1279 170.452C74.2576 169.951 74.4421 169.465 74.678 169.004C74.908 168.52 75.1803 168.058 75.4916 167.621C75.8201 167.186 76.1678 166.766 76.523 166.353C76.5383 166.327 76.5154 166.288 76.4925 166.307Z" fill="#263238"/>
<path d="M106.613 169.57C105.958 170.083 105.229 170.493 104.451 170.788C104.451 170.788 103.469 172.782 102.075 173.004C100.681 173.225 98.6371 172.622 98.6371 172.622C98.6371 172.622 96.685 173.485 95.5543 173.264C94.4236 173.042 91.5357 170.972 91.1002 170.024C90.6647 169.077 90.2178 165.822 90.2178 165.822C91.9024 164.783 95.7912 163.37 100.268 164.023C100.268 164.023 97.7241 163.886 95.7606 164.642C95.7606 164.642 99.55 164.329 102.717 164.948L103.393 165.093H103.412C103.829 165.221 104.227 165.404 104.596 165.635C105.62 166.273 107.343 168.89 106.613 169.57Z" fill="white"/>
<path d="M100.054 169.463C99.8397 168.374 98.6326 167.904 97.7234 167.553C97.689 167.553 97.6623 167.583 97.6967 167.602C98.5065 168.034 99.45 168.619 99.5112 169.646C99.5027 170.153 99.3923 170.653 99.1865 171.117C99.0146 171.598 98.8045 172.068 98.6478 172.553C98.6478 172.587 98.6822 172.607 98.7051 172.584C99.1213 172.185 99.4594 171.712 99.7022 171.189C100.006 170.668 100.13 170.061 100.054 169.463Z" fill="#263238"/>
<path d="M104.752 167.698C104.122 166.854 102.941 166.552 101.971 166.365C101.965 166.365 101.959 166.367 101.955 166.371C101.951 166.376 101.948 166.382 101.948 166.388C101.948 166.394 101.951 166.4 101.955 166.404C101.959 166.408 101.965 166.411 101.971 166.411C102.869 166.743 103.789 167.068 104.263 167.962C104.71 168.79 104.622 169.871 104.424 170.762C104.42 170.771 104.42 170.782 104.425 170.791C104.429 170.8 104.437 170.808 104.447 170.811C104.456 170.815 104.467 170.814 104.476 170.81C104.485 170.806 104.493 170.798 104.496 170.788C105.05 169.894 105.432 168.626 104.752 167.698Z" fill="#263238"/>
<path opacity="0.1" d="M68.9785 106.009C68.9785 106.009 76.7408 108.026 81.0115 107.919C85.2823 107.812 92.525 105.245 92.525 105.245C92.525 105.245 85.691 124.207 81.6877 125.059C77.6843 125.911 68.9785 106.009 68.9785 106.009Z" fill="black"/>
<path d="M89.9848 103.316C89.6295 103.576 89.2552 103.805 88.8999 104.08C88.5446 104.355 88.2008 104.607 87.8456 104.867C87.1389 105.382 86.4169 105.879 85.672 106.345C84.186 107.285 82.6733 108.182 81.172 109.099C81.1491 109.099 81.1529 109.164 81.172 109.153C83.846 108.389 86.2565 106.937 88.4835 105.279C88.7929 105.05 89.0947 104.817 89.3889 104.569C89.683 104.32 89.9848 104 90.2789 103.713C90.3248 103.672 90.3536 103.615 90.3598 103.553C90.366 103.492 90.349 103.43 90.3123 103.381C90.2756 103.331 90.2217 103.297 90.1611 103.285C90.1005 103.273 90.0377 103.284 89.9848 103.316Z" fill="#FFC727"/>
<path d="M92.3415 101.02C91.3177 101.963 90.4315 103.041 89.4918 104.049C89.0181 104.553 88.5253 105.042 88.0249 105.52C87.5245 105.997 87.0279 106.505 86.4969 106.956C85.8895 107.476 85.2477 107.934 84.6098 108.412C84.5869 108.431 84.6098 108.477 84.6098 108.465C85.2483 108.196 85.8607 107.868 86.4396 107.487C87.0418 107.108 87.6221 106.694 88.1777 106.249C89.2699 105.331 90.2809 104.32 91.1993 103.228C91.7399 102.62 92.2305 101.97 92.6662 101.283C92.8266 101.07 92.5172 100.848 92.3415 101.02Z" fill="#FFC727"/>
<path d="M80.6783 108.809C80.3459 108.706 80.0216 108.578 79.7081 108.427C79.4063 108.301 79.1083 108.156 78.8142 108.01C78.2068 107.712 77.5956 107.434 76.992 107.124C75.7702 106.537 74.5975 105.852 73.4853 105.077C73.4051 105.016 73.2943 105.119 73.3745 105.195C74.3321 106.202 75.442 107.053 76.6635 107.716C77.2724 108.035 77.9124 108.291 78.5735 108.48C78.9097 108.568 79.2458 108.633 79.582 108.702C79.9182 108.771 80.3002 108.786 80.6478 108.866C80.6554 108.87 80.6643 108.871 80.6725 108.868C80.6808 108.866 80.6877 108.86 80.6917 108.853C80.6958 108.845 80.6966 108.836 80.6941 108.828C80.6916 108.82 80.6859 108.813 80.6783 108.809Z" fill="#FFC727"/>
<path d="M78.1079 108.801C76.6563 108.152 75.262 107.434 73.8715 106.662C73.1915 106.28 72.5116 105.898 71.8392 105.516C71.1268 105.133 70.4679 104.658 69.8796 104.103C69.8299 104.053 69.7535 104.122 69.7879 104.179C70.2487 104.837 70.8324 105.4 71.5069 105.837C72.1439 106.323 72.8154 106.762 73.5162 107.151C74.958 107.93 76.5007 108.506 78.1002 108.862C78.1155 108.87 78.1384 108.813 78.1079 108.801Z" fill="#FFC727"/>
<path d="M69.2994 74.1501C65.4336 74.1501 63.4854 77.1182 63.4854 80.5868C63.4854 83.3945 65.7774 86.2633 69.4942 86.2633C73.2111 86.2633 75.5031 82.8941 75.5031 80.2545C75.5021 79.4447 75.3403 78.6432 75.027 77.8965C74.7137 77.1498 74.2551 76.4728 73.6779 75.9048C73.1007 75.3369 72.4164 74.8893 71.6647 74.5881C70.9131 74.2868 70.1091 74.138 69.2994 74.1501Z" fill="#263238"/>
<path d="M69.6735 74.872C66.0368 74.872 64.207 77.6606 64.207 80.919C64.207 83.5586 66.3653 86.267 69.853 86.267C73.3407 86.267 75.5028 83.1002 75.5028 80.6211C75.5054 79.8585 75.3559 79.1032 75.0629 78.3992C74.7698 77.6952 74.3393 77.0568 73.7964 76.5214C73.2535 75.986 72.6091 75.5643 71.9012 75.281C71.1932 74.9978 70.4359 74.8587 69.6735 74.872Z" fill="white"/>
<path d="M69.712 76.1134C66.8661 76.1134 65.4336 78.2985 65.4336 80.8502C65.4454 81.4159 65.5696 81.9736 65.7989 82.4908C66.0282 83.0081 66.3581 83.4745 66.7694 83.8631C67.1807 84.2516 67.6652 84.5545 68.1946 84.7541C68.7241 84.9536 69.2879 85.0459 69.8533 85.0255C72.5846 85.0255 74.2769 82.5463 74.2769 80.6058C74.2775 80.0095 74.1593 79.4191 73.9292 78.8691C73.6991 78.319 73.3617 77.8203 72.9367 77.4021C72.5117 76.9839 72.0077 76.6545 71.454 76.4333C70.9004 76.212 70.3082 76.1033 69.712 76.1134Z" fill="#263238"/>
<path d="M71.0293 76.1595C69.7382 76.1595 69.085 77.1527 69.085 78.3101C69.0889 78.5683 69.1442 78.823 69.2478 79.0595C69.3514 79.296 69.5012 79.5094 69.6883 79.6873C69.8754 79.8652 70.0962 80.0039 70.3376 80.0954C70.579 80.1869 70.8363 80.2293 71.0943 80.2201C71.6222 80.2056 72.1245 79.9892 72.4977 79.6153C72.8708 79.2415 73.0863 78.7388 73.0998 78.2108C73.1019 77.9392 73.0496 77.67 72.946 77.4189C72.8425 77.1678 72.6897 76.94 72.4968 76.7489C72.3039 76.5577 72.0746 76.4071 71.8226 76.3059C71.5706 76.2047 71.3009 76.1549 71.0293 76.1595Z" fill="white"/>
<path d="M94.5573 74.15C98.4269 74.15 100.371 77.1182 100.371 80.5867C100.371 83.3944 98.0793 86.2633 94.3663 86.2633C90.6532 86.2633 88.3574 82.894 88.3574 80.2544C88.3584 79.445 88.52 78.6438 88.8331 77.8973C89.1462 77.1509 89.6045 76.4741 90.1813 75.9062C90.758 75.3383 91.4419 74.8906 92.1931 74.5891C92.9443 74.2877 93.7479 74.1384 94.5573 74.15Z" fill="#263238"/>
<path d="M94.1867 74.872C97.8234 74.872 99.6493 77.6606 99.6493 80.919C99.6493 83.5586 97.4949 86.267 94.0034 86.267C90.5119 86.267 88.3574 83.0964 88.3574 80.602C88.3573 79.841 88.5087 79.0877 88.8029 78.386C89.097 77.6842 89.528 77.0481 90.0707 76.5147C90.6133 75.9813 91.2568 75.5613 91.9635 75.2793C92.6702 74.9972 93.4259 74.8588 94.1867 74.872Z" fill="white"/>
<path d="M94.1479 76.1134C96.9938 76.1134 98.4225 78.2985 98.4225 80.8502C98.4107 81.4159 98.2865 81.9736 98.0572 82.4908C97.8279 83.0081 97.498 83.4745 97.0867 83.8631C96.6754 84.2516 96.1909 84.5545 95.6615 84.7541C95.132 84.9536 94.5682 85.0459 94.0028 85.0255C91.2715 85.0255 89.583 82.5463 89.583 80.6058C89.5824 80.0095 89.7006 79.4191 89.9307 78.8691C90.1608 78.319 90.4982 77.8203 90.9232 77.4021C91.3482 76.9839 91.8522 76.6545 92.4059 76.4333C92.9595 76.212 93.5518 76.1033 94.1479 76.1134Z" fill="#263238"/>
<path d="M95.6798 76.1591C94.3887 76.1591 93.7393 77.1523 93.7393 78.3097C93.7432 78.5675 93.7984 78.822 93.9018 79.0582C94.0052 79.2944 94.1546 79.5077 94.3413 79.6855C94.528 79.8633 94.7483 80.0021 94.9892 80.0939C95.2302 80.1856 95.4871 80.2284 95.7448 80.2197C96.2731 80.2053 96.7758 79.9889 97.1496 79.6152C97.5233 79.2415 97.7396 78.7387 97.7541 78.2104C97.7562 77.9385 97.7038 77.6689 97.6 77.4176C97.4962 77.1663 97.3431 76.9383 97.1498 76.7471C96.9564 76.5559 96.7268 76.4053 96.4743 76.3043C96.2218 76.2033 95.9517 76.1539 95.6798 76.1591Z" fill="white"/>
<path d="M84.7165 82.2367C84.6631 82.6187 82.2412 83.9709 81.9623 83.9709C81.6835 83.9709 79.2654 82.6034 79.2081 82.2367C79.1508 81.8699 81.3931 81.7324 81.9623 81.7324C82.5315 81.7324 84.7738 81.8699 84.7165 82.2367Z" fill="#263238"/>
<path d="M75.6367 85.3005C76.1065 85.8613 76.6242 86.3802 77.1838 86.8514C77.4561 87.0777 77.7505 87.276 78.0624 87.4435C78.3441 87.6023 78.6636 87.6815 78.9869 87.6727C79.3061 87.6273 79.6133 87.5193 79.8906 87.3547C80.1679 87.1901 80.4099 86.9724 80.6027 86.7139C81.032 86.174 81.3701 85.5675 81.6036 84.9185L81.9856 83.9023L82.3446 84.9185C82.5711 85.557 82.8848 86.1612 83.2767 86.7139C83.6587 87.2487 84.2012 87.6994 84.8047 87.6536C85.4832 87.5372 86.1164 87.2358 86.6345 86.7826C87.2133 86.337 87.7514 85.841 88.2427 85.3005C87.8613 85.9349 87.4033 86.5199 86.879 87.0424C86.6132 87.312 86.3185 87.5515 86.0004 87.7567C85.6689 87.9828 85.2922 88.134 84.8964 88.1998C84.4673 88.2593 84.0307 88.1747 83.6549 87.9592C83.3073 87.75 82.9995 87.481 82.7457 87.1646C82.4973 86.8674 82.2809 86.5447 82.1002 86.202C81.9173 85.8631 81.7577 85.5121 81.6227 85.1515H82.3446C82.2068 85.5178 82.0381 85.8718 81.8404 86.2096C81.6479 86.5517 81.4172 86.8708 81.1528 87.1608C80.8817 87.4664 80.5615 87.7246 80.2054 87.9248C79.8364 88.1212 79.424 88.2223 79.006 88.2189C78.5957 88.2018 78.1985 88.0694 77.86 87.8369C77.539 87.6267 77.2441 87.3793 76.9814 87.0997C76.4595 86.5587 76.0077 85.9542 75.6367 85.3005Z" fill="#263238"/>
<path d="M63.2711 84.7349C60.5589 84.0473 57.8238 83.4667 55.0734 82.9548C52.323 82.4429 49.5687 81.9845 46.7954 81.6407C46.1027 81.5414 45.41 81.4535 44.7173 81.3771C44.0221 81.2969 43.3307 81.2052 42.6354 81.1365C41.245 81.0066 39.8545 80.8691 38.4602 80.7545C35.6716 80.5138 32.8792 80.4298 30.0791 80.3343L32.1801 80.3037C32.8792 80.3037 33.582 80.3037 34.2811 80.3037L36.3783 80.3572C37.0812 80.3572 37.7802 80.426 38.4793 80.4603C41.2755 80.6055 44.0641 80.8958 46.8451 81.2473C49.626 81.5987 52.3879 82.0838 55.1307 82.653C56.5008 82.9408 57.8671 83.2515 59.2295 83.5851C60.5818 83.9518 61.9379 84.3071 63.2711 84.7349Z" fill="#263238"/>
<path d="M61.8846 86.1601C60.6316 85.9996 59.3825 85.8468 58.1257 85.7208C56.8689 85.5947 55.6198 85.461 54.363 85.3388C51.8533 85.1172 49.3397 84.93 46.8223 84.8192C45.5656 84.739 44.305 84.7008 43.0482 84.655C41.7914 84.6091 40.527 84.5939 39.2702 84.59H37.3793L35.4693 84.6206C34.2087 84.6206 32.9519 84.7008 31.6875 84.7161C34.2011 84.4869 36.7223 84.3341 39.2473 84.3074C41.7723 84.2806 44.3011 84.3303 46.8223 84.4487C49.3435 84.5671 51.8647 84.7734 54.3745 85.0561C56.8842 85.3388 59.4131 85.6826 61.8846 86.1601Z" fill="#263238"/>
<path d="M62.3509 87.8334C61.3004 87.8334 60.2499 87.8334 59.1994 87.8334C58.1489 87.8334 57.0984 87.8601 56.0479 87.8945C53.9469 87.9556 51.8459 88.0244 49.7525 88.1619C47.6592 88.2994 45.5505 88.4255 43.4686 88.6088C41.3867 88.7922 39.2896 88.9908 37.1924 89.2086C38.2314 89.0278 39.2705 88.861 40.3095 88.7082C41.3524 88.5706 42.3952 88.4293 43.4419 88.3262C45.5314 88.0817 47.6439 87.9442 49.7334 87.7914C51.823 87.6386 53.9354 87.6118 56.0441 87.6118C58.1527 87.6118 60.2537 87.6538 62.3509 87.8334Z" fill="#263238"/>
<path d="M101.51 84.735C102.843 84.3072 104.184 83.971 105.551 83.589C106.919 83.207 108.279 82.9434 109.65 82.6569C112.393 82.0877 115.159 81.6293 117.936 81.2512C120.713 80.873 123.502 80.6094 126.302 80.4642C127.001 80.4299 127.7 80.3802 128.399 80.3611L130.5 80.3076C131.199 80.3076 131.902 80.3076 132.601 80.3076L134.698 80.3382C131.902 80.4337 129.105 80.5177 126.321 80.7584C124.926 80.8577 123.536 80.9952 122.145 81.1404C121.45 81.2091 120.759 81.3008 120.063 81.381C119.368 81.4613 118.677 81.5453 117.985 81.6446C115.212 81.9884 112.454 82.4506 109.707 82.9587C106.961 83.4668 104.222 84.0398 101.51 84.735Z" fill="#263238"/>
<path d="M102.889 86.1602C105.368 85.6827 107.855 85.3427 110.38 85.06C112.905 84.7773 115.411 84.594 117.932 84.4526C120.453 84.3113 122.978 84.2731 125.503 84.3113C128.028 84.3495 130.553 84.4908 133.067 84.72C131.802 84.72 130.545 84.6169 129.285 84.6245L127.394 84.594H125.503C124.242 84.594 122.986 84.636 121.725 84.6589C120.464 84.6818 119.208 84.743 117.951 84.8232C115.434 84.934 112.92 85.1211 110.41 85.3427C109.155 85.4497 107.901 85.577 106.648 85.7247C105.391 85.8469 104.142 85.9997 102.889 86.1602Z" fill="#263238"/>
<path d="M102.43 87.8333C104.527 87.6538 106.632 87.608 108.736 87.6041C110.841 87.6003 112.939 87.6767 115.047 87.7837C117.156 87.8906 119.249 88.074 121.339 88.3185C122.385 88.4331 123.428 88.5744 124.471 88.7005C125.514 88.8265 126.549 89.0214 127.584 89.2009C125.491 88.9946 123.405 88.7692 121.308 88.6012C119.211 88.4331 117.106 88.265 115.024 88.1542C112.942 88.0434 110.822 87.9479 108.733 87.8868C107.682 87.8524 106.632 87.8372 105.581 87.8257C104.531 87.8142 103.48 87.8257 102.43 87.8333Z" fill="#263238"/>
<path d="M134.847 138.07C134.847 138.07 135.133 143.54 135.152 144.228C135.152 144.228 137.742 146.359 137.158 147.429C136.711 148.242 134.816 149.457 123.451 147.669C112.087 145.882 98.0446 146.669 97.2157 156.104C96.3868 165.539 106.651 169.875 122.214 169.325C137.776 168.775 148.243 163.213 148.518 153.419C148.721 146.164 141.39 139.43 134.847 138.07Z" fill="#FFC727"/>
<path d="M148.469 150.256C148.07 149.264 147.543 148.328 146.903 147.471C146.88 147.441 146.834 147.471 146.853 147.498C147.353 148.295 147.727 149.165 147.961 150.076C148.176 150.975 148.327 151.888 148.412 152.808C148.547 154.237 148.473 155.679 148.19 157.086C148.091 157.575 147.949 158.053 147.842 158.542C147.603 159.637 147.273 160.71 146.857 161.75C146.799 161.892 147.029 161.983 147.097 161.854C147.61 160.954 148.047 160.014 148.404 159.042C148.734 158.065 148.961 157.056 149.08 156.032C149.381 154.086 149.17 152.096 148.469 150.256Z" fill="#FFC727"/>
<path d="M148.052 152.46C148.052 152.453 148.049 152.446 148.044 152.441C148.039 152.436 148.032 152.433 148.025 152.433C148.018 152.433 148.011 152.436 148.006 152.441C148.001 152.446 147.998 152.453 147.998 152.46C147.995 153.359 147.894 154.256 147.697 155.134C147.517 156.005 147.315 156.876 147.085 157.735C146.858 158.6 146.571 159.447 146.226 160.272C146.058 160.673 145.875 161.066 145.68 161.456C145.485 161.846 145.298 162.281 145.084 162.678C144.87 163.076 144.587 163.553 144.32 163.989C144.052 164.424 143.766 164.825 143.483 165.238C143.43 165.318 143.548 165.406 143.617 165.341C144.267 164.704 144.855 164.007 145.374 163.259C145.907 162.51 146.362 161.708 146.734 160.868C147.519 159.191 147.991 157.385 148.125 155.539C148.186 154.519 148.109 153.491 148.052 152.46Z" fill="#FFC727"/>
<path d="M140 145.057C139.213 146.638 137.631 147.666 135.966 148.113C133.865 148.705 131.657 148.399 129.537 148.063C127.287 147.704 125.029 147.391 122.772 147.1C120.617 146.825 118.459 146.554 116.278 146.397C112.076 146.092 107.675 146.237 103.691 147.799C101.848 148.482 100.212 149.627 98.9386 151.123C97.7885 152.508 97.0277 154.175 96.7345 155.951C96.471 157.64 96.6897 159.368 97.3655 160.937C98.0414 162.506 99.1468 163.853 100.555 164.821C100.903 165.057 101.268 165.266 101.647 165.448C101.654 165.449 101.661 165.448 101.668 165.445C101.674 165.441 101.679 165.436 101.683 165.43C101.686 165.424 101.687 165.417 101.686 165.409C101.686 165.402 101.682 165.396 101.678 165.391C98.8775 163.339 96.8376 160.172 97.2311 156.765C97.4494 155.021 98.1402 153.37 99.229 151.99C100.393 150.532 101.92 149.406 103.656 148.724C107.526 147.116 111.816 146.94 115.945 147.196C120.308 147.482 124.64 148.193 128.975 148.724C131.107 148.987 133.326 149.217 135.439 148.724C137.065 148.384 138.518 147.477 139.538 146.164C139.77 145.835 139.963 145.48 140.114 145.106C140.126 145.045 140.034 144.988 140 145.057Z" fill="#263238"/>
</svg>
