<svg width="107" height="108" viewBox="0 0 107 108" fill="none" xmlns="http://www.w3.org/2000/svg">
<g filter="url(#filter0_d_681_457)">
<rect x="4" width="99" height="100" rx="20" fill="#0072DC"/>
</g>
<path d="M53.5 45C59.299 45 64 40.299 64 34.5C64 28.701 59.299 24 53.5 24C47.701 24 43 28.701 43 34.5C43 40.299 47.701 45 53.5 45Z" stroke="#EEEEEE" stroke-opacity="0.933333" stroke-width="8" stroke-linecap="round" stroke-linejoin="round"/>
<path d="M53.2368 57.3266L53.4026 72.5051" stroke="#EEEEEE" stroke-opacity="0.933333" stroke-width="8" stroke-linecap="round" stroke-linejoin="round"/>
<path d="M72 73V67.6667C72 64.8377 70.8862 62.1246 68.9037 60.1242C66.9212 58.1238 64.2323 57 61.4286 57H45.5714C42.7677 57 40.0788 58.1238 38.0963 60.1242C36.1138 62.1246 35 64.8377 35 67.6667V73" stroke="#EEEEEE" stroke-opacity="0.933333" stroke-width="8" stroke-linecap="round" stroke-linejoin="round"/>
<defs>
<filter id="filter0_d_681_457" x="0" y="0" width="107" height="108" filterUnits="userSpaceOnUse" color-interpolation-filters="sRGB">
<feFlood flood-opacity="0" result="BackgroundImageFix"/>
<feColorMatrix in="SourceAlpha" type="matrix" values="0 0 0 0 0 0 0 0 0 0 0 0 0 0 0 0 0 0 127 0" result="hardAlpha"/>
<feOffset dy="4"/>
<feGaussianBlur stdDeviation="2"/>
<feComposite in2="hardAlpha" operator="out"/>
<feColorMatrix type="matrix" values="0 0 0 0 0 0 0 0 0 0 0 0 0 0 0 0 0 0 0.25 0"/>
<feBlend mode="normal" in2="BackgroundImageFix" result="effect1_dropShadow_681_457"/>
<feBlend mode="normal" in="SourceGraphic" in2="effect1_dropShadow_681_457" result="shape"/>
</filter>
</defs>
</svg>
