<svg width="102" height="27" viewBox="0 0 102 27" fill="none" xmlns="http://www.w3.org/2000/svg">
<path d="M3 12.9966H12.7021" stroke="#D50F25" stroke-opacity="0.8" stroke-width="5.5" stroke-linecap="round"/>
<path d="M3 22.7295H12.7021" stroke="#D50F25" stroke-opacity="0.8" stroke-width="5.5" stroke-linecap="round"/>
<path d="M20.1064 8.36333C20.1989 1.50617 30.5023 2.33389 30.5023 8.36333C30.5023 14.3928 30.5023 23.2558 30.5023 23.2558" stroke="#FFC107" stroke-opacity="0.8" stroke-width="5.5" stroke-linecap="round"/>
<path d="M30.5742 7.60364V7.60364C30.5742 5.06112 32.6353 3 35.1779 3H35.7816C38.6576 3 40.989 5.33144 40.989 8.20741V18.3861C40.989 21.221 43.2872 23.5191 46.1221 23.5191V23.5191C48.9569 23.5191 51.2551 21.221 51.2551 18.3861V17.9947" stroke="#22C55E" stroke-opacity="0.8" stroke-width="5.5" stroke-linecap="round" stroke-linejoin="round"/>
<path d="M52.9629 19.9173C49.3236 16.1675 49.3236 10.088 52.9629 6.3382C56.6023 2.58844 62.5028 2.58844 66.1422 6.3382C69.7815 10.088 69.7815 16.1675 66.1422 19.9173C62.5028 23.6671 56.6023 23.6671 52.9629 19.9173Z" stroke="#0072DC" stroke-opacity="0.8" stroke-width="5.5" stroke-linejoin="round"/>
<path d="M3.12695 3L10.1057 3C15.6285 3 20.1057 7.47715 20.1057 13V23.256" stroke="#D50F25" stroke-opacity="0.8" stroke-width="5.5" stroke-linecap="round" stroke-linejoin="round"/>
<path d="M71.1709 3H71.6724C75.9914 3 79.8576 5.75572 81.3079 9.82393V9.82393C82.0948 12.0314 82.0918 14.4643 81.2866 16.6651V16.6651C79.8384 20.6235 76.0721 23.256 71.8571 23.256H71.1709" stroke="#D50F25" stroke-opacity="0.8" stroke-width="5.5" stroke-linecap="round" stroke-linejoin="round"/>
<path d="M98.9268 18.8968C98.8343 25.4482 88.5309 24.6574 88.5309 18.8968C88.5309 13.1362 88.5309 3.78867 88.5309 3.78867" stroke="#FFC107" stroke-opacity="0.8" stroke-width="5.5" stroke-linecap="round"/>
<path d="M99 17.9945L99 3.52588" stroke="#22C55E" stroke-opacity="0.8" stroke-width="5.5" stroke-linecap="round" stroke-linejoin="round"/>
</svg>
