<?xml version="1.0" standalone="no"?>
<!DOCTYPE svg PUBLIC "-//W3C//DTD SVG 20010904//EN"
 "http://www.w3.org/TR/2001/REC-SVG-20010904/DTD/svg10.dtd">
<svg version="1.0" xmlns="http://www.w3.org/2000/svg"
 width="512.000000pt" height="512.000000pt" viewBox="0 0 512.000000 512.000000"
 preserveAspectRatio="xMidYMid meet">

<g transform="translate(0.000000,512.000000) scale(0.100000,-0.100000)"
fill="#000000" stroke="none">
<path d="M2430 5105 c-162 -30 -354 -116 -575 -255 -123 -77 -280 -154 -360
-176 -36 -10 -116 -18 -200 -21 -77 -3 -148 -10 -159 -15 -42 -23 7 -164 89
-256 55 -61 142 -102 232 -110 34 -2 63 -9 63 -14 0 -6 -28 -38 -62 -72 -75
-74 -164 -120 -276 -143 -130 -26 -141 -54 -54 -145 88 -93 208 -184 307 -235
l90 -45 120 5 c267 12 527 127 740 328 l84 81 31 -48 c41 -65 69 -144 77 -216
5 -47 11 -63 29 -75 22 -14 30 -13 96 7 191 58 358 179 451 328 15 23 29 42
32 42 2 0 33 -44 70 -99 125 -188 256 -321 316 -321 23 0 36 11 73 64 101 141
145 280 153 486 9 228 -33 374 -138 485 -85 90 -244 154 -383 155 -43 0 -55 5
-100 43 -116 98 -256 172 -393 208 -103 26 -256 33 -353 14z"/>
<path d="M2011 3384 c-19 -24 -21 -40 -21 -166 0 -134 1 -140 25 -163 13 -14
35 -25 49 -25 72 0 86 33 86 198 0 116 -2 132 -21 156 -16 20 -29 26 -59 26
-30 0 -43 -6 -59 -26z"/>
<path d="M2990 3383 c-20 -26 -21 -37 -18 -171 3 -137 4 -145 27 -163 32 -26
77 -24 106 6 24 23 25 29 25 163 0 126 -2 142 -21 166 -29 37 -89 37 -119 -1z"/>
<path d="M2208 2803 c-25 -30 -29 -52 -14 -87 30 -71 125 -152 208 -177 208
-63 424 3 514 157 39 66 13 124 -57 124 -33 0 -41 -5 -74 -51 -51 -71 -117
-101 -225 -101 -100 0 -173 30 -215 88 -16 22 -36 45 -44 52 -22 18 -75 15
-93 -5z"/>
<path d="M2315 2018 c3 -13 18 -80 34 -150 l28 -127 -28 -148 c-15 -81 -35
-189 -44 -240 l-17 -92 123 -136 c98 -107 128 -135 149 -135 21 0 51 28 149
135 l123 136 -17 92 c-9 51 -29 159 -44 240 l-28 148 33 147 c18 80 32 147 31
148 -1 1 -36 -4 -77 -12 -119 -21 -312 -15 -403 12 -14 5 -17 1 -12 -18z"/>
</g>
</svg>
