<svg width="150" height="150" viewBox="0 0 150 150" fill="none" xmlns="http://www.w3.org/2000/svg">
<path d="M104.261 50.472C104.261 50.5651 104.289 50.6562 104.341 50.7337C104.392 50.8111 104.466 50.8715 104.552 50.9071C104.638 50.9428 104.733 50.9521 104.824 50.9339C104.915 50.9158 104.999 50.8709 105.065 50.805C105.131 50.7392 105.176 50.6552 105.194 50.5639C105.212 50.4725 105.203 50.3778 105.167 50.2917C105.132 50.2057 105.071 50.1321 104.994 50.0804C104.916 50.0286 104.825 50.001 104.732 50.001C104.607 50.0018 104.488 50.0516 104.4 50.1398C104.312 50.228 104.262 50.3473 104.261 50.472Z" fill="#455A64"/>
<path d="M110.301 52.5722C109.734 52.4865 109.161 52.4454 108.588 52.4492C108.013 52.4439 107.44 52.485 106.872 52.5722C108.009 52.7363 109.164 52.7363 110.301 52.5722Z" fill="#EBEBEB"/>
<path d="M110.301 53.9548C109.564 53.8674 108.823 53.8263 108.081 53.8318C107.339 53.8249 106.597 53.866 105.861 53.9548C106.598 54.0406 107.339 54.0817 108.081 54.0778C108.823 54.0803 109.564 54.0392 110.301 53.9548Z" fill="#EBEBEB"/>
<path d="M110.301 55.3349C108.935 55.1709 107.554 55.1709 106.188 55.3349C107.554 55.4989 108.935 55.4989 110.301 55.3349Z" fill="#EBEBEB"/>
<path d="M110.301 56.7182C109.619 56.6324 108.933 56.5913 108.246 56.5952C107.558 56.5897 106.87 56.6308 106.188 56.7182C107.554 56.8822 108.935 56.8822 110.301 56.7182Z" fill="#EBEBEB"/>
<path d="M110.301 58.0978C109.71 58.0131 109.113 57.973 108.516 57.9778C107.914 57.9708 107.312 58.0109 106.716 58.0978C107.311 58.1873 107.913 58.2284 108.516 58.2209C109.113 58.2262 109.71 58.1851 110.301 58.0978Z" fill="#EBEBEB"/>
<path d="M110.301 59.4809C108.78 59.3169 107.246 59.3169 105.726 59.4809C106.486 59.5682 107.25 59.6093 108.015 59.6039C108.779 59.6078 109.542 59.5667 110.301 59.4809Z" fill="#EBEBEB"/>
<path d="M110.301 60.8642C109.048 60.7002 107.779 60.7002 106.527 60.8642C107.779 61.0282 109.048 61.0282 110.301 60.8642Z" fill="#EBEBEB"/>
<path d="M110.301 62.2439C109.515 62.1595 108.724 62.1184 107.934 62.1209C107.143 62.117 106.353 62.158 105.567 62.2439C106.353 62.3327 107.143 62.3738 107.934 62.3669C108.725 62.3723 109.515 62.3312 110.301 62.2439Z" fill="#EBEBEB"/>
<path d="M110.301 63.6269C108.727 63.4629 107.141 63.4629 105.567 63.6269C106.353 63.7142 107.143 63.7553 107.934 63.7499C108.724 63.7538 109.515 63.7128 110.301 63.6269Z" fill="#EBEBEB"/>
<path d="M103.541 52.5722C102.795 52.4863 102.045 52.4452 101.294 52.4492C100.543 52.4439 99.7926 52.4849 99.0469 52.5722C100.542 52.7366 102.051 52.7366 103.547 52.5722H103.541Z" fill="#EBEBEB"/>
<path d="M103.541 53.9547C103.054 53.8677 102.56 53.8265 102.065 53.8317C101.569 53.8251 101.074 53.8663 100.586 53.9547C101.074 54.0402 101.569 54.0814 102.065 54.0777C102.56 54.08 103.054 54.0389 103.541 53.9547Z" fill="#EBEBEB"/>
<path d="M103.541 55.3349C102.137 55.1709 100.718 55.1709 99.314 55.3349C100.718 55.4989 102.137 55.4989 103.541 55.3349Z" fill="#EBEBEB"/>
<path d="M103.541 56.7182C102.859 56.6324 102.173 56.5913 101.486 56.5952C100.798 56.5897 100.11 56.6308 99.428 56.7182C100.794 56.8822 102.175 56.8822 103.541 56.7182Z" fill="#EBEBEB"/>
<path d="M103.541 58.0982C102.795 58.0133 102.045 57.9732 101.294 57.9782C100.543 57.9719 99.7928 58.0119 99.047 58.0982C99.7926 58.1869 100.543 58.228 101.294 58.2212C102.045 58.2267 102.795 58.1856 103.541 58.0982Z" fill="#EBEBEB"/>
<path d="M103.541 59.4809C102.356 59.3169 101.153 59.3169 99.968 59.4809C100.564 59.5689 101.166 59.61 101.768 59.6039C102.361 59.6072 102.954 59.566 103.541 59.4809Z" fill="#EBEBEB"/>
<path d="M103.541 60.8642C102.137 60.7002 100.718 60.7002 99.314 60.8642C100.718 61.0282 102.137 61.0282 103.541 60.8642Z" fill="#EBEBEB"/>
<path d="M103.541 62.2438C103 62.1595 102.453 62.1184 101.906 62.1208C101.359 62.1171 100.812 62.1583 100.271 62.2438C100.811 62.3324 101.358 62.3735 101.906 62.3668C102.454 62.3723 103 62.3311 103.541 62.2438Z" fill="#EBEBEB"/>
<path d="M103.541 63.6269C102.501 63.4629 101.443 63.4629 100.403 63.6269C100.921 63.7139 101.446 63.7551 101.972 63.7499C102.498 63.7538 103.022 63.7127 103.541 63.6269Z" fill="#EBEBEB"/>
<path d="M15.0389 134.37C53.4389 134.556 96.5459 134.556 134.961 134.37C96.5459 134.187 53.4539 134.187 15.0389 134.37Z" fill="#263238"/>
<path d="M21.4955 98.6582C27.3935 104.43 28.3955 113.358 27.1415 121.185C27.1085 121.362 26.8415 121.314 26.8415 121.146C26.8415 119.364 26.8955 117.6 26.8895 115.842C26.8595 115.761 26.8325 115.686 26.7995 115.605C25.2605 114.486 23.8445 113.223 22.9685 111.489C21.9845 109.554 21.5975 107.367 20.8445 105.345C20.7755 105.153 20.9795 105.21 21.1145 105.309C24.7145 107.955 25.8455 110.799 26.8745 114.609C26.854 112.62 26.6451 110.637 26.2505 108.687C25.4765 105.087 23.9435 101.487 21.3485 98.8202C21.2435 98.7002 21.3935 98.5562 21.4955 98.6582Z" fill="#263238"/>
<path d="M20.4006 99.3333C19.3866 99.3663 18.7506 100.986 17.9616 101.46C17.5416 101.712 17.1336 101.697 16.8396 101.283C16.0566 100.191 17.1396 98.8413 18.1416 98.0883C17.4186 98.3883 16.8216 98.9073 16.0416 99.0543C15.5706 99.1413 15.2016 98.9673 15.0936 98.4873C14.7486 96.9873 16.6176 96.3333 17.9016 96.3033C17.2806 95.8713 15.5016 94.6953 16.4436 94.1163C17.3856 93.5373 19.4946 95.2173 20.1786 95.7693C21.1806 96.5853 22.3746 97.8003 22.4196 99.0693C22.4676 100.557 21.1686 99.6423 20.4006 99.3333Z" fill="#407BFF"/>
<path opacity="0.2" d="M20.4006 99.3333C19.3866 99.3663 18.7506 100.986 17.9616 101.46C17.5416 101.712 17.1336 101.697 16.8396 101.283C16.0566 100.191 17.1396 98.8413 18.1416 98.0883C17.4186 98.3883 16.8216 98.9073 16.0416 99.0543C15.5706 99.1413 15.2016 98.9673 15.0936 98.4873C14.7486 96.9873 16.6176 96.3333 17.9016 96.3033C17.2806 95.8713 15.5016 94.6953 16.4436 94.1163C17.3856 93.5373 19.4946 95.2173 20.1786 95.7693C21.1806 96.5853 22.3746 97.8003 22.4196 99.0693C22.4676 100.557 21.1686 99.6423 20.4006 99.3333Z" fill="black"/>
<path d="M20.6817 99.5821C19.3857 98.9821 16.8927 99.8401 16.6827 99.3511C16.2507 98.3521 18.2427 97.6651 19.3167 97.5331C18.3267 97.2661 16.4307 96.8371 16.4907 95.8831C16.5597 94.7191 19.3977 95.7211 20.8347 96.8221C22.6347 98.2081 22.6347 99.5461 22.3347 99.8221C21.9237 100.182 20.8947 99.6781 20.6817 99.5821Z" fill="#407BFF"/>
<path opacity="0.1" d="M20.6817 99.5821C19.3857 98.9821 16.8927 99.8401 16.6827 99.3511C16.2507 98.3521 18.2427 97.6651 19.3167 97.5331C18.3267 97.2661 16.4307 96.8371 16.4907 95.8831C16.5597 94.7191 19.3977 95.7211 20.8347 96.8221C22.6347 98.2081 22.6347 99.5461 22.3347 99.8221C21.9237 100.182 20.8947 99.6781 20.6817 99.5821Z" fill="black"/>
<path d="M34.923 98.1004C28.812 103.644 27.483 112.53 28.428 120.393C28.455 120.573 28.728 120.534 28.728 120.366C28.794 118.587 28.809 116.823 28.881 115.065C28.917 114.984 28.947 114.912 28.98 114.831C30.561 113.772 32.022 112.563 32.964 110.865C34.023 108.966 34.494 106.8 35.322 104.808C35.4 104.616 35.19 104.664 35.052 104.76C31.368 107.265 30.117 110.067 28.944 113.829C29.0402 111.842 29.3244 109.868 29.793 107.934C30.693 104.355 32.373 100.839 35.064 98.2624C35.0778 98.2421 35.0845 98.2178 35.0831 98.1933C35.0817 98.1688 35.0721 98.1455 35.056 98.127C35.0399 98.1085 35.0181 98.0958 34.994 98.091C34.97 98.0862 34.945 98.0895 34.923 98.1004Z" fill="#263238"/>
<path d="M36.0001 98.8022C37.0111 98.8742 37.5871 100.518 38.3581 101.022C38.7661 101.289 39.1741 101.289 39.4831 100.89C40.3081 99.8252 39.2851 98.4362 38.3041 97.6442C39.0151 97.9682 39.5941 98.5142 40.3681 98.6912C40.4664 98.7275 40.5713 98.7423 40.6757 98.7346C40.7802 98.7269 40.8818 98.6969 40.9736 98.6465C41.0655 98.5962 41.1455 98.5267 41.2082 98.4428C41.2709 98.3589 41.3149 98.2626 41.3371 98.1602C41.7361 96.6842 39.8941 95.9492 38.6131 95.8682C39.2521 95.4602 41.0761 94.3532 40.1521 93.7412C39.2281 93.1292 37.0621 94.7252 36.3601 95.2412C35.3251 96.0182 34.0861 97.1882 33.9901 98.4572C33.8821 99.9482 35.2141 99.0842 36.0001 98.8022Z" fill="#407BFF"/>
<path opacity="0.2" d="M36.0001 98.8022C37.0111 98.8742 37.5871 100.518 38.3581 101.022C38.7661 101.289 39.1741 101.289 39.4831 100.89C40.3081 99.8252 39.2851 98.4362 38.3041 97.6442C39.0151 97.9682 39.5941 98.5142 40.3681 98.6912C40.4664 98.7275 40.5713 98.7423 40.6757 98.7346C40.7802 98.7269 40.8818 98.6969 40.9736 98.6465C41.0655 98.5962 41.1455 98.5267 41.2082 98.4428C41.2709 98.3589 41.3149 98.2626 41.3371 98.1602C41.7361 96.6842 39.8941 95.9492 38.6131 95.8682C39.2521 95.4602 41.0761 94.3532 40.1521 93.7412C39.2281 93.1292 37.0621 94.7252 36.3601 95.2412C35.3251 96.0182 34.0861 97.1882 33.9901 98.4572C33.8821 99.9482 35.2141 99.0842 36.0001 98.8022Z" fill="black"/>
<path d="M35.7001 99.0421C37.0201 98.5021 39.4771 99.4441 39.7051 98.9611C40.1731 97.9801 38.2051 97.2181 37.1401 97.0441C38.1391 96.8161 40.0531 96.4441 40.0291 95.5051C40.0021 94.3381 37.1281 95.2291 35.6521 96.2761C33.7921 97.5931 33.7531 98.9311 34.0411 99.2101C34.4401 99.6001 35.4871 99.1291 35.7001 99.0421Z" fill="#407BFF"/>
<path opacity="0.1" d="M35.7001 99.0421C37.0201 98.5021 39.4771 99.4441 39.7051 98.9611C40.1731 97.9801 38.2051 97.2181 37.1401 97.0441C38.1391 96.8161 40.0531 96.4441 40.0291 95.5051C40.0021 94.3381 37.1281 95.2291 35.6521 96.2761C33.7921 97.5931 33.7531 98.9311 34.0411 99.2101C34.4401 99.6001 35.4871 99.1291 35.7001 99.0421Z" fill="black"/>
<path d="M28.6739 112.728C28.2611 115.695 27.6273 118.627 26.7779 121.5C26.7638 121.554 26.7297 121.601 26.6825 121.63C26.6353 121.66 26.5786 121.67 26.5239 121.66C26.4693 121.649 26.4207 121.618 26.3882 121.573C26.3557 121.527 26.3416 121.471 26.3489 121.416C26.7509 118.716 27.4829 116.061 27.8849 113.361C28.3239 110.628 28.4807 107.858 28.3529 105.093C28.0979 100.539 26.8529 95.6971 23.8889 92.1361C23.8259 92.0521 23.9639 91.9321 24.0299 92.0101C29.9789 98.9461 29.0309 107.445 29.0249 108.21C29.8679 105.339 30.7349 102.051 33.9209 99.1261C34.0559 99.0001 34.1639 99.0601 34.1429 99.2761C33.5729 104.598 32.0909 107.376 29.0039 110.226C28.9169 111.06 28.7999 111.9 28.6739 112.728Z" fill="#263238"/>
<path d="M23.8347 92.9282C22.7667 92.4542 21.2907 93.8282 20.2347 93.9092C19.6737 93.9572 19.2597 93.7382 19.1637 93.1622C18.8997 91.6322 20.6937 90.7622 22.1217 90.5012C21.2217 90.4442 20.3217 90.6842 19.4547 90.4472C18.9207 90.2972 18.6297 89.9312 18.7557 89.3792C19.1517 87.6602 21.4257 87.9122 22.7697 88.5272C22.3437 87.7652 21.0867 85.6472 22.3587 85.5272C23.6307 85.4072 24.9717 88.2062 25.4007 89.1272C26.0307 90.4742 26.6607 92.3372 26.0667 93.6812C25.3767 95.2472 24.4887 93.6452 23.8347 92.9282Z" fill="#407BFF"/>
<path opacity="0.2" d="M23.8347 92.9282C22.7667 92.4542 21.2907 93.8282 20.2347 93.9092C19.6737 93.9572 19.2597 93.7382 19.1637 93.1622C18.8997 91.6322 20.6937 90.7622 22.1217 90.5012C21.2217 90.4442 20.3217 90.6842 19.4547 90.4472C18.9207 90.2972 18.6297 89.9312 18.7557 89.3792C19.1517 87.6602 21.4257 87.9122 22.7697 88.5272C22.3437 87.7652 21.0867 85.6472 22.3587 85.5272C23.6307 85.4072 24.9717 88.2062 25.4007 89.1272C26.0307 90.4742 26.6607 92.3372 26.0667 93.6812C25.3767 95.2472 24.4887 93.6452 23.8347 92.9282Z" fill="black"/>
<path d="M24.0006 93.3362C22.9506 92.0702 19.9386 91.6982 19.9656 91.0802C20.0256 89.8292 22.4346 90.1202 23.6166 90.5222C22.7166 89.7452 20.9736 88.3472 21.5166 87.3872C22.1766 86.2142 24.6156 88.6832 25.5516 90.5462C26.7306 92.8982 26.0466 94.2812 25.5996 94.4072C24.9996 94.5842 24.1896 93.5432 24.0006 93.3362Z" fill="#407BFF"/>
<path opacity="0.1" d="M24.0006 93.3362C22.9506 92.0702 19.9386 91.6982 19.9656 91.0802C20.0256 89.8292 22.4346 90.1202 23.6166 90.5222C22.7166 89.7452 20.9736 88.3472 21.5166 87.3872C22.1766 86.2142 24.6156 88.6832 25.5516 90.5462C26.7306 92.8982 26.0466 94.2812 25.5996 94.4072C24.9996 94.5842 24.1896 93.5432 24.0006 93.3362Z" fill="black"/>
<path d="M32.5859 114.333L35.2109 134.37H19.2509C19.5779 132.594 22.5509 114.309 22.5509 114.309L32.5859 114.333Z" fill="#407BFF"/>
<path d="M18.9116 135.003H84.8516V136.626H18.9116V135.003Z" fill="#407BFF"/>
<path d="M56.2736 135.003V132.588L80.7206 133.062L83.9336 135.003H56.2736Z" fill="#EBEBEB"/>
<path d="M56.2734 135V132.6C56.2734 132.6 48.3264 132.738 46.9194 132.6C45.5124 132.462 38.3304 131.793 37.1664 131.856C36.0024 131.919 33.7344 133.29 33.7344 133.29V135H56.2734Z" fill="#DBDBDB"/>
<path d="M19.5564 135L20.1324 133.629C20.1324 133.629 23.6274 133.701 24.1314 133.629C24.6354 133.557 29.3754 132.186 30.4014 132.372C31.4274 132.558 33.7344 133.272 33.7344 133.272V135H19.5564Z" fill="#DBDBDB"/>
<path d="M85.6693 95.4092H131.986V119.727H85.6693V95.4092Z" fill="#407BFF"/>
<path opacity="0.5" d="M85.6693 95.4092H131.986V119.727H85.6693V95.4092Z" fill="black"/>
<path d="M134.938 119.727H131.986V95.409H134.938V119.727Z" fill="#407BFF"/>
<path opacity="0.7" d="M134.938 119.727H131.986V95.409H134.938V119.727Z" fill="black"/>
<path d="M123.103 119.727H127.684V134.355H123.103V119.727Z" fill="#C7C7C7"/>
<path d="M89.9737 119.727H94.5547V134.355H89.9737V119.727Z" fill="#C7C7C7"/>
<path d="M124.147 111.9C124.146 112.146 124.217 112.387 124.353 112.593C124.489 112.798 124.682 112.958 124.909 113.054C125.136 113.149 125.386 113.175 125.628 113.129C125.869 113.082 126.092 112.965 126.267 112.792C126.442 112.619 126.562 112.398 126.611 112.157C126.661 111.916 126.638 111.665 126.545 111.437C126.452 111.209 126.294 111.014 126.091 110.876C125.887 110.738 125.647 110.663 125.401 110.661C125.237 110.66 125.074 110.69 124.922 110.752C124.771 110.814 124.632 110.904 124.516 111.02C124.399 111.135 124.307 111.272 124.243 111.423C124.18 111.574 124.147 111.736 124.147 111.9Z" fill="white"/>
<path d="M91.0199 111.9C91.0199 112.146 91.0927 112.386 91.2292 112.59C91.3657 112.794 91.5597 112.954 91.7866 113.048C92.0136 113.142 92.2633 113.166 92.5042 113.118C92.7451 113.07 92.9664 112.952 93.1401 112.778C93.3138 112.605 93.4321 112.383 93.48 112.143C93.528 111.902 93.5034 111.652 93.4094 111.425C93.3154 111.198 93.1562 111.004 92.9519 110.868C92.7477 110.731 92.5075 110.658 92.2619 110.658C91.9325 110.658 91.6166 110.789 91.3837 111.022C91.1508 111.255 91.0199 111.571 91.0199 111.9Z" fill="white"/>
<path d="M89.9997 91.7522C83.9187 92.3732 59.9457 88.3861 53.9607 81.0631C50.7927 77.1931 51.5427 48.1321 51.8157 45.5101C51.9957 43.7941 71.3487 44.7332 71.1267 47.3642C70.5267 54.4502 68.4057 71.0641 69.9507 72.4501C74.6577 76.6502 81.3957 79.1671 89.9427 83.9581C95.8977 87.3001 96.7107 91.0682 89.9997 91.7522Z" fill="#AD6359"/>
<path d="M53.3998 34.5002C51.8098 38.1362 51.4678 46.8452 52.1998 48.9782C52.9318 51.1112 67.7128 52.1852 69.2548 50.4782C70.7968 48.7712 75.2008 36.0992 74.1478 32.1782C73.0948 28.2572 55.0468 30.7412 53.3998 34.5002Z" fill="#AD6359"/>
<path d="M74.5526 38.523C72.4526 38.745 72.3896 37.023 72.3896 37.023C72.3896 37.023 72.0896 41.091 69.8336 41.658C67.6616 42.195 67.2356 38.892 67.2026 38.658C67.1846 38.871 66.8126 42.603 64.4876 42.939C62.0876 43.284 62.2166 39.894 62.2256 39.675C62.1476 39.873 61.0256 42.471 59.2256 42.324C56.0936 42.069 58.7456 35.352 57.6356 33.06C57.6356 33.06 53.5376 34.5 53.4116 34.515C53.4116 34.515 55.8116 28.071 58.9766 26.745C59.4354 26.5455 59.9485 26.5085 60.4312 26.6399C60.9138 26.7714 61.3373 27.0635 61.6316 27.468C61.6316 27.468 62.1746 25.305 63.9956 24.984C64.9316 24.822 66.0236 26.184 66.0236 26.184C66.0236 26.184 66.5306 24.471 68.1686 24.288C69.4736 24.135 70.3676 25.515 70.3676 25.515C70.3676 25.515 71.1416 16.434 73.5476 16.359C77.6906 16.233 74.9426 35.559 76.2746 36.822C76.9226 37.425 75.4646 38.427 74.5526 38.523Z" fill="#AD6359"/>
<path d="M70.5301 25.692C70.5284 25.6852 70.5291 25.678 70.5322 25.6716C70.5353 25.6653 70.5406 25.6602 70.547 25.6574C70.5535 25.6545 70.5607 25.654 70.5675 25.656C70.5743 25.6579 70.5801 25.6622 70.5841 25.668C72.2701 29.094 73.0771 33.375 72.4291 37.161C72.4081 37.284 72.0061 37.713 72.0211 37.572C72.3961 34.056 71.7211 29.562 70.5301 25.692Z" fill="#263238"/>
<path d="M66.0215 26.1001C66.0215 26.0581 66.0785 26.0341 66.0995 26.0761C67.8185 29.6161 68.5925 34.4761 67.3325 38.7391C67.2905 38.8861 67.1045 38.9731 67.1405 38.8021C67.7615 35.9041 67.1135 29.5861 66.0215 26.1001Z" fill="#263238"/>
<path d="M62.0369 39.9389C63.0839 35.7899 62.6969 31.7249 61.7009 27.6059C61.7009 27.5519 61.7639 27.5369 61.7879 27.5789C62.8259 29.4629 63.1859 32.1539 63.2879 34.2719C63.4232 36.2363 63.0404 38.2018 62.1779 39.9719C62.1479 40.0469 62.0129 40.0259 62.0369 39.9389Z" fill="#263238"/>
<path d="M72.4414 37.0681C72.4144 37.2181 72.1024 36.8701 72.0724 37.0171C71.7304 38.6251 70.9804 41.4721 69.6094 41.4931C68.5084 41.4931 67.7314 40.0381 67.6534 39.3571L67.4554 37.6441L67.0444 39.3211C66.8674 40.0637 66.5716 40.7728 66.1684 41.4211C65.7634 42.0511 65.1934 42.5731 64.5244 42.6691C64.2016 42.741 63.8639 42.6994 63.5683 42.5513C63.2726 42.4032 63.0371 42.1576 62.9014 41.8561C62.6066 41.1777 62.4919 40.4347 62.5684 39.6991L62.7004 37.6591L61.9114 39.5341C61.6928 40.0557 61.4074 40.5468 61.0624 40.9951C60.7533 41.4344 60.3212 41.7726 59.8204 41.9671C59.5925 42.046 59.347 42.0597 59.1117 42.0067C58.8764 41.9537 58.6605 41.8361 58.4884 41.6671C58.1613 41.2313 57.9665 40.7105 57.9274 40.1671C57.7714 39.0181 57.8614 37.8181 57.8914 36.6271C57.9124 36.0271 57.9334 35.4271 57.9244 34.8271C57.9505 34.2235 57.8482 33.6212 57.6244 33.0601C57.7817 33.634 57.8275 34.2328 57.7594 34.8241C57.7204 35.4241 57.6544 36.0241 57.5914 36.6061C57.4258 37.8045 57.3745 39.0159 57.4384 40.2241C57.457 40.8807 57.6711 41.5168 58.0534 42.0511C58.2904 42.3204 58.6012 42.5142 58.9472 42.6086C59.2933 42.703 59.6595 42.6938 60.0004 42.5821C60.6295 42.3609 61.178 41.9565 61.5754 41.4211C61.9659 40.9255 62.2916 40.3821 62.5444 39.8041L61.8874 39.6391C61.7863 40.5086 61.9135 41.3896 62.2564 42.1951C62.4608 42.6358 62.8118 42.992 63.2494 43.2031C63.6846 43.3953 64.1676 43.4518 64.6354 43.3651C65.5864 43.2061 66.2794 42.4981 66.7174 41.7871C67.1531 41.0652 67.4673 40.2767 67.6474 39.4531L67.0474 39.4171C67.1764 40.2781 67.8694 42.0151 69.5764 42.2101C71.8294 42.1231 72.3934 37.8571 72.4414 37.0681Z" fill="#263238"/>
<path d="M69.2489 50.472C69.2489 50.472 78.1949 44.115 79.0169 40.5C79.8389 36.885 74.0129 31.059 71.5499 29.274C68.1509 26.811 66.7289 29.496 67.4519 31.647C68.2889 34.14 70.7279 37.302 70.8929 37.527C70.8929 37.527 64.5359 38.523 62.7209 42.843C60.9059 47.163 69.2489 50.472 69.2489 50.472Z" fill="#AD6359"/>
<path d="M75.8583 33.384C74.8337 32.0704 73.692 30.8524 72.4473 29.745C71.8271 29.1579 71.1185 28.672 70.3473 28.305C68.9913 27.684 67.3473 28.161 67.0473 29.754C66.5913 32.154 69.1053 35.979 70.6923 37.704L70.8693 37.254C67.7103 37.623 64.6863 39.387 63.0693 42.144C64.4706 40.2738 66.4382 38.906 68.6793 38.244C69.5799 37.9673 70.5107 37.8011 71.4513 37.749L71.0883 37.344C69.6993 35.751 67.2573 32.022 67.6173 29.877C67.8123 28.608 69.1173 28.311 70.1793 28.755C70.9163 29.0837 71.6031 29.515 72.2193 30.036C73.5056 31.0739 74.7223 32.1953 75.8613 33.393L75.8583 33.384Z" fill="#263238"/>
<path d="M69.9452 90.3961L77.0252 76.3711C77.0252 76.3711 86.7302 81.3001 94.1042 86.4541C101.478 91.6081 97.4672 93.9751 89.7002 93.5251C81.9332 93.0751 69.9452 90.3961 69.9452 90.3961Z" fill="#407BFF"/>
<path d="M79.0347 78.3748C77.2583 82.3856 75.2757 86.3018 73.0947 90.1078C73.0617 90.1648 72.9687 90.1078 72.9957 90.0538C74.7667 86.0406 76.7454 82.1223 78.9237 78.3148C78.9567 78.2518 79.0617 78.2998 79.0347 78.3748Z" fill="#263238"/>
<path opacity="0.1" d="M83.035 92.8051C85.348 93.1381 87.661 93.4051 89.689 93.5251C97.465 93.9751 101.476 91.6141 94.105 86.4541C93.385 85.9501 92.644 85.4491 91.891 84.9541L83.035 92.8051Z" fill="black"/>
<path d="M124.828 134.355H76.6208C75.9698 133.869 81.9758 98.7181 89.6138 86.5831C91.0448 84.3121 97.8938 80.8441 103.252 84.9541C119.431 97.3591 125.434 133.578 124.828 134.355Z" fill="#407BFF"/>
<path opacity="0.1" d="M90.5859 85.5211H103.966C103.729 85.3291 103.492 85.1371 103.252 84.9541H91.3449C91.0815 85.1288 90.8281 85.3181 90.5859 85.5211ZM87.7389 90.0661H108.415C108.568 90.2521 108.715 90.4411 108.868 90.6301H87.4779L87.7389 90.0661ZM85.6389 95.1661H112.009C112.126 95.3521 112.24 95.5411 112.354 95.7331H85.4169C85.4859 95.5501 85.5579 95.3611 85.6269 95.1751L85.6389 95.1661ZM83.9019 100.266H114.835C114.931 100.455 115.021 100.641 115.114 100.83H83.7009C83.7729 100.662 83.8299 100.473 83.8899 100.287L83.9019 100.266ZM82.4019 105.366H117.166C117.247 105.555 117.325 105.744 117.403 105.933H82.2279C82.2789 105.774 82.3329 105.6 82.3839 105.396L82.4019 105.366ZM81.0609 110.466H119.161C119.23 110.655 119.296 110.841 119.362 111.03H80.9019C80.9469 110.883 81.0009 110.7 81.0429 110.508L81.0609 110.466ZM79.8609 115.566H120.838C120.898 115.755 120.955 115.944 121.012 116.133H79.7019C79.7439 115.998 79.7859 115.8 79.8309 115.617L79.8609 115.566ZM78.7629 120.666H122.293C122.344 120.855 122.392 121.044 122.44 121.23H78.6009C78.6549 121.107 78.6909 120.918 78.7329 120.729L78.7629 120.666ZM77.7759 125.766H123.523C123.568 125.958 123.607 126.147 123.646 126.333H77.6439C77.6769 126.219 77.7009 126.03 77.7459 125.838L77.7759 125.766ZM76.9299 130.866H124.501C124.531 131.061 124.561 131.25 124.588 131.43H76.8219C76.8459 131.334 76.8729 131.145 76.8999 130.95L76.9299 130.866Z" fill="black"/>
<path d="M105.565 87.1138C116.914 101.898 130.744 128.934 127.699 133.893C123.838 140.178 100.3 137.367 94.8734 135.708C92.5604 135 97.3994 114.81 99.8894 115.515C102.058 116.13 106.546 116.949 106.642 116.649C106.738 116.349 102.886 106.335 99.8354 92.0758C97.7564 82.3588 103.159 83.9788 105.565 87.1138Z" fill="#AD6359"/>
<path d="M116.869 123.78C115.516 121.761 111.271 117.963 106.729 116.733C106.627 116.706 106.549 116.769 106.639 116.814C110.311 118.725 113.736 121.076 116.839 123.816C116.854 123.834 116.884 123.804 116.869 123.78Z" fill="#263238"/>
<path d="M103.147 116.586C103.147 116.586 95.9862 112.215 91.5132 111.084C85.5132 109.584 79.7292 110.727 77.3322 111.36C72.3252 112.677 61.1322 119.328 62.4822 122.889C63.7062 126.111 74.8062 118.734 74.8062 118.734C74.8062 118.734 62.2482 124.386 64.4352 127.995C66.6222 131.604 79.0212 122.295 79.0212 122.295C79.0212 122.295 66.2502 128.391 69.0942 131.754C71.2422 134.298 82.9482 126.51 82.9482 126.51C82.9482 126.51 72.0012 131.841 74.1012 134.55C76.4172 137.55 87.6732 131.031 87.6732 131.031C94.1652 137.031 99.7062 137.217 103.666 136.887C104.626 136.8 103.147 116.586 103.147 116.586Z" fill="#AD6359"/>
<path d="M79.0241 116.499C77.5241 117.099 76.0031 117.717 74.5631 118.461C73.1231 119.205 71.7101 119.994 70.3451 120.861C67.0001 123 65.2451 124.866 65.3591 124.761C68.2271 122.319 73.3421 119.583 74.7821 118.842C76.2221 118.101 77.6171 117.288 79.0541 116.547C79.0901 116.535 79.0601 116.484 79.0241 116.499Z" fill="#263238"/>
<path d="M81.7981 121.65C79.9171 122.511 78.0181 123.3 76.1761 124.245C74.3341 125.19 72.6842 126.24 70.9172 127.305C70.7822 127.389 70.8722 127.434 71.0101 127.356C72.8102 126.363 74.5621 125.583 76.3801 124.611C78.1981 123.639 79.9801 122.595 81.8221 121.692C81.8491 121.68 81.8251 121.638 81.7981 121.65Z" fill="#263238"/>
<path d="M84.9732 125.643C82.0332 126.813 79.3092 128.526 76.6812 130.269C76.5492 130.356 76.6812 130.404 76.8102 130.323C79.5372 128.733 81.6672 127.464 85.0152 125.745C85.0662 125.718 85.0362 125.619 84.9732 125.643Z" fill="#263238"/>
<path d="M118.914 105.3L103.884 109.881C103.884 109.881 100.731 99.4619 99.3631 90.5699C97.9951 81.6779 102.474 82.9409 107.523 88.8689C112.572 94.7969 118.914 105.3 118.914 105.3Z" fill="#407BFF"/>
<path d="M100.119 98.2322C100.118 98.2248 100.119 98.2171 100.123 98.2104C100.127 98.2038 100.132 98.1986 100.139 98.1958C100.146 98.193 100.154 98.1927 100.162 98.195C100.169 98.1972 100.175 98.2019 100.179 98.2082C100.401 98.7002 100.621 99.1942 100.839 99.6902C100.641 98.7032 100.461 97.7102 100.305 96.7112C100.305 96.6782 100.353 96.6632 100.362 96.6962C100.962 98.8622 101.562 101.028 102.111 103.206C102.66 105.384 103.341 107.535 103.884 109.719C104.31 109.662 104.541 109.608 104.859 109.578C104.934 109.578 104.976 109.653 104.904 109.683C104.496 109.857 103.704 110.112 103.671 110.058C102.882 107.958 102.285 105.609 101.706 103.44C101.42 102.37 101.166 101.296 100.944 100.218C100.632 99.5722 100.357 98.9092 100.119 98.2322Z" fill="#263238"/>
<path d="M103.944 107.046C108.07 105.557 112.27 104.282 116.526 103.224C116.589 103.209 116.616 103.314 116.556 103.335C112.432 104.829 108.234 106.108 103.977 107.166C103.908 107.184 103.878 107.07 103.944 107.046Z" fill="#263238"/>
<path d="M99.1514 86.0432C98.9114 86.8562 94.6754 91.9862 90.9164 91.5962C89.6954 91.4672 90.1004 84.7562 90.1004 84.7562L90.0164 84.2552L88.8584 77.2262L98.5244 71.8262C98.5244 71.8262 99.2474 85.6982 99.1514 86.0432Z" fill="#AD6359"/>
<path d="M88.858 77.2291L90.019 84.2521L90.1 84.7591C90.1 84.7591 90.028 85.9741 90.037 87.3781C95.215 86.9041 97.783 83.1781 98.959 80.5771C98.773 76.5721 98.524 71.8291 98.524 71.8291L88.858 77.2291Z" fill="#263238"/>
<path d="M79.7645 63.972C76.1225 78.795 84.5884 82.65 87.7864 83.433C90.6874 84.144 100.659 86.193 105.816 71.826C110.973 57.459 105.231 51.078 98.6794 49.101C92.1274 47.124 83.4005 49.149 79.7645 63.972Z" fill="#AD6359"/>
<path d="M85.2326 66.1591C83.5736 65.8291 83.0336 69.1741 84.5726 69.4801C86.1116 69.7861 86.6246 66.4351 85.2326 66.1591Z" fill="#263238"/>
<path d="M93.7557 67.8359C95.4297 68.1029 94.7727 71.4359 93.2217 71.1809C91.6707 70.9259 92.3547 67.6139 93.7557 67.8359Z" fill="#263238"/>
<path d="M84.5022 63.8668C84.8622 63.8848 85.1982 63.8428 85.5552 63.8278C85.9572 63.8068 86.2812 63.8278 86.6202 63.5818C86.7089 63.5008 86.7682 63.3926 86.7888 63.2743C86.8094 63.156 86.7902 63.0341 86.7342 62.9278C86.4672 62.4898 85.9662 62.3908 85.4802 62.3938C84.9885 62.3801 84.5093 62.5502 84.1362 62.8708C84.0549 62.9488 83.9981 63.0487 83.9727 63.1584C83.9473 63.2681 83.9545 63.3829 83.9934 63.4886C84.0322 63.5943 84.101 63.6864 84.1914 63.7536C84.2818 63.8207 84.3898 63.8601 84.5022 63.8668Z" fill="#263238"/>
<path d="M95.4973 66.2161C95.1643 66.1043 94.8378 65.9741 94.5193 65.8261C94.1443 65.6731 93.8323 65.5891 93.5953 65.2261C93.5398 65.1197 93.5209 64.998 93.5415 64.8798C93.5621 64.7615 93.621 64.6534 93.7093 64.5721C94.1083 64.2481 94.6093 64.3231 95.0713 64.4881C95.5385 64.6402 95.9321 64.9611 96.1753 65.3881C96.2295 65.489 96.2525 65.6038 96.2414 65.7178C96.2304 65.8319 96.1857 65.9401 96.1131 66.0288C96.0405 66.1174 95.9432 66.1825 95.8336 66.2159C95.724 66.2492 95.6069 66.2493 95.4973 66.2161Z" fill="#263238"/>
<path d="M90.648 76.7549C90.375 76.9709 90.09 77.2769 89.712 77.2679C89.3291 77.2168 88.9612 77.086 88.632 76.8839C88.599 76.8839 88.563 76.8989 88.581 76.9319C88.7053 77.1518 88.8872 77.3336 89.1071 77.4578C89.327 77.5821 89.5766 77.644 89.829 77.6369C90.306 77.6069 90.582 77.2289 90.729 76.8149C90.765 76.7549 90.687 76.7249 90.648 76.7549Z" fill="#263238"/>
<path d="M87.0013 72.3299C87.0013 72.3299 86.5333 73.8299 86.4013 74.5469C86.4013 74.6129 86.5603 74.6759 86.8033 74.7299C86.8033 74.7299 86.8033 74.7299 86.8303 74.7299C87.4308 74.9478 88.0799 74.9959 88.706 74.8689C89.3321 74.7419 89.9111 74.4446 90.3793 74.0099C90.4423 73.9499 90.3643 73.8599 90.2893 73.8929C89.2213 74.4299 88.1383 74.4329 87.0043 74.2619C86.9863 74.0519 87.9043 71.6999 87.7813 71.6999C87.2863 71.6999 86.4043 71.7719 86.0773 71.7959C86.3773 70.8179 87.3043 68.0789 87.8173 66.2969C87.8473 66.1859 87.6793 66.1199 87.6343 66.2189C86.7006 68.1864 85.8988 70.2139 85.2343 72.2879C85.1803 72.4559 86.6803 72.4019 87.0013 72.3299Z" fill="#263238"/>
<path d="M106.423 72.735C102.064 72.618 100.306 67.236 101.725 63.18C101.725 63.18 90.0644 63.585 90.4124 54.288C89.4808 55.4631 88.2735 56.3901 86.8976 56.9867C85.5218 57.5833 84.02 57.831 82.5254 57.708L80.6684 60.849C79.5194 60.393 78.8294 57.054 81.9734 54.705C81.9734 54.705 82.6214 50.115 86.2874 47.682C89.9534 45.249 93.1514 47.382 93.1514 47.382C93.1514 47.382 96.0704 45.39 100.258 46.347C104.446 47.304 105.817 51.342 105.817 51.342C105.817 51.342 111.415 52.986 111.991 57.132C112.567 61.278 110.209 63.792 110.209 63.792C110.209 63.792 111.484 65.523 110.419 68.892C109.735 71.1 107.731 72.771 106.423 72.735Z" fill="#263238"/>
<path d="M90.7476 53.4932C90.5868 54.2345 90.5043 54.9906 90.5016 55.7492C90.479 56.4957 90.5475 57.2422 90.7056 57.9722C91.0078 59.417 91.8446 60.6942 93.0486 61.5482C94.2156 62.4662 95.7486 62.7482 97.1886 63.0272C97.9386 63.0782 98.6886 63.1832 99.4446 63.1892C100.201 63.1952 100.96 63.1682 101.725 63.1892C100.972 63.2972 100.21 63.3692 99.4476 63.4622C98.6856 63.5072 97.9146 63.4622 97.1436 63.4622C95.6286 63.2522 94.0356 62.9672 92.7396 62.0102C91.4388 61.0624 90.5628 59.6411 90.3006 58.0532C90.0645 56.5197 90.2183 54.9516 90.7476 53.4932Z" fill="#263238"/>
<path d="M105.817 51.354C107.279 51.5087 108.694 51.9632 109.972 52.689C111.306 53.4092 112.342 54.5782 112.897 55.989C113.126 56.7055 113.238 57.454 113.23 58.206C113.25 58.9552 113.141 59.7022 112.906 60.414C112.459 61.8387 111.496 63.0453 110.206 63.798C111.332 62.9131 112.137 61.6848 112.501 60.3C112.859 58.9403 112.819 57.5062 112.384 56.169C112.153 55.5165 111.802 54.913 111.349 54.39C110.874 53.8728 110.336 53.4173 109.747 53.034C108.534 52.2705 107.207 51.7035 105.817 51.354Z" fill="#263238"/>
<path d="M93.1504 47.4001C92.1038 46.8975 90.9837 46.5653 89.8324 46.4161C88.709 46.2648 87.5655 46.4043 86.5114 46.8211C85.4761 47.2806 84.5733 47.9935 83.8864 48.8941C83.1809 49.8162 82.6148 50.8372 82.2064 51.9241C82.4256 50.7515 82.8852 49.6371 83.5564 48.6511C84.2113 47.6113 85.1717 46.7996 86.306 46.327C87.4403 45.8543 88.693 45.744 89.8924 46.0111C91.066 46.2331 92.1776 46.707 93.1504 47.4001Z" fill="#263238"/>
<path d="M84.3007 58.2571C85.6023 57.9509 86.8442 57.4308 87.9757 56.7181C88.5253 56.3612 89.0247 55.9324 89.4607 55.4431C89.9007 54.9356 90.2822 54.3801 90.5977 53.7871C90.4644 54.4743 90.1873 55.1255 89.7847 55.6981C89.3851 56.2794 88.8755 56.7768 88.2847 57.1621C87.6961 57.5476 87.05 57.8372 86.3707 58.0201C85.6988 58.2147 84.9991 58.2949 84.3007 58.2571Z" fill="#263238"/>
<path d="M102.664 72.5012C102.664 72.5012 106.69 68.3012 108.643 69.8012C110.596 71.3012 107.059 77.7572 104.401 78.3002C104.065 78.393 103.715 78.4169 103.369 78.3706C103.024 78.3243 102.692 78.2087 102.393 78.0308C102.094 77.8528 101.833 77.6162 101.628 77.3351C101.422 77.0541 101.276 76.7344 101.197 76.3952L102.664 72.5012Z" fill="#AD6359"/>
<path d="M107.584 71.6311C107.591 71.6334 107.598 71.6379 107.602 71.6441C107.607 71.6503 107.609 71.6579 107.609 71.6656C107.609 71.6734 107.607 71.6809 107.602 71.6871C107.598 71.6934 107.591 71.6979 107.584 71.7001C105.712 72.1381 104.533 73.6261 103.621 75.2161C104.245 74.6461 105.013 74.4001 105.79 75.1591C105.829 75.1981 105.79 75.2641 105.727 75.2461C105.434 75.1022 105.105 75.0518 104.783 75.1017C104.461 75.1516 104.162 75.2994 103.927 75.5251C103.535 75.9088 103.185 76.3332 102.883 76.7911C102.775 76.9351 102.505 76.7911 102.583 76.6351C102.583 76.6351 102.598 76.6111 102.604 76.5961C102.901 74.3491 105.142 71.4811 107.584 71.6311Z" fill="#263238"/>
</svg>
