<?xml version="1.0" standalone="no"?>
<!DOCTYPE svg PUBLIC "-//W3C//DTD SVG 20010904//EN"
 "http://www.w3.org/TR/2001/REC-SVG-20010904/DTD/svg10.dtd">
<svg version="1.0" xmlns="http://www.w3.org/2000/svg"
 width="512.000000pt" height="512.000000pt" viewBox="0 0 512.000000 512.000000"
 preserveAspectRatio="xMidYMid meet">

<g transform="translate(0.000000,512.000000) scale(0.100000,-0.100000)"
fill="#000000" stroke="none">
<path d="M1607 5029 c-94 -23 -182 -97 -218 -184 -20 -49 -25 -53 -73 -69
-111 -34 -203 -121 -248 -233 -22 -56 -23 -68 -25 -423 l-3 -365 20 51 c41
104 136 177 248 191 l52 6 0 94 c0 116 14 136 103 146 97 12 159 41 215 102
60 66 72 68 175 20 147 -68 349 -109 600 -121 184 -9 187 -12 187 -147 l0 -94
52 -6 c112 -14 207 -87 248 -191 l20 -51 -3 380 c-3 364 -4 383 -26 450 -66
202 -224 360 -426 426 -68 22 -84 23 -465 25 -217 2 -412 -1 -433 -7z"/>
<path d="M4275 2390 c-169 -231 -310 -420 -312 -420 -7 0 -112 88 -380 316
l-224 192 -319 120 -320 120 0 -1319 0 -1319 289 0 290 0 28 24 28 24 5 615 5
616 80 -34 c473 -199 585 -245 598 -245 9 0 27 10 41 23 14 12 212 341 440
731 l415 709 -147 110 c-81 61 -161 121 -178 134 l-31 23 -308 -420z"/>
<path d="M1098 2650 c-97 -37 -198 -80 -225 -95 -67 -40 -138 -116 -174 -187
-57 -112 -59 -138 -59 -760 l0 -568 120 0 120 0 0 -160 0 -160 24 0 c63 0 136
-86 136 -160 0 -74 -73 -160 -136 -160 l-24 0 0 -160 0 -160 200 0 200 0 0
1320 c0 726 -1 1320 -2 1319 -2 -1 -83 -31 -180 -69z"/>
<path d="M1764 1481 l-80 -760 151 -112 c82 -62 157 -113 165 -113 8 0 83 51
165 113 l151 112 -80 760 -80 759 -156 0 -156 0 -80 -759z"/>
</g>
</svg>
