<svg width="1172" height="443" viewBox="0 0 1172 443" fill="none" xmlns="http://www.w3.org/2000/svg">
<rect x="1171.22" y="441.403" width="1170" height="439" rx="40" transform="rotate(179.942 1171.22 441.403)" fill="#F2F8E2"/>
<path d="M1171.18 400.403C1171.21 422.495 1153.32 440.422 1131.22 440.444L557.224 441.029C535.133 441.052 517.206 423.161 517.183 401.07L516.816 41.0702C516.794 18.9788 534.684 1.05197 556.775 1.02945L1130.78 0.444331C1152.87 0.421812 1170.79 18.3121 1170.82 40.4035L1171.18 400.403Z" fill="url(#paint0_linear_1332_2124)"/>
<path d="M790.577 327.637L798.048 328.83L799.726 335.732L801.389 328.827L808.858 327.604L801.418 326.024L799.709 319.509L798.014 326.027L790.577 327.637Z" fill="#F2F2F2"/>
<path d="M748.384 108.813L755.856 110.02L757.533 116.908L759.181 110.017L766.65 108.794L759.21 107.214L757.517 100.699L755.821 107.217L748.384 108.813Z" fill="#F2F2F2"/>
<path d="M1088.2 404.058L1095.67 405.252L1097.34 412.154L1098.99 405.249L1106.46 404.026L1099.04 402.446L1097.33 395.931L1095.63 402.449L1088.2 404.058Z" fill="#F2F2F2"/>
<path d="M1125.57 160.467L1133.02 161.674L1134.7 168.576L1136.36 161.671L1143.83 160.448L1136.39 158.868L1134.68 152.353L1132.99 158.871L1125.57 160.467Z" fill="#F2F2F2"/>
<path d="M893.039 10.8436L900.51 12.051L902.187 18.9389L903.851 12.0476L911.32 10.8249L903.88 9.24473L902.171 2.72961L900.476 9.2482L893.039 10.8436Z" fill="#F2F2F2"/>
<path d="M718.694 170.035L722.855 170.707L723.804 174.572L724.73 170.706L728.906 170.025L724.744 169.145L723.795 165.501L722.837 169.147L718.694 170.035Z" fill="#F2F2F2"/>
<path d="M772.628 206.873L776.805 207.545L777.739 211.396L778.665 207.543L782.84 206.862L778.679 205.969L777.73 202.325L776.772 205.971L772.628 206.873Z" fill="#F2F2F2"/>
<path d="M888.295 382.778L892.472 383.451L893.406 387.302L894.332 383.449L898.507 382.768L894.346 381.875L893.397 378.231L892.455 381.877L888.295 382.778Z" fill="#F2F2F2"/>
<path d="M1064.41 54.6295L1068.58 55.3018L1069.52 59.153L1070.44 55.2999L1074.62 54.6053L1070.46 53.7259L1069.51 50.0819L1068.57 53.7278L1064.41 54.6295Z" fill="#F2F2F2"/>
<path d="M1046.53 281.206L1050.71 281.878L1051.64 285.729L1052.58 281.876L1056.76 281.195L1052.6 280.302L1051.63 276.658L1050.69 280.304L1046.53 281.206Z" fill="#F2F2F2"/>
<path d="M853.741 296.963L857.918 297.635L858.852 301.486L859.778 297.633L863.954 296.952L859.792 296.073L858.843 292.429L857.885 296.075L853.741 296.963Z" fill="#F2F2F2"/>
<path d="M1160.77 201.934L1164.94 202.606L1165.88 206.471L1166.8 202.604L1170.98 201.924L1166.82 201.044L1165.87 197.4L1164.91 201.046L1160.77 201.934Z" fill="#F2F2F2"/>
<path d="M852.896 54.8459L857.073 55.5181L858.007 59.3693L858.932 55.5162L863.108 54.8216L858.947 53.9422L857.997 50.2982L857.055 53.9441L852.896 54.8459Z" fill="#F2F2F2"/>
<path d="M890.404 319.32C890.726 319.319 891.034 319.431 891.262 319.63C891.49 319.829 891.618 320.1 891.618 320.382C891.619 320.664 891.491 320.934 891.264 321.134C891.036 321.333 890.728 321.446 890.406 321.446C890.084 321.446 889.775 321.335 889.547 321.136C889.32 320.936 889.192 320.666 889.191 320.384C889.191 320.102 889.319 319.832 889.546 319.632C889.773 319.432 890.082 319.32 890.404 319.32Z" fill="#F2F2F2"/>
<path d="M1156.69 126.567C1156.98 126.596 1157.26 126.72 1157.46 126.914C1157.65 127.109 1157.76 127.361 1157.76 127.622C1157.76 127.883 1157.65 128.135 1157.46 128.33C1157.26 128.525 1156.99 128.649 1156.69 128.679C1156.39 128.65 1156.12 128.526 1155.92 128.331C1155.72 128.137 1155.61 127.885 1155.61 127.624C1155.61 127.363 1155.72 127.111 1155.92 126.916C1156.12 126.721 1156.39 126.597 1156.69 126.567Z" fill="#F2F2F2"/>
<path d="M966.937 291.242C967.259 291.241 967.568 291.353 967.795 291.552C968.023 291.751 968.151 292.022 968.152 292.304C968.152 292.586 968.024 292.856 967.797 293.056C967.569 293.255 967.261 293.368 966.939 293.368C966.617 293.368 966.308 293.257 966.081 293.057C965.853 292.858 965.725 292.588 965.725 292.306C965.724 292.024 965.852 291.754 966.079 291.554C966.307 291.354 966.615 291.242 966.937 291.242Z" fill="#F2F2F2"/>
<path d="M725.043 244.835C725.339 244.864 725.612 244.988 725.811 245.182C726.009 245.377 726.119 245.629 726.12 245.89C726.12 246.151 726.01 246.403 725.812 246.598C725.614 246.793 725.341 246.917 725.045 246.947C724.749 246.918 724.476 246.794 724.277 246.599C724.079 246.405 723.969 246.153 723.969 245.892C723.968 245.631 724.078 245.379 724.276 245.184C724.474 244.989 724.747 244.865 725.043 244.835Z" fill="#F2F2F2"/>
<path d="M1108.25 240.012C1108.57 240.012 1108.88 240.124 1109.11 240.323C1109.33 240.522 1109.46 240.792 1109.46 241.074C1109.46 241.356 1109.34 241.627 1109.11 241.826C1108.88 242.026 1108.57 242.138 1108.25 242.138C1107.93 242.139 1107.62 242.027 1107.39 241.828C1107.16 241.629 1107.04 241.358 1107.04 241.077C1107.04 240.795 1107.16 240.524 1107.39 240.324C1107.62 240.125 1107.93 240.012 1108.25 240.012Z" fill="#F2F2F2"/>
<path d="M826.882 106.621C827.178 106.65 827.451 106.774 827.65 106.969C827.848 107.163 827.958 107.415 827.958 107.676C827.959 107.937 827.849 108.189 827.651 108.384C827.453 108.579 827.18 108.703 826.884 108.733C826.588 108.704 826.315 108.58 826.116 108.386C825.918 108.191 825.808 107.939 825.808 107.678C825.807 107.417 825.917 107.165 826.115 106.97C826.313 106.775 826.586 106.651 826.882 106.621Z" fill="#F2F2F2"/>
<path d="M1057.47 180.888C1057.68 180.912 1057.87 181.002 1058.01 181.14C1058.15 181.278 1058.22 181.456 1058.22 181.64C1058.22 181.823 1058.15 182.001 1058.01 182.139C1057.87 182.278 1057.68 182.368 1057.47 182.393C1057.27 182.368 1057.08 182.279 1056.94 182.14C1056.8 182.002 1056.72 181.825 1056.72 181.641C1056.72 181.457 1056.8 181.28 1056.94 181.141C1057.08 181.003 1057.27 180.913 1057.47 180.888Z" fill="#F2F2F2"/>
<path d="M941.727 389.696C941.935 389.721 942.126 389.811 942.264 389.949C942.402 390.087 942.478 390.264 942.478 390.448C942.478 390.632 942.402 390.809 942.265 390.948C942.127 391.086 941.936 391.176 941.729 391.201C941.521 391.177 941.33 391.087 941.192 390.949C941.054 390.811 940.978 390.633 940.978 390.45C940.978 390.266 941.053 390.088 941.191 389.95C941.329 389.811 941.519 389.721 941.727 389.696Z" fill="#F2F2F2"/>
<path d="M813.599 295.54C813.825 295.54 814.042 295.618 814.201 295.758C814.361 295.898 814.451 296.087 814.451 296.285C814.451 296.483 814.362 296.672 814.203 296.812C814.043 296.952 813.827 297.031 813.601 297.031C813.375 297.032 813.159 296.953 812.999 296.814C812.839 296.674 812.749 296.484 812.749 296.287C812.749 296.089 812.838 295.899 812.998 295.759C813.157 295.619 813.374 295.54 813.599 295.54Z" fill="#F2F2F2"/>
<path d="M814.339 233.118C814.547 233.143 814.738 233.232 814.876 233.371C815.014 233.509 815.09 233.686 815.09 233.87C815.091 234.054 815.015 234.231 814.877 234.37C814.739 234.508 814.549 234.598 814.341 234.623C814.133 234.599 813.943 234.509 813.805 234.371C813.666 234.233 813.59 234.055 813.59 233.872C813.59 233.688 813.666 233.51 813.803 233.372C813.941 233.233 814.132 233.143 814.339 233.118Z" fill="#F2F2F2"/>
<path d="M1049.27 156.485C1049.88 156.485 1050.47 156.698 1050.91 157.078C1051.34 157.458 1051.59 157.974 1051.59 158.513C1051.59 159.051 1051.34 159.567 1050.91 159.948C1050.48 160.329 1049.89 160.544 1049.27 160.545C1048.66 160.545 1048.07 160.332 1047.63 159.952C1047.2 159.572 1046.95 159.056 1046.95 158.517C1046.95 157.979 1047.2 157.462 1047.63 157.081C1048.07 156.7 1048.65 156.486 1049.27 156.485Z" fill="#F2F2F2"/>
<path d="M1051.73 374.19C1052.34 374.189 1052.93 374.402 1053.37 374.783C1053.8 375.163 1054.05 375.679 1054.05 376.217C1054.05 376.755 1053.8 377.272 1053.37 377.653C1052.94 378.034 1052.35 378.248 1051.73 378.249C1051.12 378.25 1050.53 378.036 1050.09 377.656C1049.66 377.276 1049.41 376.76 1049.41 376.222C1049.41 375.684 1049.66 375.167 1050.09 374.786C1050.53 374.405 1051.11 374.191 1051.73 374.19Z" fill="#F2F2F2"/>
<defs>
<linearGradient id="paint0_linear_1332_2124" x1="1243.89" y1="220.761" x2="505.036" y2="220.953" gradientUnits="userSpaceOnUse">
<stop stop-color="#0072DC" stop-opacity="0.94"/>
<stop offset="0.025" stop-color="#0072DC" stop-opacity="0.47"/>
<stop offset="1" stop-color="#0072DC" stop-opacity="0"/>
</linearGradient>
</defs>
</svg>
