<svg width="520" height="521" viewBox="0 0 520 521" fill="none" xmlns="http://www.w3.org/2000/svg">
<rect width="520" height="521" rx="40" fill="url(#paint0_linear_1331_2107)"/>
<path d="M394.665 116.722L387.42 115.227L385.8 106.634L384.18 115.227L376.935 116.739L384.149 118.715L385.8 126.827L387.451 118.715L394.665 116.722Z" fill="#F2F8E2"/>
<path d="M435.367 389.15L428.122 387.638L426.502 379.062L424.897 387.638L417.652 389.15L424.867 391.126L426.502 399.238L428.153 391.126L435.367 389.15Z" fill="#F2F8E2"/>
<path d="M106.094 21.2204L98.8489 19.7252L97.2288 11.1323L95.6239 19.7252L88.379 21.2375L95.5781 23.2139L97.2288 31.3256L98.8795 23.2139L106.094 21.2204Z" fill="#F2F8E2"/>
<path d="M69.6094 324.378L62.3798 322.865L60.7597 314.272L59.1395 322.865L51.8947 324.378L59.1089 326.354L60.7597 334.466L62.4104 326.354L69.6094 324.378Z" fill="#F2F8E2"/>
<path d="M294.979 510.912L287.735 509.399L286.114 500.824L284.494 509.399L277.249 510.912L284.464 512.888L286.114 521L287.765 512.888L294.979 510.912Z" fill="#F2F8E2"/>
<path d="M464.225 312.983L460.19 312.141L459.272 307.329L458.371 312.141L454.32 312.983L458.355 314.083L459.272 318.62L460.205 314.083L464.225 312.983Z" fill="#F2F8E2"/>
<path d="M411.952 267.063L407.902 266.221L407 261.426L406.098 266.221L402.048 267.063L406.083 268.18L407 272.717L407.932 268.18L411.952 267.063Z" fill="#F2F8E2"/>
<path d="M299.946 47.9616L295.896 47.1195L294.994 42.3247L294.092 47.1195L290.042 47.9616L294.077 49.0787L294.994 53.6158L295.911 49.0787L299.946 47.9616Z" fill="#F2F8E2"/>
<path d="M128.821 456.192L124.771 455.35L123.869 450.555L122.967 455.35L118.917 456.209L122.952 457.309L123.869 461.846L124.786 457.309L128.821 456.192Z" fill="#F2F8E2"/>
<path d="M146.384 174.191L142.333 173.349L141.432 168.554L140.515 173.349L136.464 174.191L140.499 175.308L141.432 179.845L142.349 175.308L146.384 174.191Z" fill="#F2F8E2"/>
<path d="M333.374 154.822L329.324 153.98L328.422 149.186L327.52 153.98L323.47 154.822L327.505 155.922L328.422 160.459L329.354 155.922L333.374 154.822Z" fill="#F2F8E2"/>
<path d="M35.5098 272.717L31.4594 271.875L30.5576 267.062L29.6558 271.875L25.6054 272.717L29.6405 273.816L30.5576 278.354L31.4899 273.816L35.5098 272.717Z" fill="#F2F8E2"/>
<path d="M333.955 456.192L329.905 455.35L329.003 450.555L328.101 455.35L324.051 456.209L328.086 457.309L329.003 461.846L329.92 457.309L333.955 456.192Z" fill="#F2F8E2"/>
<path d="M297.837 126.947C297.525 126.947 297.225 126.808 297.005 126.56C296.784 126.312 296.66 125.975 296.66 125.624C296.66 125.273 296.784 124.937 297.005 124.688C297.225 124.44 297.525 124.301 297.837 124.301C298.149 124.301 298.448 124.44 298.669 124.688C298.89 124.937 299.014 125.273 299.014 125.624C299.014 125.975 298.89 126.312 298.669 126.56C298.448 126.808 298.149 126.947 297.837 126.947Z" fill="#F2F8E2"/>
<path d="M39.3925 366.534C39.1055 366.497 38.8405 366.343 38.6482 366.1C38.4558 365.858 38.3495 365.544 38.3495 365.219C38.3495 364.895 38.4558 364.581 38.6482 364.339C38.8405 364.096 39.1055 363.942 39.3925 363.905C39.6796 363.942 39.9445 364.096 40.1369 364.339C40.3292 364.581 40.4355 364.895 40.4355 365.219C40.4355 365.544 40.3292 365.858 40.1369 366.1C39.9445 366.343 39.6796 366.497 39.3925 366.534Z" fill="#F2F8E2"/>
<path d="M223.587 161.8C223.275 161.8 222.975 161.661 222.755 161.412C222.534 161.164 222.41 160.828 222.41 160.477C222.41 160.126 222.534 159.789 222.755 159.541C222.975 159.293 223.275 159.153 223.587 159.153C223.899 159.153 224.198 159.293 224.419 159.541C224.64 159.789 224.764 160.126 224.764 160.477C224.764 160.828 224.64 161.164 224.419 161.412C224.198 161.661 223.899 161.8 223.587 161.8Z" fill="#F2F8E2"/>
<path d="M458.142 219.871C457.855 219.834 457.59 219.679 457.397 219.437C457.205 219.194 457.099 218.881 457.099 218.556C457.099 218.231 457.205 217.918 457.397 217.675C457.59 217.433 457.855 217.278 458.142 217.241C458.429 217.278 458.694 217.433 458.886 217.675C459.078 217.918 459.185 218.231 459.185 218.556C459.185 218.881 459.078 219.194 458.886 219.437C458.694 219.679 458.429 219.834 458.142 219.871Z" fill="#F2F8E2"/>
<path d="M86.4842 225.387C86.1721 225.387 85.8728 225.248 85.6521 225C85.4313 224.752 85.3074 224.415 85.3074 224.064C85.3074 223.713 85.4313 223.376 85.6521 223.128C85.8728 222.88 86.1721 222.741 86.4842 222.741C86.7964 222.741 87.0957 222.88 87.3164 223.128C87.5371 223.376 87.6611 223.713 87.6611 224.064C87.6611 224.415 87.5371 224.752 87.3164 225C87.0957 225.248 86.7964 225.387 86.4842 225.387Z" fill="#F2F8E2"/>
<path d="M359.235 391.78C358.948 391.743 358.683 391.588 358.491 391.346C358.299 391.104 358.192 390.79 358.192 390.465C358.192 390.14 358.299 389.827 358.491 389.584C358.683 389.342 358.948 389.187 359.235 389.15C359.522 389.187 359.787 389.342 359.98 389.584C360.172 389.827 360.278 390.14 360.278 390.465C360.278 390.79 360.172 391.104 359.98 391.346C359.787 391.588 359.522 391.743 359.235 391.78Z" fill="#F2F8E2"/>
<path d="M135.67 299.045C135.468 299.014 135.284 298.902 135.15 298.73C135.016 298.558 134.942 298.337 134.942 298.108C134.942 297.88 135.016 297.659 135.15 297.487C135.284 297.314 135.468 297.203 135.67 297.172C135.871 297.203 136.056 297.314 136.19 297.487C136.324 297.659 136.397 297.88 136.397 298.108C136.397 298.337 136.324 298.558 136.19 298.73C136.056 298.902 135.871 299.014 135.67 299.045Z" fill="#F2F8E2"/>
<path d="M248.133 39.2829C247.931 39.2521 247.747 39.1403 247.613 38.9681C247.479 38.7959 247.405 38.5749 247.405 38.3463C247.405 38.1176 247.479 37.8967 247.613 37.7245C247.747 37.5523 247.931 37.4404 248.133 37.4097C248.334 37.4404 248.519 37.5523 248.653 37.7245C248.787 37.8967 248.86 38.1176 248.86 38.3463C248.86 38.5749 248.787 38.7959 248.653 38.9681C248.519 39.1403 248.334 39.2521 248.133 39.2829Z" fill="#F2F8E2"/>
<path d="M372.305 156.644C372.086 156.644 371.876 156.546 371.721 156.372C371.566 156.198 371.479 155.962 371.479 155.716C371.479 155.47 371.566 155.234 371.721 155.06C371.876 154.886 372.086 154.788 372.305 154.788C372.523 154.788 372.733 154.886 372.888 155.06C373.043 155.234 373.13 155.47 373.13 155.716C373.13 155.962 373.043 156.198 372.888 156.372C372.733 156.546 372.523 156.644 372.305 156.644Z" fill="#F2F8E2"/>
<path d="M371.523 234.341C371.322 234.31 371.137 234.198 371.003 234.026C370.87 233.854 370.796 233.633 370.796 233.404C370.796 233.176 370.87 232.955 371.003 232.783C371.137 232.61 371.322 232.499 371.523 232.468C371.725 232.499 371.91 232.61 372.043 232.783C372.177 232.955 372.251 233.176 372.251 233.404C372.251 233.633 372.177 233.854 372.043 234.026C371.91 234.198 371.725 234.31 371.523 234.341Z" fill="#F2F8E2"/>
<path d="M143.602 329.43C143.006 329.43 142.434 329.164 142.013 328.69C141.592 328.216 141.355 327.574 141.355 326.904C141.355 326.234 141.592 325.591 142.013 325.117C142.434 324.644 143.006 324.377 143.602 324.377C144.198 324.377 144.769 324.644 145.191 325.117C145.612 325.591 145.849 326.234 145.849 326.904C145.849 327.574 145.612 328.216 145.191 328.69C144.769 329.164 144.198 329.43 143.602 329.43Z" fill="#F2F8E2"/>
<path d="M141.432 58.4447C140.836 58.4447 140.264 58.1785 139.843 57.7048C139.422 57.231 139.185 56.5884 139.185 55.9184C139.185 55.2484 139.422 54.6058 139.843 54.132C140.264 53.6583 140.836 53.3921 141.432 53.3921C142.028 53.3921 142.599 53.6583 143.021 54.132C143.442 54.6058 143.679 55.2484 143.679 55.9184C143.679 56.5884 143.442 57.231 143.021 57.7048C142.599 58.1785 142.028 58.4447 141.432 58.4447Z" fill="#F2F8E2"/>
<defs>
<linearGradient id="paint0_linear_1331_2107" x1="260" y1="-86" x2="263.054" y2="589.486" gradientUnits="userSpaceOnUse">
<stop stop-color="#F1C141"/>
<stop offset="0.366157" stop-color="#F2DB98"/>
<stop offset="1" stop-color="white"/>
</linearGradient>
</defs>
</svg>
