<svg width="564" height="587" viewBox="0 0 564 587" fill="none" xmlns="http://www.w3.org/2000/svg">
<g clip-path="url(#clip0_1332_2126)">
<path d="M0.337055 212.34C-0.351545 212.34 -0.414145 210.975 0.337055 210.875C3.57973 210.461 6.82242 207.557 10.0651 207.119C13.2724 206.908 16.4213 206.158 19.38 204.903C24.2002 202.486 27.205 197.641 32.2005 195.312C40.9645 191.231 49.9788 192.984 58.4924 196.564C63.5373 198.827 69.1107 199.646 74.5932 198.931C79.6012 198.305 84.4214 196.927 89.3793 196.226C93.7927 195.417 98.3328 195.631 102.65 196.852C107.108 198.292 110.926 201.084 115.17 203.112C120.679 205.779 126.138 205.328 132.072 205.504C136.354 205.629 145.306 208.333 145.306 211.213C145.306 213.153 8.82561 212.34 0.337055 212.34Z" fill="#EBEBEB"/>
<path d="M497.256 259.339C491.284 259.339 342.108 258.3 299.966 258.3C297.024 258.3 300.742 253.192 302.37 252.842C307.553 251.702 312.949 251.652 318.22 251.101C323.413 250.613 328.503 249.347 333.319 247.345C337.463 245.592 341.595 243.589 346.09 242.876C354.766 241.511 362.366 246.218 370.529 248.284C372.999 249.001 375.593 249.192 378.142 248.845C380.691 248.498 383.139 247.62 385.327 246.269C389.083 244.015 392.514 241.261 396.445 239.307C403.98 235.599 412.2 233.487 420.589 233.104C428.978 232.72 437.356 234.074 445.198 237.079C448.939 238.512 452.515 240.342 455.865 242.538C459.834 245.142 463.264 248.472 467.258 251.051C476.097 256.773 487.015 254.907 496.655 258.188C497.181 258.338 497.782 259.339 497.256 259.339Z" fill="#EBEBEB"/>
<path d="M360.532 183.526C352.632 183.526 219.632 184.403 211.281 184.14C210.68 184.14 210.355 183.238 210.943 182.888C216.214 180.284 222.211 180.809 227.67 178.957C230.887 177.88 232.865 175.764 235.107 173.348C236.962 171.241 239.355 169.679 242.03 168.828C244.472 168.101 247.061 168.023 249.542 168.602C252.234 169.241 254.55 170.781 257.154 171.758C263.539 174.174 269.749 171.883 274.319 167.15C278.075 163.256 281.831 159.638 286.839 157.485C288.927 156.539 291.188 156.034 293.48 156.002C295.772 155.969 298.047 156.41 300.16 157.297C305.043 159.5 308.386 163.945 312.968 166.624C318.402 169.804 324.9 169.053 330.897 170.005C336.894 170.956 341.502 176.014 346.772 178.931C348.504 180.06 350.516 180.684 352.582 180.734C353.754 180.634 354.92 180.471 356.075 180.246C357.878 180.021 359.605 180.071 360.82 181.586C361.12 181.986 361.058 183.526 360.532 183.526Z" fill="#EBEBEB"/>
<path d="M225.046 457.193C219.287 457.193 122.182 457.831 116.122 457.631C115.684 457.631 115.446 456.98 115.884 456.767C119.728 454.852 124.097 455.24 128.091 453.887C130.236 453.033 132.112 451.619 133.525 449.793C134.866 448.264 136.597 447.126 138.533 446.501C140.318 445.961 142.213 445.901 144.029 446.325C145.927 446.981 147.783 447.75 149.588 448.629C154.258 450.394 158.79 448.717 162.108 445.274C164.85 442.432 167.554 439.74 171.285 438.212C172.81 437.522 174.461 437.153 176.135 437.129C177.809 437.105 179.469 437.427 181.013 438.075C184.581 439.69 187.023 442.932 190.366 444.886C194.335 447.202 199.13 446.651 203.449 447.39C207.769 448.128 211.199 451.784 215.043 453.9C216.298 454.687 217.743 455.12 219.224 455.152C220.065 455.073 220.9 454.952 221.728 454.789C222.341 454.621 222.987 454.624 223.598 454.796C224.209 454.968 224.762 455.303 225.196 455.765C225.472 456.053 225.434 457.193 225.046 457.193Z" fill="#EBEBEB"/>
<path d="M333.231 404.484H168.831V588.24H333.231V404.484Z" fill="#DBDBDB"/>
<path d="M337.037 393.329H165.05V404.484H337.037V393.329Z" fill="#EBEBEB"/>
<path d="M291.264 513.208H210.798V524.363H291.264V513.208Z" fill="#EBEBEB"/>
<path d="M217.359 431.101H189.439V474.37H217.359V431.101Z" fill="#C7C7C7"/>
<path d="M214.479 434.269H192.318V471.203H214.479V434.269Z" fill="white"/>
<path d="M221.353 474.383H185.445V480.605H221.353V474.383Z" fill="#EBEBEB"/>
<g opacity="0.5">
<path d="M214.491 434.281V438.839L192.318 461.011V452.585L210.623 434.281H214.491Z" fill="#EBEBEB"/>
<path d="M214.491 461.663V465.869L209.145 471.215H204.926L214.491 461.663Z" fill="#EBEBEB"/>
<path d="M199.78 434.281L192.318 441.743V437.524L195.549 434.281H199.78Z" fill="#EBEBEB"/>
<path d="M214.491 455.04V456.404L199.668 471.215H198.315L214.491 455.04Z" fill="#EBEBEB"/>
</g>
<path d="M217.359 456.003H189.439V459.171H217.359V456.003Z" fill="#C7C7C7"/>
<path d="M264.998 431.101H237.078V474.37H264.998V431.101Z" fill="#C7C7C7"/>
<path d="M262.117 434.269H239.957V471.203H262.117V434.269Z" fill="white"/>
<path d="M268.991 474.383H233.084V480.605H268.991V474.383Z" fill="#EBEBEB"/>
<g opacity="0.5">
<path d="M262.117 434.281V438.839L239.957 461.011V452.585L258.261 434.281H262.117Z" fill="#EBEBEB"/>
<path d="M262.117 461.663V465.869L256.784 471.215H252.564L262.117 461.663Z" fill="#EBEBEB"/>
<path d="M247.419 434.281L239.957 441.743V437.524L243.187 434.281H247.419Z" fill="#EBEBEB"/>
<path d="M262.117 455.04V456.404L247.306 471.215H245.954L262.117 455.04Z" fill="#EBEBEB"/>
</g>
<path d="M264.998 456.003H237.078V459.171H264.998V456.003Z" fill="#C7C7C7"/>
<path d="M312.636 431.101H284.717V474.37H312.636V431.101Z" fill="#C7C7C7"/>
<path d="M309.756 434.269H287.596V471.203H309.756V434.269Z" fill="white"/>
<path d="M316.63 474.383H280.723V480.605H316.63V474.383Z" fill="#EBEBEB"/>
<g opacity="0.5">
<path d="M309.769 434.281V438.839L287.596 461.011V452.585L305.9 434.281H309.769Z" fill="#EBEBEB"/>
<path d="M309.768 461.663V465.869L304.422 471.215H300.203L309.768 461.663Z" fill="#EBEBEB"/>
<path d="M295.058 434.281L287.596 441.743V437.524L290.826 434.281H295.058Z" fill="#EBEBEB"/>
<path d="M309.769 455.04V456.404L294.957 471.215H293.593L309.769 455.04Z" fill="#EBEBEB"/>
</g>
<path d="M312.636 456.003H284.717V459.171H312.636V456.003Z" fill="#C7C7C7"/>
<path d="M285.23 524.363H216.858V588.24H285.23V524.363Z" fill="#C7C7C7"/>
<path d="M280.61 529.083H221.453V588.24H280.61V529.083Z" fill="white"/>
<g opacity="0.5">
<path d="M280.609 553.772V564.765L257.134 588.24H246.154L280.609 553.772Z" fill="#EBEBEB"/>
<path d="M236.902 529.083L221.465 544.532V533.54L225.909 529.083H236.902Z" fill="#EBEBEB"/>
<path d="M269.917 529.083L221.465 577.535V572.051L264.421 529.083H269.917Z" fill="#EBEBEB"/>
<path d="M280.609 570.461V575.97L268.327 588.239H262.831L280.609 570.461Z" fill="#EBEBEB"/>
<path d="M280.61 534.579V535.58L227.963 588.239H226.937L280.61 534.579Z" fill="#EBEBEB"/>
<path d="M243.3 529.083L221.465 550.93V549.916L242.286 529.083H243.3Z" fill="#EBEBEB"/>
<path d="M261.942 529.083L221.465 569.56V568.533L260.903 529.083H261.942Z" fill="#EBEBEB"/>
</g>
<path d="M252.941 529.083H249.135V588.24H252.941V529.083Z" fill="#C7C7C7"/>
<path d="M169 441H31V588H169V441Z" fill="#DBDBDB"/>
<path d="M156.361 441.493H168.831V588.24H163.31L156.361 441.493Z" fill="#C7C7C7"/>
<path d="M69.7226 461.663H45.3086V499.498H69.7226V461.663Z" fill="#C7C7C7"/>
<path d="M67.2062 464.43H47.8252V496.719H67.2062V464.43Z" fill="white"/>
<path d="M73.2156 499.498H41.8154V504.932H73.2156V499.498Z" fill="#EBEBEB"/>
<g opacity="0.5">
<path d="M67.206 464.43V468.424L47.8125 487.805V480.43L63.8256 464.43H67.206Z" fill="#EBEBEB"/>
<path d="M67.2063 488.368V492.062L62.5364 496.732H58.8555L67.2063 488.368Z" fill="#EBEBEB"/>
<path d="M54.3479 464.43L47.8125 470.953V467.272L50.642 464.43H54.3479Z" fill="#EBEBEB"/>
<path d="M67.2064 482.583V483.773L54.2482 496.731H53.0713L67.2064 482.583Z" fill="#EBEBEB"/>
</g>
<path d="M69.7226 483.422H45.3086V486.189H69.7226V483.422Z" fill="#C7C7C7"/>
<path d="M111.364 461.663H86.9502V499.498H111.364V461.663Z" fill="#C7C7C7"/>
<path d="M108.848 464.43H89.4668V496.719H108.848V464.43Z" fill="white"/>
<path d="M114.857 499.498H83.457V504.932H114.857V499.498Z" fill="#EBEBEB"/>
<g opacity="0.5">
<path d="M108.86 464.43V468.424L89.4668 487.805V480.43L105.467 464.43H108.86Z" fill="#EBEBEB"/>
<path d="M108.86 488.368V492.062L104.19 496.732H100.497L108.86 488.368Z" fill="#EBEBEB"/>
<path d="M95.9897 464.43L89.4668 470.953V467.272L92.2963 464.43H95.9897Z" fill="#EBEBEB"/>
<path d="M108.86 482.583V483.773L95.9023 496.731H94.7129L108.86 482.583Z" fill="#EBEBEB"/>
</g>
<path d="M111.364 483.422H86.9502V486.189H111.364V483.422Z" fill="#C7C7C7"/>
<path d="M153.018 461.663H128.604V499.498H153.018V461.663Z" fill="#C7C7C7"/>
<path d="M150.502 464.43H131.121V496.719H150.502V464.43Z" fill="white"/>
<path d="M156.511 499.498H125.111V504.932H156.511V499.498Z" fill="#EBEBEB"/>
<g opacity="0.5">
<path d="M150.502 464.43V468.424L131.121 487.805V480.43L147.122 464.43H150.502Z" fill="#EBEBEB"/>
<path d="M150.502 488.368V492.062L145.832 496.732H142.151L150.502 488.368Z" fill="#EBEBEB"/>
<path d="M137.644 464.43L131.121 470.953V467.272L133.951 464.43H137.644Z" fill="#EBEBEB"/>
<path d="M150.502 482.583V483.773L137.557 496.731H136.367L150.502 482.583Z" fill="#EBEBEB"/>
</g>
<path d="M153.018 483.422H128.604V486.189H153.018V483.422Z" fill="#C7C7C7"/>
<path d="M69.7226 518.792H45.3086V556.627H69.7226V518.792Z" fill="#C7C7C7"/>
<path d="M67.2062 521.558H47.8252V553.847H67.2062V521.558Z" fill="white"/>
<path d="M73.2156 556.627H41.8154V562.061H73.2156V556.627Z" fill="#EBEBEB"/>
<g opacity="0.5">
<path d="M67.206 521.558V525.552L47.8125 544.933V537.571L63.8256 521.558H67.206Z" fill="#EBEBEB"/>
<path d="M67.2063 545.497V549.19L62.5364 553.86H58.8555L67.2063 545.497Z" fill="#EBEBEB"/>
<path d="M54.3479 521.558L47.8125 528.081V524.4L50.642 521.558H54.3479Z" fill="#EBEBEB"/>
<path d="M67.2064 539.725V540.901L54.2482 553.86H53.0713L67.2064 539.725Z" fill="#EBEBEB"/>
</g>
<path d="M69.7226 540.551H45.3086V543.318H69.7226V540.551Z" fill="#C7C7C7"/>
<path d="M111.364 518.792H86.9502V556.627H111.364V518.792Z" fill="#C7C7C7"/>
<path d="M108.848 521.558H89.4668V553.847H108.848V521.558Z" fill="white"/>
<path d="M114.857 556.627H83.457V562.061H114.857V556.627Z" fill="#EBEBEB"/>
<g opacity="0.5">
<path d="M108.86 521.558V525.552L89.4668 544.933V537.571L105.467 521.558H108.86Z" fill="#EBEBEB"/>
<path d="M108.86 545.497V549.19L104.19 553.86H100.497L108.86 545.497Z" fill="#EBEBEB"/>
<path d="M95.9897 521.558L89.4668 528.081V524.4L92.2963 521.558H95.9897Z" fill="#EBEBEB"/>
<path d="M108.86 539.725V540.901L95.9023 553.86H94.7129L108.86 539.725Z" fill="#EBEBEB"/>
</g>
<path d="M111.364 540.551H86.9502V543.318H111.364V540.551Z" fill="#C7C7C7"/>
<path d="M153.018 518.792H128.604V556.627H153.018V518.792Z" fill="#C7C7C7"/>
<path d="M150.502 521.558H131.121V553.847H150.502V521.558Z" fill="white"/>
<path d="M156.511 556.627H125.111V562.061H156.511V556.627Z" fill="#EBEBEB"/>
<g opacity="0.5">
<path d="M150.502 521.558V525.552L131.121 544.933V537.571L147.122 521.558H150.502Z" fill="#EBEBEB"/>
<path d="M150.502 545.497V549.19L145.832 553.86H142.151L150.502 545.497Z" fill="#EBEBEB"/>
<path d="M137.644 521.558L131.121 528.081V524.4L133.951 521.558H137.644Z" fill="#EBEBEB"/>
<path d="M150.502 539.725V540.901L137.557 553.86H136.367L150.502 539.725Z" fill="#EBEBEB"/>
</g>
<path d="M153.018 540.551H128.604V543.318H153.018V540.551Z" fill="#C7C7C7"/>
<path d="M169 430H24V441H169V430Z" fill="#EBEBEB"/>
<path d="M333.156 588.24H472.504V441.493H333.156V588.24Z" fill="#DBDBDB"/>
<path d="M345.639 441.493H333.169V588.24H338.69L345.639 441.493Z" fill="#C7C7C7"/>
<path d="M432.277 499.485H456.691V461.65H432.277V499.485Z" fill="#C7C7C7"/>
<path d="M434.794 496.719H454.175V464.43H434.794V496.719Z" fill="white"/>
<path d="M428.784 504.932H460.185V499.498H428.784V504.932Z" fill="#EBEBEB"/>
<g opacity="0.5">
<path d="M434.794 464.43V468.424L454.187 487.805V480.43L438.174 464.43H434.794Z" fill="#EBEBEB"/>
<path d="M434.794 488.368V492.062L439.464 496.732H443.157L434.794 488.368Z" fill="#EBEBEB"/>
<path d="M447.652 464.43L454.188 470.953V467.272L451.358 464.43H447.652Z" fill="#EBEBEB"/>
<path d="M434.794 482.583V483.773L447.752 496.731H448.929L434.794 482.583Z" fill="#EBEBEB"/>
</g>
<path d="M432.277 486.189H456.691V483.423H432.277V486.189Z" fill="#C7C7C7"/>
<path d="M390.623 499.485H415.037V461.65H390.623V499.485Z" fill="#C7C7C7"/>
<path d="M393.14 496.719H412.521V464.43H393.14V496.719Z" fill="white"/>
<path d="M387.13 504.932H418.53V499.498H387.13V504.932Z" fill="#EBEBEB"/>
<g opacity="0.5">
<path d="M393.152 464.43V468.424L412.533 487.805V480.43L396.533 464.43H393.152Z" fill="#EBEBEB"/>
<path d="M393.152 488.368V492.062L397.81 496.732H401.503L393.152 488.368Z" fill="#EBEBEB"/>
<path d="M406.011 464.43L412.534 470.953V467.272L409.704 464.43H406.011Z" fill="#EBEBEB"/>
<path d="M393.152 482.583V483.773L406.098 496.731H407.275L393.152 482.583Z" fill="#EBEBEB"/>
</g>
<path d="M390.623 486.189H415.037V483.423H390.623V486.189Z" fill="#C7C7C7"/>
<path d="M348.982 499.485H373.396V461.65H348.982V499.485Z" fill="#C7C7C7"/>
<path d="M351.498 496.719H370.879V464.43H351.498V496.719Z" fill="white"/>
<path d="M345.489 504.932H376.889V499.498H345.489V504.932Z" fill="#EBEBEB"/>
<g opacity="0.5">
<path d="M351.498 464.43V468.424L370.879 487.805V480.43L354.878 464.43H351.498Z" fill="#EBEBEB"/>
<path d="M351.498 488.368V492.062L356.168 496.732H359.849L351.498 488.368Z" fill="#EBEBEB"/>
<path d="M364.356 464.43L370.879 470.953V467.272L368.05 464.43H364.356Z" fill="#EBEBEB"/>
<path d="M351.498 482.583V483.773L364.444 496.731H365.633L351.498 482.583Z" fill="#EBEBEB"/>
</g>
<path d="M348.982 486.189H373.396V483.423H348.982V486.189Z" fill="#C7C7C7"/>
<path d="M432.277 556.614H456.691V518.779H432.277V556.614Z" fill="#C7C7C7"/>
<path d="M434.794 553.847H454.175V521.558H434.794V553.847Z" fill="white"/>
<path d="M428.784 562.061H460.185V556.627H428.784V562.061Z" fill="#EBEBEB"/>
<g opacity="0.5">
<path d="M434.794 521.558V525.552L454.187 544.933V537.571L438.174 521.558H434.794Z" fill="#EBEBEB"/>
<path d="M434.794 545.497V549.19L439.464 553.86H443.157L434.794 545.497Z" fill="#EBEBEB"/>
<path d="M447.652 521.558L454.188 528.081V524.4L451.358 521.558H447.652Z" fill="#EBEBEB"/>
<path d="M434.794 539.725V540.901L447.752 553.86H448.929L434.794 539.725Z" fill="#EBEBEB"/>
</g>
<path d="M432.277 543.331H456.691V540.564H432.277V543.331Z" fill="#C7C7C7"/>
<path d="M390.623 556.614H415.037V518.779H390.623V556.614Z" fill="#C7C7C7"/>
<path d="M393.14 553.847H412.521V521.558H393.14V553.847Z" fill="white"/>
<path d="M387.13 562.061H418.53V556.627H387.13V562.061Z" fill="#EBEBEB"/>
<g opacity="0.5">
<path d="M393.152 521.558V525.552L412.533 544.933V537.571L396.533 521.558H393.152Z" fill="#EBEBEB"/>
<path d="M393.152 545.497V549.19L397.81 553.86H401.503L393.152 545.497Z" fill="#EBEBEB"/>
<path d="M406.011 521.558L412.534 528.081V524.4L409.704 521.558H406.011Z" fill="#EBEBEB"/>
<path d="M393.152 539.725V540.901L406.098 553.86H407.275L393.152 539.725Z" fill="#EBEBEB"/>
</g>
<path d="M390.623 543.331H415.037V540.564H390.623V543.331Z" fill="#C7C7C7"/>
<path d="M348.982 556.614H373.396V518.779H348.982V556.614Z" fill="#C7C7C7"/>
<path d="M351.498 553.847H370.879V521.558H351.498V553.847Z" fill="white"/>
<path d="M345.489 562.061H376.889V556.627H345.489V562.061Z" fill="#EBEBEB"/>
<g opacity="0.5">
<path d="M351.498 521.558V525.552L370.879 544.933V537.571L354.878 521.558H351.498Z" fill="#EBEBEB"/>
<path d="M351.498 545.497V549.19L356.168 553.86H359.849L351.498 545.497Z" fill="#EBEBEB"/>
<path d="M364.356 521.558L370.879 528.081V524.4L368.05 521.558H364.356Z" fill="#EBEBEB"/>
<path d="M351.498 539.725V540.901L364.444 553.86H365.633L351.498 539.725Z" fill="#EBEBEB"/>
</g>
<path d="M348.982 543.331H373.396V540.564H348.982V543.331Z" fill="#C7C7C7"/>
<path d="M333.169 441.493H477.262V430.337H333.169V441.493Z" fill="#EBEBEB"/>
<path d="M307.616 380.12V393.316H194.46V380.12H214.492C214.492 380.12 224.283 365.096 251.05 365.096C277.818 365.096 287.609 380.12 287.609 380.12H307.616Z" fill="#DBDBDB"/>
<path d="M362.102 560.345C358.922 555.049 355.266 549.19 356.293 542.817C357.244 536.895 360.049 530.535 365.87 528.006C367.535 527.292 368.712 527.117 368.975 529.183C369.376 532.326 367.623 535.894 366.622 538.786C365.27 542.496 364.28 546.328 363.667 550.229C363.254 552.958 363.128 555.738 362.778 558.492C362.75 558.841 362.705 559.188 362.64 559.531C362.64 559.657 362.64 559.794 362.64 559.932C362.665 559.985 362.694 560.035 362.728 560.082C362.75 560.127 362.761 560.176 362.761 560.226C362.761 560.276 362.75 560.326 362.728 560.37C362.712 560.406 362.69 560.44 362.665 560.47C362.625 560.512 362.575 560.543 362.519 560.56C362.464 560.576 362.405 560.579 362.348 560.566C362.292 560.553 362.239 560.527 362.196 560.488C362.153 560.449 362.121 560.4 362.102 560.345Z" fill="#455A64"/>
<path d="M362.616 560.42C360.112 555.613 357.007 550.605 358.121 545.021C358.698 542.42 359.683 539.927 361.038 537.634C361.627 536.595 363.379 533.465 364.794 533.565C367.398 533.74 362.716 543.731 362.403 544.933C361.353 549.391 361.474 554.045 362.753 558.442C362.726 558.791 362.68 559.138 362.616 559.481C361.657 556.39 361.209 553.164 361.289 549.928C361.426 545.434 363.367 541.916 364.681 537.734C364.969 536.833 366.034 533.978 364.419 534.041C363.354 534.041 361.614 537.108 361.251 537.797C359.976 539.977 359.035 542.336 358.459 544.795C357.207 550.417 360.199 555.462 362.653 560.358C362.642 560.38 362.63 560.4 362.616 560.42Z" fill="white"/>
<path d="M360.462 565.153L359.761 565.366C359.736 565.379 359.708 565.386 359.68 565.386C359.651 565.386 359.623 565.379 359.598 565.366C359.557 565.316 359.535 565.254 359.535 565.19C359.535 565.126 359.557 565.064 359.598 565.015C359.63 564.976 359.674 564.95 359.723 564.94H359.824H360.049C363.091 561.998 366.597 559.569 369.627 556.577C372.656 553.584 375.198 550.667 378.291 548.038C380.256 546.385 390.435 538.748 391.75 544.37C392.338 546.874 390.034 550.066 388.62 551.882C386.698 554.343 384.348 556.438 381.683 558.067C375.148 562.023 367.661 562.949 360.462 565.153Z" fill="#455A64"/>
<path d="M375.06 559.106C377.63 557.801 380.003 556.141 382.109 554.173C382.835 553.497 386.303 550.192 385.439 548.865C384.888 548.013 383.06 548.865 382.434 549.077C379.805 550.129 377.739 552.308 375.623 554.085C371.279 557.732 366.676 561.058 361.851 564.039L360.85 564.427L360.011 564.752L359.723 564.878L359.498 564.965C359.457 565.015 359.435 565.077 359.435 565.141C359.435 565.205 359.457 565.267 359.498 565.316L360.149 565.065L359.66 565.353L360.224 565.166H360.361C360.637 565.015 360.9 564.853 361.163 564.69C365.902 563.107 370.543 561.242 375.06 559.106ZM363.003 563.626C365.82 561.898 368.549 560.007 371.191 558.017C373.32 556.402 375.373 554.699 377.376 553.009C378.484 551.978 379.678 551.044 380.944 550.217C381.921 549.616 385.727 547.713 384.475 550.893C383.573 553.209 380.193 555.513 378.215 556.827C376.027 558.254 373.714 559.478 371.304 560.483C368.587 561.597 365.783 562.599 363.003 563.626Z" fill="white"/>
<path d="M347.241 576.283L347.116 576.095C344.612 571.012 340.518 564.677 341.507 558.755C342.233 554.385 345.363 548.739 349.945 547.487C355.116 546.047 353.05 555.249 352.637 557.616C351.29 563.919 349.593 570.143 347.554 576.258C347.554 576.258 347.554 576.333 347.554 576.371C347.404 576.458 347.316 576.383 347.241 576.283Z" fill="#455A64"/>
<path d="M347.479 576.371C347.479 575.995 347.479 575.607 347.541 575.219C347.779 570.837 348.217 566.455 348.868 562.123C349.031 561.021 350.897 552.72 348.668 552.858C347.316 552.946 346.164 555.988 345.738 556.99C345.015 558.778 344.592 560.673 344.486 562.599C344.261 567.031 346.026 571.275 347.103 575.544C347.169 575.741 347.223 575.942 347.266 576.145C347.266 576.145 347.266 576.233 347.266 576.271C347.328 576.383 347.404 576.458 347.479 576.371ZM344.9 565.028C344.745 563.06 344.918 561.079 345.413 559.168C345.751 557.916 347.091 553.346 348.731 553.447C349.607 553.447 349.444 554.035 349.507 555.037C349.507 555.5 349.507 555.963 349.507 556.414C349.419 557.553 349.206 558.667 349.019 559.769C348.681 561.735 348.393 563.688 348.155 565.666C347.754 568.884 347.479 572.126 347.316 575.369C346.54 571.901 345.163 568.558 344.9 565.028Z" fill="white"/>
<path d="M362.428 579.676C356.045 581.514 349.262 581.418 342.934 579.401H342.821C342.788 579.355 342.77 579.3 342.77 579.244C342.77 579.188 342.788 579.133 342.821 579.088C342.832 579.059 342.849 579.033 342.87 579.012C342.891 578.99 342.917 578.973 342.945 578.961C342.973 578.949 343.003 578.943 343.033 578.943C343.064 578.944 343.094 578.95 343.122 578.962L343.51 579.063C350.684 576.17 357.858 573.366 364.982 570.299C366.659 569.585 377.502 565.228 377.502 569.247C377.502 571.751 373.47 574.142 371.705 575.344C368.849 577.248 365.721 578.708 362.428 579.676Z" fill="#455A64"/>
<path d="M370.44 572.89C370.903 572.402 371.317 571.789 370.578 571.388C369.151 570.599 364.143 572.753 362.715 573.279C356.831 575.445 350.909 577.035 344.874 578.687L343.347 579.113L342.783 579.025C342.753 579.069 342.736 579.122 342.736 579.176C342.736 579.229 342.753 579.282 342.783 579.326H342.946L343.71 579.426C347.786 579.943 351.919 579.812 355.955 579.038C358.509 578.559 361.006 577.812 363.404 576.809C365.658 575.845 368.75 574.668 370.44 572.89ZM344.148 579.15H343.773L344.411 579.025C349.157 578.076 353.837 576.822 358.421 575.269C360.75 574.443 363.003 573.491 365.357 572.765C366.346 572.452 369.113 571.513 369.939 571.989C370.766 572.465 369.764 573.041 369.238 573.429C368.712 573.817 368.111 574.117 367.723 574.343C360.561 578.41 352.294 580.102 344.111 579.176L344.148 579.15Z" fill="white"/>
<path d="M328.9 588.24L328.349 587.25L330.915 585.748C334.371 583.695 337.797 581.608 341.194 579.488C343.131 578.261 345.029 577.009 346.891 575.732L347.079 575.594L347.542 575.269L348.018 574.918C352.226 572.006 355.948 568.449 359.048 564.376C360.062 562.987 361.013 561.559 361.94 560.107L362.203 559.694C362.228 559.659 362.249 559.621 362.265 559.581L362.541 559.143C362.615 559.035 362.682 558.922 362.741 558.805C365.495 554.298 367.899 549.553 370.391 544.92C371.104 543.593 371.831 542.266 372.557 540.952C372.557 540.864 372.644 540.789 372.682 540.714L372.845 540.426C376.037 534.579 379.293 528.77 382.335 522.898C382.435 522.672 382.761 522.898 382.648 523.098C380.657 527.054 378.767 531.061 376.839 535.067L376.075 536.657L374.547 539.812C373.521 541.916 372.482 544.006 371.405 546.072C368.531 552.018 365.299 557.784 361.727 563.337L360.876 564.589C360.688 564.84 360.513 565.09 360.325 565.328C360.137 565.566 359.912 565.904 359.699 566.179C355.846 570.943 351.184 574.991 345.927 578.136L344.837 578.825L344.337 579.15L344.074 579.313L343.723 579.526L343.46 579.676C343.16 579.876 342.834 580.064 342.521 580.252C339.091 582.338 335.639 584.388 332.167 586.399C331.128 586.912 329.989 587.576 328.9 588.24Z" fill="#455A64"/>
<path d="M376.2 523.499C378.341 518.779 383.925 511.154 389.972 512.982C391.13 513.287 392.134 514.009 392.79 515.01C393.447 516.011 393.709 517.22 393.528 518.403C393.165 521.345 390.811 523.887 388.808 525.915C383.449 531.274 377.627 536.081 372.657 541.816C372.657 541.878 372.231 542.304 372.131 542.442C372.031 542.579 371.856 542.379 371.956 542.266L372.444 541.703C373.208 535.631 373.621 529.095 376.2 523.499Z" fill="#455A64"/>
<path d="M372.694 541.841C372.713 541.798 372.734 541.756 372.757 541.716C373.76 539.936 374.868 538.218 376.075 536.57C378.626 533.18 381.386 529.952 384.338 526.904C385.465 525.652 391.074 520.069 387.092 519.155C385.402 518.766 383.499 520.018 382.209 520.932C380.155 522.428 378.418 524.318 377.101 526.491C374.422 530.773 373.345 535.731 372.682 540.664C372.682 540.902 372.619 541.127 372.594 541.34L372.481 541.54L372.406 541.666C372.406 541.666 372.406 541.728 372.406 541.753C372.406 541.778 372.411 541.803 372.421 541.826C372.432 541.848 372.447 541.868 372.466 541.884C372.486 541.9 372.508 541.911 372.533 541.916C372.557 541.922 372.582 541.922 372.607 541.916C372.643 541.9 372.673 541.874 372.694 541.841ZM372.845 540.376C373.38 536.274 374.532 532.277 376.262 528.52C377.221 526.583 378.466 524.801 379.956 523.236C380.623 522.55 381.343 521.918 382.109 521.346C382.679 520.908 383.286 520.523 383.925 520.194C385.327 519.48 387.142 519.217 387.681 519.943C388.219 520.67 388.019 521.508 387.23 522.81C386.968 523.248 386.675 523.666 386.354 524.062C385.569 525.065 384.733 526.026 383.85 526.942C382.397 528.482 380.945 530.022 379.555 531.625C378.616 532.714 377.69 533.828 376.826 534.967C375.306 536.919 373.929 538.977 372.707 541.127C372.757 540.864 372.794 540.626 372.845 540.376Z" fill="white"/>
<path d="M123.296 548.739C126.363 551.556 129.218 554.574 132.06 557.616C133.662 559.344 135.24 561.084 136.855 562.812C138.47 564.539 140.298 566.831 142.789 567.82C142.895 567.874 142.995 567.937 143.09 568.008C143.107 568.061 143.109 568.118 143.096 568.173C143.082 568.228 143.053 568.277 143.013 568.317C142.973 568.356 142.922 568.383 142.867 568.394C142.812 568.406 142.755 568.402 142.702 568.383L142.539 568.321H142.464C141.696 568.234 140.94 568.062 140.21 567.807C138.161 567.325 136.142 566.723 134.163 566.004C130.102 564.568 126.236 562.629 122.657 560.233C119.456 558.08 116.555 555.512 114.031 552.595C112.028 550.254 109.023 546.811 108.434 543.656C107.921 540.814 111.602 541.377 113.305 541.878C117.198 543.018 120.403 546.085 123.296 548.739Z" fill="#455A64"/>
<path d="M114.031 546.661C113.154 547.913 116.535 551.594 117.874 553.247C120.085 555.857 122.608 558.187 125.386 560.183C130.378 563.732 135.937 566.408 141.825 568.095L142.526 568.308H142.601L142.764 568.371C142.817 568.385 142.872 568.386 142.925 568.373C142.978 568.359 143.027 568.332 143.066 568.294C143.105 568.256 143.134 568.209 143.149 568.156C143.164 568.104 143.165 568.048 143.152 567.995C142.677 567.77 142.226 567.544 141.788 567.294C141.349 567.044 140.986 566.856 140.536 566.618C136.364 563.894 132.487 560.742 128.967 557.215C124.748 553.272 115.195 545.046 114.031 546.661ZM141.187 567.407C141.775 567.732 142.439 568.033 142.977 568.308L141.55 567.832C136.426 566.185 131.549 563.852 127.052 560.896C124.524 559.212 122.183 557.264 120.065 555.087C118.927 553.903 117.865 552.649 116.885 551.331C116.472 550.78 113.805 547.575 114.519 546.886C115.007 546.448 118.075 548.451 118.137 548.489C118.763 548.877 119.389 549.303 119.953 549.741C121.205 550.642 122.344 551.606 123.496 552.583C126 554.711 128.366 556.99 130.783 559.206C133.917 562.338 137.409 565.09 141.187 567.407Z" fill="white"/>
<path d="M146.333 536.106C149.112 541.477 149.763 547.662 149.851 553.634C149.851 556.839 149.788 560.032 149.75 563.225C149.565 566.078 149.665 568.943 150.051 571.776L150.126 572.139C150.293 572.925 150.55 573.689 150.89 574.418C150.903 574.44 150.91 574.466 150.91 574.493C150.91 574.519 150.903 574.545 150.89 574.568C150.94 574.636 150.986 574.707 151.028 574.781L150.952 574.856L150.752 574.68C150.716 574.686 150.679 574.679 150.647 574.661C150.615 574.643 150.59 574.614 150.577 574.58C150.573 574.551 150.573 574.522 150.577 574.493L150.389 574.305C145.719 569.998 143.102 562.724 141.325 556.877C139.547 551.03 138.733 544.795 140.285 538.836C140.673 537.333 141.337 533.765 143.14 533.264C144.943 532.763 145.757 534.967 146.333 536.106Z" fill="#455A64"/>
<path d="M143.879 539.612C142.051 539.925 142.439 544.946 142.489 546.173C142.729 549.887 143.29 553.573 144.167 557.19C145.298 563.102 147.347 568.801 150.239 574.08C150.254 574.152 150.275 574.224 150.302 574.293L150.489 574.48C150.485 574.51 150.485 574.539 150.489 574.568C150.501 574.604 150.525 574.633 150.558 574.652C150.59 574.671 150.628 574.676 150.665 574.668C150.66 574.576 150.66 574.485 150.665 574.393C150.452 573.654 150.289 572.903 150.126 572.152L150.051 571.789C149.169 566.541 148.625 561.243 148.424 555.926C148.209 552.23 147.651 548.563 146.758 544.971C146.508 544.032 145.419 539.337 143.879 539.612ZM145.519 542.279C148.023 548.063 147.948 554.949 148.374 561.134C148.544 565.32 149.123 569.48 150.101 573.554C147.655 568.68 145.87 563.501 144.793 558.154C144.063 555.138 143.507 552.082 143.128 549.002C142.919 547.341 142.827 545.668 142.852 543.994C142.865 542.981 142.995 541.973 143.24 540.989C143.866 539.136 145.093 541.252 145.519 542.254V542.279Z" fill="white"/>
<path d="M160.856 582.581C160.883 582.628 160.897 582.682 160.897 582.737C160.897 582.792 160.883 582.846 160.856 582.894C160.88 582.894 160.904 582.902 160.922 582.918C160.941 582.935 160.953 582.957 160.956 582.981C160.959 582.994 160.96 583.007 160.959 583.02C160.957 583.032 160.952 583.045 160.945 583.055C160.938 583.066 160.928 583.075 160.917 583.082C160.906 583.089 160.893 583.093 160.881 583.094C153.694 584.221 145.694 584.559 138.62 582.618C135.624 581.837 132.778 580.568 130.194 578.862C128.441 577.685 124.898 575.294 124.698 572.915C124.297 568.145 136.942 573.103 138.845 573.854C142.313 575.219 145.656 576.872 149.099 578.311C152.855 579.889 156.736 581.178 160.605 582.468C160.653 582.457 160.704 582.461 160.749 582.482C160.795 582.502 160.832 582.537 160.856 582.581Z" fill="#455A64"/>
<path d="M160.855 582.568C160.467 582.568 160.079 582.506 159.703 582.456C153.41 581.731 147.266 580.042 141.487 577.448C138.623 576.065 135.645 574.934 132.585 574.067C131.821 573.879 129.017 572.991 129.468 574.793C129.706 575.732 134.325 578.399 135.59 579C138.489 580.316 141.537 581.275 144.667 581.855C149.905 582.881 155.251 583.247 160.58 582.944H161.043C161.043 582.917 161.033 582.892 161.014 582.873C160.995 582.854 160.97 582.844 160.943 582.844H160.83C160.854 582.802 160.868 582.756 160.872 582.709C160.877 582.661 160.871 582.613 160.855 582.568ZM147.346 582.017C144.217 581.587 141.142 580.832 138.169 579.764C136.993 579.326 135.843 578.82 134.726 578.249C133.857 577.804 133.02 577.298 132.222 576.734C130.281 575.319 129.881 574.806 130.044 574.43C130.206 574.055 130.569 574.067 132.147 574.33C133.163 574.517 134.157 574.806 135.114 575.194C136.491 575.707 137.844 576.271 139.183 576.859C141.875 578.024 144.567 579.225 147.334 580.177C151.305 581.573 155.443 582.436 159.641 582.744C155.513 582.85 151.383 582.607 147.296 582.017H147.346Z" fill="white"/>
<path d="M160.067 561.923C161.797 563.875 163.079 566.183 163.823 568.684C165.475 573.579 166.039 578.7 167.341 583.708C167.529 584.459 167.742 585.198 167.967 585.936C167.967 586.011 168.493 586.838 168.43 586.788L167.792 586.124C165.838 584.083 160.042 577.811 157.776 573.604C156.327 570.971 155.204 568.171 154.433 565.266C154.12 563.888 153.531 560.758 154.909 559.707C156.286 558.655 159.128 560.896 160.067 561.923Z" fill="#455A64"/>
<path d="M157.099 563.125C155.171 563.926 159.165 572.389 159.666 573.504C161.518 577.623 163.901 581.482 166.752 584.985C167.065 585.385 167.391 585.773 167.729 586.161C168.067 586.55 168.342 586.813 168.367 586.825C168.392 586.838 167.942 586.049 167.904 585.974C167.867 585.899 167.829 585.711 167.792 585.598C167.604 584.972 167.428 584.346 167.278 583.758C166.026 580.415 164.774 577.047 163.522 573.742C162.583 571.345 161.457 569.026 160.154 566.806C159.816 566.28 157.963 562.774 157.099 563.125ZM158.677 564.877C162.984 571.05 164.549 578.499 167.441 585.36L167.579 585.686L167.228 585.235C164.931 582.294 162.919 579.142 161.219 575.82C160.183 573.792 159.275 571.702 158.502 569.56C158.002 568.41 157.584 567.226 157.25 566.017C157.137 565.491 156.874 564.026 157.25 563.838C157.625 563.651 158.351 564.477 158.689 564.877H158.677Z" fill="white"/>
<path d="M122.744 513.32C129.53 524.588 126.075 539.161 132.072 550.805C132.26 551.168 132.447 551.519 132.648 551.869C132.666 551.903 132.677 551.941 132.677 551.979C132.678 552.018 132.669 552.056 132.652 552.091C132.635 552.125 132.61 552.155 132.578 552.177C132.547 552.2 132.511 552.214 132.472 552.22C132.436 552.227 132.398 552.222 132.364 552.207C132.33 552.191 132.303 552.165 132.285 552.132L132.147 551.869C126.776 546.584 122.399 540.375 119.226 533.54C116.447 527.831 114.606 521.433 115.558 515.048C115.783 513.483 116.146 510.34 118.062 509.752C119.978 509.163 121.906 511.968 122.744 513.32Z" fill="#455A64"/>
<path d="M120.416 517.527C119.615 517.777 119.515 518.954 119.427 519.593C119.194 521.197 119.16 522.825 119.327 524.438C119.681 527.741 120.525 530.973 121.831 534.028C123.875 539.327 126.566 544.352 129.844 548.99C130.607 550.029 131.396 551.03 132.235 551.982L132.548 552.332C132.587 552.329 132.625 552.316 132.658 552.294C132.691 552.272 132.718 552.243 132.737 552.208C132.755 552.173 132.765 552.134 132.765 552.095C132.765 552.055 132.755 552.016 132.736 551.982C132.536 551.644 132.36 551.306 132.172 550.955V550.868C130.802 548.626 129.654 546.257 128.742 543.794C127.487 539.913 126.479 535.958 125.725 531.95C125.286 530.385 123.146 516.625 120.416 517.527ZM122.194 519.843C123.584 522.798 124.022 526.166 124.698 529.321C125.374 532.476 126.088 535.731 126.851 538.911C127.449 541.447 128.266 543.927 129.293 546.323C130.136 548.322 131.159 550.242 132.348 552.057C130.988 550.406 129.733 548.67 128.592 546.861C128.586 546.836 128.586 546.811 128.592 546.786C126.616 543.561 124.843 540.216 123.283 536.77C123.283 536.77 123.283 536.682 123.221 536.645C121.767 533.627 120.683 530.445 119.991 527.167C119.634 525.383 119.483 523.564 119.54 521.746C119.64 519.68 119.928 517.99 120.629 517.99C121.142 517.94 121.793 518.967 122.194 519.843Z" fill="white"/>
<path d="M123.583 536.582C125.436 539.85 127.339 543.093 129.33 546.323L132.059 550.88V550.968L133.048 552.608C135.913 557.714 139.188 562.579 142.839 567.156C144.856 569.449 147.086 571.545 149.5 573.416L150.238 574.017L150.652 574.33L150.877 574.505C152.98 576.12 155.171 577.635 157.3 579.1C160.279 581.153 163.372 582.981 166.477 584.784L166.752 584.947L167.178 585.197L167.391 585.323L167.791 585.56C168.793 586.124 169.782 586.712 170.784 587.313L170.145 588.202C166.875 586.738 163.72 585.03 160.705 583.094L160.517 582.969C160.217 582.794 159.916 582.606 159.641 582.418L158.564 581.717L156.06 579.989C151.036 576.748 146.413 572.924 142.288 568.596L141.975 568.22C141.923 568.172 141.877 568.117 141.838 568.057C141.749 567.979 141.669 567.891 141.6 567.795L141.237 567.369L140.611 566.58L140.435 566.342C137.323 562.043 134.512 557.533 132.022 552.846C131.546 552.019 131.083 551.181 130.62 550.342L129.843 548.939C129.468 548.238 129.092 547.512 128.704 546.811C128.699 546.786 128.699 546.761 128.704 546.736C126.914 543.393 125.198 540 123.396 536.72C123.295 536.57 123.496 536.419 123.583 536.582Z" fill="#455A64"/>
<path d="M211.67 509.693C208.94 507.953 154.315 436.313 153.877 432.37C153.802 431.919 167.724 421.565 167.724 421.565C173.196 417.095 226.844 388.011 226.844 388.011L262.063 435.437L209.929 460.402C209.929 460.402 213.685 473.072 216.402 484.49C218.117 491.527 219.495 497.724 219.52 499.389C219.582 503.784 214.424 511.433 211.67 509.693Z" fill="#F4F4F4"/>
<path d="M211.67 509.681C208.94 507.953 154.315 436.326 153.877 432.37C153.802 431.919 167.724 421.565 167.724 421.565C169.527 420.113 176.488 415.969 185.152 411.073L219.332 455.895L209.929 460.402C209.929 460.402 213.685 473.072 216.402 484.503C218.117 491.539 219.507 497.737 219.52 499.402C219.582 503.784 214.424 511.434 211.67 509.681Z" fill="#EBEBEB"/>
<path d="M211.745 510.044C208.965 508.191 153.377 436.601 153.001 432.545C152.826 430.992 177.014 414.028 177.14 413.915L212.834 459.601L212.045 460.189C212.045 460.189 220.096 495.107 220.046 499.627C219.995 504.147 214.512 511.897 211.745 510.044Z" fill="#407BFF"/>
<path opacity="0.5" d="M211.745 510.044C208.965 508.191 153.377 436.601 153.001 432.545C152.826 430.992 177.014 414.028 177.14 413.915L212.834 459.601L212.045 460.189C212.045 460.189 220.096 495.107 220.046 499.627C219.995 504.147 214.512 511.897 211.745 510.044Z" fill="black"/>
<path d="M213.886 507.077C204.809 494.782 167.061 446.042 157.158 434.573C157.083 434.473 157.008 434.573 157.083 434.636C165.847 447.018 203.958 495.446 213.686 507.252C213.899 507.44 214.074 507.339 213.886 507.077Z" fill="#263238"/>
<path d="M215.726 462.868C212.921 457.435 207.688 452.189 201.491 451.175C201.24 451.175 201.19 451.488 201.365 451.6C206.359 455.003 210.975 458.927 215.137 463.307C215.202 463.363 215.284 463.395 215.37 463.398C215.455 463.401 215.539 463.375 215.608 463.324C215.677 463.273 215.726 463.2 215.747 463.117C215.769 463.034 215.761 462.947 215.726 462.868Z" fill="#263238"/>
<path d="M216.315 467.889C213.523 462.456 208.277 457.21 202.079 456.208C201.841 456.208 201.791 456.509 201.954 456.621C206.953 460.021 211.57 463.95 215.726 468.34C215.794 468.388 215.875 468.413 215.958 468.411C216.04 468.41 216.121 468.382 216.186 468.331C216.252 468.281 216.3 468.211 216.323 468.131C216.346 468.052 216.343 467.967 216.315 467.889Z" fill="#263238"/>
<path d="M216.915 472.922C214.111 467.488 208.877 462.242 202.68 461.241C202.442 461.241 202.392 461.541 202.555 461.654C207.548 465.06 212.165 468.989 216.327 473.373C216.394 473.42 216.475 473.445 216.558 473.444C216.641 473.442 216.721 473.414 216.787 473.364C216.853 473.314 216.901 473.243 216.924 473.164C216.947 473.084 216.944 473 216.915 472.922Z" fill="#263238"/>
<path d="M230.863 461.016C231.989 457.16 228.133 454.581 224.928 453.892C219.409 452.798 213.699 453.182 208.377 455.006C208.353 455.013 208.332 455.026 208.314 455.043C208.296 455.06 208.283 455.082 208.276 455.105C208.268 455.129 208.267 455.154 208.271 455.178C208.276 455.202 208.286 455.225 208.302 455.244C208.196 455.31 208.108 455.403 208.048 455.512C207.987 455.622 207.955 455.745 207.955 455.87C207.955 455.995 207.987 456.118 208.048 456.228C208.108 456.337 208.196 456.43 208.302 456.496C212.809 459.301 217.266 462.844 222.474 464.183C225.504 464.872 229.811 464.659 230.863 461.016ZM215.964 459.301C213.723 457.973 211.557 456.559 209.266 455.319C212.482 455.004 215.712 454.857 218.944 454.881C220.508 454.909 222.068 455.043 223.614 455.282C225.992 455.707 233.066 459.175 227.207 462.38C223.989 464.146 218.643 460.878 215.964 459.301Z" fill="#263238"/>
<path d="M200.251 441.973C201.616 447.181 205.259 451.613 208.026 456.083C208.093 456.189 208.185 456.276 208.294 456.337C208.404 456.397 208.527 456.429 208.652 456.429C208.777 456.429 208.9 456.397 209.01 456.337C209.119 456.276 209.212 456.189 209.278 456.083C209.299 456.098 209.322 456.108 209.347 456.112C209.372 456.117 209.398 456.115 209.422 456.108C209.447 456.101 209.469 456.088 209.487 456.07C209.506 456.053 209.52 456.031 209.529 456.007C211.303 450.673 211.649 444.966 210.53 439.456C209.804 436.251 207.2 432.42 203.356 433.572C199.663 434.623 199.45 438.93 200.251 441.973ZM201.966 437.202C205.122 431.331 208.652 438.379 209.09 440.758C209.342 442.299 209.489 443.855 209.529 445.416C209.566 448.65 209.441 451.884 209.153 455.106C207.901 452.815 206.461 450.661 205.122 448.433C203.531 445.766 200.226 440.445 201.966 437.202Z" fill="#263238"/>
<path d="M214.674 461.742L176.213 412.288C176.213 412.288 289.657 354.12 289.982 346.72C290.145 342.964 250.231 308.096 242.544 285.76C237.636 271.475 249.405 252.395 249.405 252.395L307.861 250.729C307.861 250.729 305.482 275.018 306.12 278.123C306.521 280.189 364.964 346.057 355.186 370.934C343.13 401.37 214.674 461.742 214.674 461.742Z" fill="#37474F"/>
<path d="M223.076 454.317C222.262 452.765 212.934 439.293 210.781 436.301C206.437 430.367 202.08 424.432 197.635 418.585C195.306 415.53 190.348 408.97 189.96 408.695C189.922 408.671 189.877 408.661 189.832 408.666C189.787 408.672 189.746 408.692 189.714 408.724C189.682 408.756 189.662 408.797 189.657 408.842C189.651 408.886 189.661 408.932 189.685 408.97C193.679 415.092 197.91 421.052 202.13 427.024C206.349 432.996 221.26 452.99 222.738 454.568C222.938 454.655 223.188 454.543 223.076 454.317Z" fill="#263238"/>
<path d="M303.253 586.479C300.224 585.314 233.304 528.474 232.09 524.692C231.864 522.915 238.225 513.6 246.5 502.319L273.018 446.518L316.838 482.112L291.798 538.515C291.798 538.515 297.958 550.196 302.94 560.838C306.02 567.398 308.612 573.195 308.963 574.823C309.789 579.117 306.258 587.656 303.253 586.479Z" fill="#F4F4F4"/>
<path d="M304.606 587.668C301.488 586.416 231.865 528.423 230.625 524.529C230.124 523.064 237.974 512.447 247.828 499.877C247.94 499.752 248.041 499.614 248.141 499.489L293.476 536.436L292.825 537.174C292.825 537.174 309.551 571.291 310.478 575.711C311.404 580.131 307.711 588.895 304.606 587.668Z" fill="#407BFF"/>
<path opacity="0.5" d="M304.606 587.668C301.488 586.416 231.865 528.423 230.625 524.529C230.124 523.064 237.974 512.447 247.828 499.877C247.94 499.752 248.041 499.614 248.141 499.489L293.476 536.436L292.825 537.174C292.825 537.174 309.551 571.291 310.478 575.711C311.404 580.131 307.711 588.895 304.606 587.668Z" fill="black"/>
<path d="M306.058 584.312C294.564 574.296 247.214 534.708 235.119 525.631C235.019 525.556 234.969 525.631 235.119 525.706C246.3 535.935 293.963 575.085 305.957 584.55C306.158 584.713 306.295 584.538 306.058 584.312Z" fill="#263238"/>
<path d="M298.371 540.73C294.477 536.01 288.23 531.966 281.97 532.354C281.719 532.354 281.744 532.718 281.97 532.793C287.555 535.036 292.885 537.869 297.87 541.244C297.941 541.28 298.022 541.293 298.101 541.279C298.18 541.266 298.253 541.229 298.309 541.171C298.365 541.114 298.401 541.04 298.412 540.961C298.423 540.882 298.409 540.801 298.371 540.73Z" fill="#263238"/>
<path d="M300.036 545.513C296.13 540.805 289.895 536.749 283.622 537.137C283.384 537.137 283.409 537.5 283.622 537.575C289.218 539.835 294.556 542.685 299.548 546.076C299.624 546.112 299.71 546.121 299.792 546.103C299.874 546.086 299.948 546.042 300.003 545.978C300.059 545.915 300.091 545.835 300.097 545.751C300.103 545.667 300.082 545.584 300.036 545.513Z" fill="#263238"/>
<path d="M301.688 550.296C297.794 545.588 291.56 541.532 285.287 541.932C285.049 541.932 285.062 542.283 285.287 542.37C290.89 544.618 296.233 547.464 301.225 550.859C301.301 550.895 301.386 550.905 301.468 550.887C301.55 550.869 301.624 550.824 301.677 550.759C301.731 550.694 301.761 550.613 301.763 550.529C301.765 550.445 301.738 550.363 301.688 550.296Z" fill="#263238"/>
<path d="M312.756 535.672C313.032 531.666 308.712 529.976 305.432 529.976C299.813 530.106 294.326 531.707 289.519 534.62C289.498 534.634 289.482 534.653 289.47 534.675C289.458 534.697 289.452 534.721 289.452 534.746C289.452 534.77 289.458 534.795 289.47 534.817C289.482 534.839 289.498 534.857 289.519 534.871C289.439 534.957 289.381 535.061 289.349 535.174C289.317 535.286 289.313 535.405 289.336 535.52C289.359 535.635 289.41 535.743 289.483 535.835C289.556 535.927 289.65 536 289.757 536.048C294.765 537.826 299.861 540.33 305.244 540.517C308.362 540.63 312.506 539.466 312.756 535.672ZM297.845 537.187C295.341 536.373 292.95 535.447 290.446 534.683C293.519 533.692 296.641 532.856 299.798 532.179C301.331 531.874 302.883 531.673 304.443 531.578C306.859 531.478 314.459 533.356 309.451 537.738C306.709 540.204 300.787 538.151 297.845 537.187Z" fill="#263238"/>
<path d="M278.789 523.628C281.293 528.423 285.687 531.991 289.406 535.747C289.494 535.824 289.6 535.878 289.713 535.905C289.826 535.933 289.945 535.934 290.058 535.907C290.172 535.88 290.278 535.826 290.367 535.751C290.456 535.675 290.525 535.58 290.57 535.472C290.594 535.482 290.62 535.486 290.646 535.484C290.671 535.482 290.696 535.474 290.718 535.461C290.74 535.447 290.759 535.429 290.772 535.407C290.786 535.385 290.794 535.36 290.796 535.334C291.387 529.74 290.498 524.088 288.217 518.945C286.839 515.978 283.471 512.786 279.953 514.739C276.636 516.579 277.349 520.823 278.789 523.628ZM279.44 518.62C281.268 512.21 286.213 518.345 287.152 520.573C287.733 522.023 288.21 523.513 288.58 525.03C289.313 528.179 289.886 531.363 290.295 534.57C288.58 532.605 286.714 530.814 284.924 528.911C282.808 526.633 278.438 522.138 279.44 518.595V518.62Z" fill="#263238"/>
<path d="M297.331 540.417L246.538 498.425C246.538 498.425 296.029 394.146 296.242 386.046C296.518 375.254 236.797 331.271 231.288 297.555C228.572 280.991 238.951 252.683 238.951 252.683L304.192 250.78C304.192 250.78 305.119 269.184 301.463 278.987C300.774 280.828 295.892 282.931 295.892 282.931C295.892 282.931 355.061 356.261 356.851 391.492C358.053 415.268 297.331 540.417 297.331 540.417Z" fill="#37474F"/>
<path d="M304.981 277.297C303.25 277.808 301.572 278.487 299.973 279.326C298.304 280.16 296.66 281.045 295.04 281.98C291.886 283.892 288.843 285.982 285.926 288.24C285.906 288.253 285.892 288.274 285.887 288.297C285.883 288.321 285.888 288.345 285.901 288.365C285.914 288.385 285.935 288.399 285.958 288.403C285.982 288.408 286.006 288.403 286.026 288.39C289.156 286.412 292.411 284.634 295.666 282.869L300.374 280.365C302.003 279.59 303.587 278.725 305.119 277.773C305.357 277.623 305.219 277.235 304.981 277.297Z" fill="#263238"/>
<path d="M302.903 259.143C302.314 262.398 301.826 265.679 301.125 268.921C300.799 270.411 300.486 271.926 300.036 273.378C299.647 274.63 299.034 276.008 297.669 276.371C296.092 276.784 295.541 275.457 295.591 274.13C295.681 272.64 295.852 271.156 296.104 269.685C296.317 268.007 296.542 266.317 296.743 264.677C296.83 263.826 297.406 259.857 297.419 259.807C297.431 259.757 297.419 259.644 297.319 259.569C297.296 259.554 297.27 259.547 297.244 259.547C297.217 259.547 297.191 259.554 297.168 259.569C296.716 260.663 296.393 261.806 296.204 262.974C295.866 264.539 295.541 266.104 295.253 267.682C294.965 269.259 294.689 270.824 294.414 272.389C294.093 273.563 294.071 274.799 294.351 275.983C294.532 276.54 294.888 277.024 295.367 277.363C295.845 277.701 296.42 277.876 297.006 277.861L296.855 278.186C296.743 278.512 296.668 278.85 296.567 279.188C296.467 279.526 296.38 279.864 296.305 280.214C296.292 280.381 296.292 280.549 296.305 280.715C296.305 280.903 296.305 281.078 296.305 281.266C296.293 281.33 296.305 281.396 296.338 281.451C296.372 281.507 296.425 281.548 296.487 281.566C296.55 281.585 296.616 281.58 296.675 281.552C296.734 281.525 296.78 281.476 296.805 281.416C296.88 281.241 296.993 281.103 297.081 280.941C297.169 280.767 297.233 280.581 297.269 280.39C297.356 280.064 297.431 279.739 297.494 279.401C297.557 279.063 297.632 278.737 297.669 278.412C297.682 278.211 297.682 278.011 297.669 277.811C298.338 277.704 298.965 277.418 299.485 276.984C300.338 276.147 300.933 275.082 301.2 273.917C301.601 272.552 301.876 271.15 302.164 269.748C302.916 266.305 303.364 262.802 303.504 259.281C303.522 259.201 303.508 259.118 303.464 259.048C303.421 258.979 303.352 258.93 303.272 258.912C303.192 258.893 303.109 258.907 303.039 258.951C302.97 258.994 302.921 259.064 302.903 259.143Z" fill="#263238"/>
<path d="M299.585 526.983C298.364 525.71 297.077 524.502 295.729 523.365L291.572 519.609C288.818 517.205 286.042 514.831 283.246 512.485C277.587 507.79 271.903 503.108 266.156 498.513C263.164 496.122 256.754 491.001 256.316 490.788C256.273 490.762 256.221 490.753 256.171 490.765C256.122 490.777 256.079 490.808 256.053 490.851C256.026 490.894 256.018 490.946 256.03 490.995C256.041 491.044 256.072 491.087 256.115 491.114C261.499 496.059 267.058 500.804 272.617 505.562C278.176 510.319 283.722 515.052 289.431 519.597C291.009 520.849 292.611 522.101 294.201 523.353C295.838 524.723 297.543 526.01 299.309 527.209C299.485 527.347 299.748 527.159 299.585 526.983Z" fill="#263238"/>
<path d="M295.929 390.34C296.756 388.274 297.745 386.146 297.044 383.905C296.342 381.663 277.012 360.793 274.871 358.389C274.77 358.276 274.583 358.389 274.683 358.527C276.486 360.617 293.601 380.8 294.903 382.878C295.487 383.725 295.805 384.728 295.817 385.758C295.657 387.037 295.285 388.281 294.715 389.438L291.798 396.8C289.807 401.733 287.829 406.653 285.763 411.561C283.422 417.108 281.106 423.03 278.539 428.476C278.339 428.901 278.965 429.139 279.19 428.751C284.574 419.048 294.89 392.906 295.929 390.34Z" fill="#263238"/>
<path d="M295.891 282.931C305.006 292.296 316.875 310.287 324.312 321.017C331.806 331.846 338.501 343.207 344.344 355.009C347.612 361.644 350.504 368.418 353.233 375.291C353.233 375.429 353.07 375.491 353.02 375.354C347.848 363.272 341.892 351.541 335.192 340.235C328.569 328.967 301.663 289.554 295.19 283.495C294.89 283.169 295.553 282.581 295.891 282.931Z" fill="#263238"/>
<path d="M272.805 261.597C272.805 261.459 272.592 261.484 272.567 261.597C271.854 266.855 271.441 272.314 268.899 277.097C266.57 281.479 262.501 284.308 258.069 286.287C255.488 287.392 252.851 288.361 250.169 289.191C249.981 289.254 250.019 289.554 250.232 289.517C255.24 288.465 260.373 287.288 264.755 284.509C269.437 281.479 271.841 276.646 272.617 271.225C273.013 268.031 273.076 264.804 272.805 261.597Z" fill="#263238"/>
<path d="M279.052 187.228C303.266 180.968 333.802 168.949 339.799 160.047C344.644 152.873 349.101 114.362 349.277 112.296C349.665 107.175 316.136 99.1627 315.473 104.621C314.559 111.808 313.595 143.058 311.779 144.911C309.964 146.764 294.539 158.758 276.773 172.267C264.491 181.594 264.04 191.072 279.052 187.228Z" fill="#D3766A"/>
<path d="M314.959 110.08C314.433 97.2092 315.235 82.7486 322.647 71.2677C323.441 69.9673 324.649 68.971 326.077 68.4382C329.307 63.2174 332.738 63.1798 332.738 63.1798C337.245 59.236 340.763 59.6742 340.763 59.6742C340.763 59.6742 344.619 53.5895 348.688 55.3047C353.258 57.2328 346.935 65.3959 346.184 72.019C344.532 87.1932 346.184 111.444 346.184 115.839L314.959 110.08Z" fill="#D3766A"/>
<path d="M333.326 86.6427C333.758 82.1988 334.494 77.7898 335.53 73.4466C336.964 68.7662 338.738 64.1968 340.838 59.7748C340.844 59.7481 340.841 59.7204 340.829 59.6957C340.818 59.6711 340.798 59.6508 340.774 59.6381C340.75 59.6253 340.723 59.6208 340.696 59.6251C340.669 59.6295 340.644 59.6424 340.625 59.6621C335.703 67.7912 333.105 77.1146 333.113 86.6176C333.113 86.8305 333.301 86.8681 333.326 86.6427Z" fill="black"/>
<path d="M324.037 86.9681C324.838 82.6612 326.29 75.1116 332.901 63.1801C332.901 63.1801 332.901 63.0924 332.826 63.1801C327.673 70.119 324.556 78.3564 323.824 86.9681C323.799 87.2059 323.974 87.256 324.037 86.9681Z" fill="black"/>
<path d="M319.029 87.0554C320.669 79.7813 322.622 75.4118 326.115 68.4257C326.115 68.4257 326.115 68.338 326.04 68.4257C321.245 75.9377 320.356 79.2304 318.779 87.0805C318.716 87.2933 318.966 87.3309 319.029 87.0554Z" fill="black"/>
<path d="M345.371 90.3861C345.934 92.4519 347.024 92.164 348.501 88.6584C349.978 85.1528 352.833 70.0536 358.016 71.4934C363.2 72.9332 357.904 93.8041 355.963 99.8387C353.827 106.157 350.262 111.898 345.546 116.616C345.559 112.309 345.446 98.8371 345.371 90.3861Z" fill="#D3766A"/>
<path d="M314.221 106.8L353.884 119.107C353.884 119.107 344.256 158.382 337.759 163.816C331.261 169.25 298.108 183.71 280.167 187.328C262.225 190.947 265.543 181.719 274.332 173.556C283.121 165.393 310.578 144.898 310.953 144.21C311.329 143.521 314.221 106.8 314.221 106.8Z" fill="#263238"/>
<path d="M344.945 125.429C343.618 124.966 342.304 124.465 340.964 124.04L332.613 121.373C329.834 120.488 327.042 119.62 324.237 118.769C321.445 117.917 318.591 117.166 315.811 116.265C315.686 116.265 315.611 116.415 315.736 116.452C318.478 117.467 321.17 118.606 323.924 119.595C326.679 120.584 329.546 121.548 332.388 122.45C335.23 123.351 337.972 124.165 340.776 124.954C342.191 125.354 343.631 125.667 345.046 126.03C346.46 126.393 347.787 126.781 349.19 127.032C349.206 127.025 349.22 127.014 349.23 127C349.24 126.985 349.245 126.968 349.245 126.95C349.245 126.933 349.24 126.916 349.23 126.901C349.22 126.887 349.206 126.876 349.19 126.869C347.825 126.343 346.373 125.918 344.945 125.429Z" fill="#37474F"/>
<path d="M304.593 179.716C296.651 182.868 288.481 185.413 280.154 187.329C262.188 190.947 265.518 181.72 274.307 173.557C276.348 171.679 279.378 169.124 282.871 166.295L304.593 179.716Z" fill="#37474F"/>
<path d="M227.257 275.156L309.751 269.359C309.751 269.359 303.491 211.492 286.84 172.054C281.932 160.385 266.808 158.157 256.879 172.142C235.896 201.601 227.319 276.27 227.257 275.156Z" fill="#EBEBEB"/>
<path d="M266.057 164.091C266.057 164.091 272.041 195.078 274.107 217.276C276.874 246.924 310.177 388.174 298.771 405.677C288.18 421.953 194.993 374.953 194.993 374.953C194.993 374.953 218.105 313.931 218.781 303.789C219.332 294.512 231.89 177.701 266.057 164.091Z" fill="#263238"/>
<path d="M223.363 309.348C224.077 309.348 225.805 290.994 222.111 288.215C218.418 285.435 210.255 290.844 210.18 296.127C210.18 300.747 221.297 309.311 223.363 309.348Z" fill="#407BFF"/>
<path opacity="0.1" d="M222.475 308.722C222.913 309.023 216.44 292.772 211.72 293.799C210.167 294.149 208.014 298.819 222.475 308.722Z" fill="black"/>
<path opacity="0.1" d="M223.264 309.273C222.938 308.835 239.364 314.932 238.438 319.665C238.137 321.23 233.505 323.471 223.264 309.273Z" fill="black"/>
<path d="M220.043 305.668L207.672 319.192L213.215 324.263L225.586 310.738L220.043 305.668Z" fill="#407BFF"/>
<path d="M250.607 173.657C241.217 179.128 211.795 208.036 207.726 219.43C203.094 232.576 203.269 267.294 202.555 274.042C202.042 278.875 238.75 285.573 240.829 280.953C243.746 274.493 237.987 238.56 237.912 228.031C237.912 223.974 256.629 193.576 260.923 186.001C269.662 170.652 261.086 167.559 250.607 173.657Z" fill="#D3766A"/>
<path d="M240.866 271.638C240.866 271.638 247.452 293.548 239.927 314.644C237.749 320.779 222.8 344.004 217.053 340.598C211.857 337.506 226.919 319.014 226.919 319.014C226.919 319.014 213.372 339.046 207.788 334.15C202.204 329.255 222.011 310.65 222.011 310.65C222.011 310.65 207.625 330.908 202.668 324.973C198.912 320.491 215.901 302.6 215.901 302.6C215.901 302.6 203.381 319.915 199.375 315.47C194.893 310.563 209.528 293.072 209.528 293.072C201.128 280.051 201.466 270.987 204.52 263.5C205.197 261.935 240.866 271.638 240.866 271.638Z" fill="#D3766A"/>
<path d="M232.052 312.391C230.537 314.794 229.035 317.248 227.319 319.514C225.604 321.781 223.801 323.984 221.886 326.087C219.431 328.871 216.667 331.367 213.647 333.524C218.731 329.305 224.991 321.292 226.706 319.026C228.421 316.76 230.249 314.582 231.964 312.328C232.002 312.265 232.077 312.341 232.052 312.391Z" fill="#37474F"/>
<path d="M223.977 306.056C221.923 309.035 219.995 312.09 217.804 314.982C215.613 317.875 213.297 320.429 210.931 323.158C210.743 323.358 210.693 323.158 210.931 322.983C213.197 320.153 215.062 317.374 217.291 314.519C219.519 311.665 221.861 308.91 223.977 305.993C223.939 305.956 224.014 306.006 223.977 306.056Z" fill="#37474F"/>
<path d="M218.03 299.357C214.988 304.023 211.473 308.361 207.538 312.303C207.35 312.503 207.313 312.303 207.538 312.065C211.106 307.833 213.936 304.553 217.917 299.257C217.93 299.182 218.092 299.257 218.03 299.357Z" fill="#37474F"/>
<path d="M243.395 273.441L199.763 270.223C199.763 270.223 203.393 222.522 207.663 215.298C211.932 208.074 230.199 188.468 246.875 175.071C263.552 161.675 269.787 170.289 261.899 185.626C254.012 200.963 239.977 224.876 239.501 226.691C239.025 228.507 243.395 273.441 243.395 273.441Z" fill="#263238"/>
<path d="M239.314 263.725C239.49 263.725 239.49 263.563 239.314 263.538C233.505 262.686 227.583 262.286 221.786 261.772C218.882 261.534 215.99 261.297 213.022 261.084L208.665 260.771C207.273 260.621 205.87 260.583 204.471 260.658C204.346 260.658 204.358 260.796 204.471 260.821C205.777 261.114 207.104 261.307 208.44 261.397L212.784 261.81C215.752 262.073 218.719 262.336 221.686 262.574C227.558 263.037 233.455 263.613 239.314 263.725Z" fill="#37474F"/>
<path d="M242.519 264.326C241.004 252.044 239.677 239.649 238.926 227.292V226.641L239.126 225.94C241.879 220.121 244.934 214.45 248.278 208.95C251.521 203.429 254.814 197.945 258.294 192.562C256.028 196.781 251.433 205.207 249.117 209.401C246.513 214.321 242.406 221.232 240.353 226.278L240.203 226.729C240.203 227.279 240.203 227.88 240.203 228.456C240.203 229.984 240.566 234.04 240.666 235.618C241.305 244.131 242.131 255.8 242.582 264.326H242.519Z" fill="#37474F"/>
<path d="M254.075 199.723C255.543 198.341 256.915 196.86 258.182 195.291C257.889 196.298 257.365 197.223 256.652 197.992C255.939 198.762 255.057 199.354 254.075 199.723Z" fill="#37474F"/>
<path d="M282.646 165.481C282.646 165.481 292.311 204.894 295.166 214.096C298.02 223.298 309.751 269.359 309.751 269.359C309.751 269.359 303.253 185.438 282.646 165.481Z" fill="#263238"/>
<path d="M279.954 178.289C275.747 179.165 267.196 174.007 264.392 167.972C264.204 167.559 265.093 163.377 265.932 158.257C266.432 155.152 266.921 151.671 267.121 148.466C267.121 147.815 286.89 154.726 286.89 154.726C285.48 158.656 284.556 162.742 284.136 166.896C284.118 167.339 284.139 167.783 284.198 168.223C284.198 168.223 284.198 168.348 284.198 168.436C284.449 170.914 284.436 177.362 279.954 178.289Z" fill="#D3766A"/>
<path d="M284.198 168.148C284.204 168.218 284.204 168.29 284.198 168.36C283.514 168.416 282.828 168.416 282.144 168.36C270.338 167.321 268.185 152.31 267.834 148.529C271.365 149.267 286.889 154.676 286.889 154.676C285.48 158.606 284.555 162.692 284.135 166.846C284.119 167.281 284.14 167.716 284.198 168.148Z" fill="#263238"/>
<path d="M257.017 131.915C257.18 139.427 267.208 157.781 273.468 160.561C282.545 164.592 294.189 161.424 296.806 151.258C299.31 141.392 285.838 117.642 279.153 115.438C269.262 112.208 256.742 120.897 257.017 131.915Z" fill="#D3766A"/>
<path d="M279.804 137.374C279.804 137.374 279.804 137.486 279.804 137.536C280.53 138.788 281.143 140.328 280.229 141.367C281.531 140.478 280.693 138.438 279.804 137.374Z" fill="#263238"/>
<path d="M278.026 136.66C275.91 137.599 277.951 141.768 279.917 140.904C281.882 140.04 279.741 135.871 278.026 136.66Z" fill="#263238"/>
<path d="M287.391 133.931C287.391 133.931 287.516 133.931 287.541 133.931C288.129 135.183 289.031 136.648 290.408 136.51C290.408 136.51 290.483 136.51 290.408 136.585C288.906 137.148 287.741 135.27 287.391 133.931Z" fill="#263238"/>
<path d="M287.879 132.015C289.882 130.851 292.086 134.932 290.233 136.021C288.38 137.111 286.201 133.004 287.879 132.015Z" fill="#263238"/>
<path d="M275.384 135.596C275.885 135.17 276.273 134.707 276.723 134.244C277.262 133.829 277.65 133.248 277.825 132.591C277.84 132.374 277.783 132.159 277.663 131.978C277.543 131.797 277.367 131.66 277.162 131.589C276.735 131.519 276.297 131.561 275.891 131.71C275.485 131.859 275.125 132.111 274.845 132.441C274.183 133.036 273.768 133.858 273.681 134.744C273.671 134.946 273.72 135.146 273.821 135.321C273.923 135.495 274.073 135.636 274.254 135.727C274.435 135.817 274.638 135.853 274.838 135.829C275.039 135.806 275.229 135.725 275.384 135.596Z" fill="#263238"/>
<path d="M289.582 130.275C289.006 130.6 288.43 130.8 287.841 131.063C287.265 131.419 286.589 131.582 285.913 131.527C285.707 131.466 285.526 131.338 285.399 131.164C285.272 130.99 285.206 130.778 285.212 130.563C285.282 130.133 285.468 129.731 285.751 129.399C286.033 129.068 286.401 128.821 286.815 128.685C287.583 128.278 288.474 128.166 289.319 128.372C289.514 128.428 289.689 128.54 289.822 128.694C289.955 128.847 290.04 129.036 290.068 129.238C290.096 129.439 290.065 129.644 289.978 129.828C289.892 130.012 289.754 130.167 289.582 130.275Z" fill="#263238"/>
<path d="M283.936 145.411C284.512 145.764 285.157 145.994 285.827 146.084C286.497 146.175 287.179 146.125 287.829 145.937C288.402 145.782 288.95 145.546 289.457 145.236C289.555 145.188 289.647 145.129 289.732 145.061C289.82 145.061 289.908 144.948 289.995 144.873C290.056 144.825 290.101 144.76 290.123 144.686C290.146 144.612 290.145 144.533 290.12 144.46C290.103 144.414 290.078 144.371 290.045 144.334L289.983 144.222C289.519 143.22 288.731 141.718 288.731 141.718C289.181 141.718 291.435 141.643 291.16 141.142C288.847 136.704 286.096 132.51 282.946 128.622C282.924 128.599 282.894 128.584 282.862 128.581C282.83 128.577 282.798 128.585 282.771 128.603C282.745 128.621 282.725 128.648 282.716 128.679C282.706 128.709 282.708 128.743 282.721 128.772C284.837 132.879 287.654 136.585 289.832 140.666C289.026 140.688 288.226 140.819 287.454 141.054C287.328 141.167 289.119 143.859 289.282 144.334C288.509 144.815 287.646 145.133 286.747 145.271C285.847 145.409 284.929 145.363 284.048 145.136C283.873 145.211 283.81 145.349 283.936 145.411Z" fill="#263238"/>
<path d="M288.618 145.023C288.432 145.996 288.001 146.905 287.366 147.665C287.003 148.066 286.519 148.338 285.989 148.441C284.824 148.679 284.336 147.74 284.123 146.839C284.023 146.357 283.977 145.866 283.985 145.374C285.528 145.75 287.149 145.627 288.618 145.023Z" fill="#263238"/>
<path d="M287.316 147.665C286.953 148.066 286.47 148.338 285.939 148.441C284.774 148.679 284.286 147.74 284.073 146.839C284.628 146.593 285.25 146.54 285.838 146.69C286.426 146.84 286.947 147.183 287.316 147.665Z" fill="#FF9CBD"/>
<path d="M262.251 148.767C267.346 146.701 267.046 139.552 263.578 135.383C263.578 135.383 277.55 130.7 273.018 119.845C274.78 120.781 276.73 121.309 278.724 121.389C280.718 121.469 282.704 121.1 284.536 120.309L287.24 123.576C288.392 122.525 287.954 117.992 283.197 116.603C283.197 116.603 280.392 111.457 274.983 110.205C273.499 109.818 271.934 109.865 270.475 110.343C269.017 110.82 267.726 111.707 266.758 112.897C263.661 112.368 260.48 113.059 257.881 114.825C256.54 115.773 255.445 117.027 254.687 118.484C253.929 119.941 253.53 121.558 253.524 123.201C253.524 123.201 247.627 127.62 248.779 132.779C249.068 134.247 249.664 135.638 250.527 136.862C251.39 138.085 252.5 139.112 253.787 139.877C253.787 139.877 253.036 142.482 255.803 146.025C257.593 148.291 260.711 149.368 262.251 148.767Z" fill="#263238"/>
<path d="M272.279 119.057C272.777 119.849 273.196 120.687 273.531 121.561C273.885 122.451 274.133 123.38 274.27 124.328C274.549 126.172 274.125 128.053 273.08 129.598C271.967 131.11 270.513 132.336 268.836 133.179C267.972 133.567 267.133 134.031 266.244 134.431C265.355 134.832 264.441 135.07 263.54 135.433C264.479 135.22 265.406 134.97 266.345 134.744C267.284 134.519 268.16 134.056 269.074 133.705C270.879 132.882 272.449 131.621 273.644 130.037C274.753 128.345 275.161 126.289 274.783 124.303C274.403 122.371 273.542 120.567 272.279 119.057Z" fill="#263238"/>
<path d="M282.019 121.824C280.351 122.038 278.658 121.97 277.011 121.623C276.204 121.447 275.425 121.16 274.695 120.772C273.94 120.372 273.234 119.885 272.592 119.32C273.052 120.074 273.666 120.723 274.395 121.223C275.15 121.741 276.001 122.103 276.899 122.287C277.769 122.485 278.665 122.54 279.553 122.45C280.404 122.38 281.238 122.169 282.019 121.824Z" fill="#263238"/>
<path d="M280.154 146.964C278.96 147.374 277.675 147.442 276.445 147.158C275.214 146.875 274.088 146.251 273.194 145.36C272.3 144.468 271.674 143.343 271.388 142.113C271.101 140.884 271.166 139.598 271.573 138.403C271.981 137.208 272.716 136.151 273.694 135.353C274.673 134.555 275.856 134.047 277.108 133.888C278.361 133.729 279.633 133.924 280.78 134.451C281.927 134.979 282.903 135.818 283.597 136.873C284.576 138.368 284.922 140.19 284.561 141.941C284.2 143.691 283.16 145.227 281.669 146.213C281.197 146.525 280.689 146.777 280.154 146.964ZM276.048 135.045C275.609 135.213 275.189 135.427 274.796 135.683C273.557 136.516 272.682 137.791 272.351 139.247C272.02 140.703 272.257 142.23 273.014 143.517C273.771 144.804 274.991 145.753 276.424 146.171C277.858 146.589 279.397 146.444 280.727 145.766C282.057 145.088 283.078 143.927 283.581 142.521C284.084 141.116 284.032 139.571 283.435 138.202C282.838 136.834 281.741 135.745 280.368 135.158C278.995 134.571 277.45 134.531 276.048 135.045Z" fill="#407BFF"/>
<path d="M294.076 140.165C291.635 141.004 288.567 139.264 287.027 136.096C286.276 134.591 286.009 132.889 286.264 131.226C286.331 130.505 286.584 129.814 286.998 129.219C287.411 128.624 287.971 128.147 288.623 127.832C289.276 127.517 289.998 127.376 290.721 127.422C291.444 127.469 292.142 127.701 292.749 128.096C294.214 128.929 295.383 130.198 296.092 131.727C297.707 135.082 296.981 138.788 294.489 139.99L294.076 140.165ZM289.293 128.509L288.968 128.647C288.462 128.92 288.028 129.311 287.704 129.785C287.379 130.26 287.173 130.806 287.102 131.376C286.879 132.853 287.12 134.362 287.791 135.696C289.193 138.6 291.998 140.165 294.051 139.176C296.104 138.187 296.555 135.02 295.228 132.115C294.6 130.759 293.568 129.631 292.273 128.885C291.829 128.621 291.335 128.451 290.822 128.386C290.31 128.322 289.789 128.364 289.293 128.509Z" fill="#407BFF"/>
<path d="M283.735 137.674L282.908 137.299C283.459 136.047 285.087 134.006 287.34 134.882L287.015 135.721C284.999 134.945 283.785 137.561 283.735 137.674Z" fill="#407BFF"/>
<path d="M258.707 151.934H257.793C257.793 151.509 257.968 147.79 259.633 146.626C261.299 145.461 271.29 141.618 271.765 141.48L272.078 142.331C268.014 143.775 264.035 145.447 260.159 147.339C259.045 148.116 258.732 150.92 258.707 151.934Z" fill="#407BFF"/>
<path d="M267.334 146.476C267.334 146.476 260.723 141.73 258.42 144.297C256.116 146.864 262.627 154.826 266.42 154.901C266.906 154.944 267.395 154.888 267.859 154.736C268.322 154.584 268.75 154.34 269.116 154.018C269.482 153.697 269.78 153.304 269.99 152.864C270.2 152.424 270.319 151.946 270.339 151.458L267.334 146.476Z" fill="#D3766A"/>
<path d="M260.348 146.538V146.626C263.027 146.751 265.03 148.504 266.695 150.457C266.475 150.27 266.217 150.132 265.939 150.054C265.661 149.976 265.369 149.958 265.083 150.004C264.798 150.049 264.526 150.155 264.285 150.316C264.045 150.476 263.842 150.686 263.69 150.933C263.69 150.933 263.69 151.07 263.803 151.033C264.164 150.768 264.596 150.618 265.043 150.605C265.491 150.591 265.932 150.714 266.307 150.958C266.946 151.387 267.538 151.882 268.072 152.435C268.248 152.598 268.586 152.36 268.423 152.147C267.472 149.08 263.665 145.699 260.348 146.538Z" fill="#263238"/>
<path d="M284.286 165.831L280.104 177.963L264.567 163.666L260.623 168.674C260.623 168.674 276.273 191.861 276.311 190.771L280.705 180.28L288.142 187.053L286.665 169.174L284.286 165.831Z" fill="#EBEBEB"/>
<path d="M287.941 178.164C287.603 175.222 287.34 172.242 286.865 169.325C286.865 169.212 286.677 169.174 286.664 169.325C286.214 172.204 287.578 183.46 287.704 186.164C287.403 185.864 280.83 180.217 280.78 180.317C279.791 181.995 276.573 189.645 276.36 190.333C273.856 186.652 264.429 173.281 261.549 169.825C261.534 169.802 261.511 169.786 261.484 169.78C261.457 169.774 261.429 169.779 261.405 169.794C261.382 169.809 261.366 169.833 261.36 169.86C261.354 169.887 261.359 169.915 261.374 169.938C263.59 173.844 276.123 191.861 276.298 191.798C278.012 188.181 279.542 184.478 280.88 180.705C282.007 181.957 288.668 188.368 288.668 187.917C288.597 184.655 288.354 181.4 287.941 178.164Z" fill="#263238"/>
<path d="M117.499 149.952L123.434 148.863L124.761 142.603L126.088 148.863L132.022 149.965L126.113 151.405L124.761 157.314L123.408 151.405L117.499 149.952Z" fill="#407BFF"/>
<path d="M84.1582 348.419L90.0927 347.317L91.4198 341.07L92.7344 347.317L98.6689 348.419L92.7594 349.859L91.4198 355.768L90.0676 349.859L84.1582 348.419Z" fill="#407BFF"/>
<path d="M353.877 80.3785L359.811 79.2893L361.139 73.0293L362.453 79.2893L368.388 80.3911L362.491 81.8309L361.139 87.7403L359.786 81.8309L353.877 80.3785Z" fill="#407BFF"/>
<path d="M383.762 301.231L389.684 300.13L391.011 293.87L392.338 300.13L398.272 301.231L392.363 302.671L391.011 308.581L389.659 302.671L383.762 301.231Z" fill="#407BFF"/>
<path d="M199.154 437.124L205.089 436.022L206.416 429.774L207.743 436.022L213.678 437.124L207.768 438.563L206.416 444.473L205.064 438.563L199.154 437.124Z" fill="#407BFF"/>
<path d="M60.5205 292.931L63.8258 292.317L64.577 288.812L65.3157 292.317L68.6335 292.931L65.3282 293.732L64.577 297.037L63.8133 293.732L60.5205 292.931Z" fill="#407BFF"/>
<path d="M103.339 259.477L106.657 258.864L107.395 255.371L108.134 258.864L111.452 259.477L108.147 260.291L107.395 263.596L106.632 260.291L103.339 259.477Z" fill="#407BFF"/>
<path d="M195.086 99.8595L198.404 99.246L199.142 95.7529L199.881 99.246L203.199 99.8595L199.894 100.673L199.142 103.979L198.391 100.673L195.086 99.8595Z" fill="#407BFF"/>
<path d="M335.26 397.26L338.578 396.646L339.316 393.153L340.055 396.646L343.373 397.272L340.067 398.074L339.316 401.379L338.565 398.074L335.26 397.26Z" fill="#407BFF"/>
<path d="M320.874 191.819L324.192 191.205L324.93 187.712L325.682 191.205L328.999 191.819L325.694 192.633L324.93 195.938L324.179 192.633L320.874 191.819Z" fill="#407BFF"/>
<path d="M167.704 177.709L171.022 177.096L171.761 173.603L172.499 177.096L175.817 177.709L172.512 178.51L171.761 181.816L170.997 178.51L167.704 177.709Z" fill="#407BFF"/>
<path d="M411.694 263.596L415.012 262.983L415.751 259.477L416.489 262.983L419.807 263.596L416.502 264.397L415.751 267.703L414.987 264.397L411.694 263.596Z" fill="#407BFF"/>
<path d="M167.229 397.26L170.546 396.646L171.285 393.153L172.024 396.646L175.341 397.272L172.036 398.074L171.285 401.379L170.534 398.074L167.229 397.26Z" fill="#407BFF"/>
<path d="M196.814 157.402C197.069 157.402 197.315 157.3 197.495 157.119C197.676 156.939 197.778 156.693 197.778 156.438C197.778 156.182 197.676 155.937 197.495 155.756C197.315 155.575 197.069 155.474 196.814 155.474C196.558 155.474 196.313 155.575 196.132 155.756C195.951 155.937 195.85 156.182 195.85 156.438C195.85 156.693 195.951 156.939 196.132 157.119C196.313 157.3 196.558 157.402 196.814 157.402Z" fill="#407BFF"/>
<path d="M408.514 331.943C408.749 331.916 408.966 331.803 409.123 331.627C409.281 331.45 409.368 331.222 409.368 330.985C409.368 330.748 409.281 330.52 409.123 330.343C408.966 330.167 408.749 330.054 408.514 330.027C408.278 330.054 408.061 330.167 407.904 330.343C407.746 330.52 407.659 330.748 407.659 330.985C407.659 331.222 407.746 331.45 407.904 331.627C408.061 331.803 408.278 331.916 408.514 331.943Z" fill="#407BFF"/>
<path d="M257.635 182.792C257.891 182.792 258.136 182.691 258.317 182.51C258.497 182.329 258.599 182.084 258.599 181.828C258.599 181.573 258.497 181.327 258.317 181.147C258.136 180.966 257.891 180.864 257.635 180.864C257.379 180.864 257.134 180.966 256.953 181.147C256.772 181.327 256.671 181.573 256.671 181.828C256.671 182.084 256.772 182.329 256.953 182.51C257.134 182.691 257.379 182.792 257.635 182.792Z" fill="#407BFF"/>
<path d="M65.5038 225.097C65.7389 225.07 65.9559 224.958 66.1135 224.781C66.2711 224.605 66.3581 224.376 66.3581 224.139C66.3581 223.903 66.2711 223.674 66.1135 223.498C65.9559 223.321 65.7389 223.209 65.5038 223.182C65.2686 223.209 65.0516 223.321 64.894 223.498C64.7365 223.674 64.6494 223.903 64.6494 224.139C64.6494 224.376 64.7365 224.605 64.894 224.781C65.0516 224.958 65.2686 225.07 65.5038 225.097Z" fill="#407BFF"/>
<path d="M369.94 229.116C370.195 229.116 370.44 229.014 370.621 228.834C370.802 228.653 370.904 228.408 370.904 228.152C370.904 227.896 370.802 227.651 370.621 227.47C370.44 227.29 370.195 227.188 369.94 227.188C369.684 227.188 369.439 227.29 369.258 227.47C369.077 227.651 368.976 227.896 368.976 228.152C368.976 228.408 369.077 228.653 369.258 228.834C369.439 229.014 369.684 229.116 369.94 229.116Z" fill="#407BFF"/>
<path d="M146.52 350.335C146.756 350.308 146.973 350.196 147.13 350.019C147.288 349.842 147.375 349.614 147.375 349.377C147.375 349.141 147.288 348.912 147.13 348.735C146.973 348.559 146.756 348.446 146.52 348.419C146.285 348.446 146.068 348.559 145.911 348.735C145.753 348.912 145.666 349.141 145.666 349.377C145.666 349.614 145.753 349.842 145.911 350.019C146.068 350.196 146.285 350.308 146.52 350.335Z" fill="#407BFF"/>
<path d="M329.651 282.777C329.816 282.754 329.967 282.673 330.077 282.547C330.186 282.422 330.247 282.261 330.247 282.094C330.247 281.928 330.186 281.767 330.077 281.641C329.967 281.516 329.816 281.435 329.651 281.412C329.486 281.435 329.334 281.516 329.225 281.641C329.115 281.767 329.055 281.928 329.055 282.094C329.055 282.261 329.115 282.422 329.225 282.547C329.334 282.673 329.486 282.754 329.651 282.777Z" fill="#407BFF"/>
<path d="M237.529 93.537C237.694 93.5146 237.845 93.4331 237.955 93.3077C238.064 93.1822 238.125 93.0213 238.125 92.8547C238.125 92.6881 238.064 92.5272 237.955 92.4017C237.845 92.2763 237.694 92.1948 237.529 92.1724C237.364 92.1948 237.212 92.2763 237.103 92.4017C236.993 92.5272 236.933 92.6881 236.933 92.8547C236.933 93.0213 236.993 93.1822 237.103 93.3077C237.212 93.4331 237.364 93.5146 237.529 93.537Z" fill="#407BFF"/>
<path d="M135.816 179.036C135.995 179.036 136.167 178.965 136.294 178.838C136.421 178.711 136.492 178.539 136.492 178.36C136.492 178.181 136.421 178.009 136.294 177.882C136.167 177.755 135.995 177.684 135.816 177.684C135.636 177.684 135.464 177.755 135.338 177.882C135.211 178.009 135.14 178.181 135.14 178.36C135.14 178.539 135.211 178.711 135.338 178.838C135.464 178.965 135.636 179.036 135.816 179.036Z" fill="#407BFF"/>
<path d="M136.454 235.639C136.619 235.617 136.771 235.535 136.88 235.41C136.99 235.284 137.05 235.123 137.05 234.957C137.05 234.79 136.99 234.629 136.88 234.504C136.771 234.378 136.619 234.297 136.454 234.274C136.289 234.297 136.138 234.378 136.028 234.504C135.919 234.629 135.858 234.79 135.858 234.957C135.858 235.123 135.919 235.284 136.028 235.41C136.138 235.535 136.289 235.617 136.454 235.639Z" fill="#407BFF"/>
<path d="M323.153 304.912C323.641 304.912 324.109 304.718 324.454 304.373C324.799 304.028 324.993 303.56 324.993 303.072C324.993 302.584 324.799 302.116 324.454 301.77C324.109 301.425 323.641 301.231 323.153 301.231C322.665 301.231 322.197 301.425 321.852 301.77C321.506 302.116 321.312 302.584 321.312 303.072C321.312 303.56 321.506 304.028 321.852 304.373C322.197 304.718 322.665 304.912 323.153 304.912Z" fill="#407BFF"/>
<path d="M324.93 107.497C325.418 107.497 325.887 107.303 326.232 106.958C326.577 106.613 326.771 106.144 326.771 105.656C326.771 105.168 326.577 104.7 326.232 104.355C325.887 104.01 325.418 103.816 324.93 103.816C324.442 103.816 323.974 104.01 323.629 104.355C323.284 104.7 323.09 105.168 323.09 105.656C323.09 106.144 323.284 106.613 323.629 106.958C323.974 107.303 324.442 107.497 324.93 107.497Z" fill="#407BFF"/>
</g>
<defs>
<clipPath id="clip0_1332_2126">
<path d="M0 0H564V547C564 569.091 546.091 587 524 587H0V0Z" fill="white"/>
</clipPath>
</defs>
</svg>
