<svg width="360" height="372" viewBox="0 0 360 372" fill="none" xmlns="http://www.w3.org/2000/svg">
<path d="M164.88 160.947C163.758 163.77 162.782 164.81 160.365 166.57C160.32 166.606 160.365 166.684 160.411 166.652C162.933 165.142 164.351 164.016 165.017 160.997C165.053 160.846 164.935 160.815 164.88 160.947Z" fill="#263238"/>
<path d="M167.465 162.812C166.047 165.64 164.998 166.78 162.604 168.809C162.567 168.837 162.604 168.9 162.649 168.873C165.167 167.076 166.553 165.918 167.598 162.903C167.648 162.753 167.534 162.666 167.465 162.812Z" fill="#263238"/>
<path d="M169.928 165.311C168.355 167.952 167.256 169.251 164.679 170.92C164.669 170.93 164.662 170.942 164.66 170.956C164.658 170.969 164.66 170.983 164.667 170.995C164.674 171.007 164.685 171.016 164.698 171.021C164.711 171.026 164.726 171.026 164.739 171.021C167.53 169.571 168.911 167.961 170.006 165.37C170.079 165.193 170.047 165.147 169.928 165.311Z" fill="#263238"/>
<path d="M160.926 162.461C160.762 164.591 158.468 165.813 156.917 166.944C156.894 166.96 156.874 166.982 156.861 167.008C156.848 167.033 156.841 167.061 156.841 167.09C156.841 167.119 156.848 167.147 156.861 167.172C156.874 167.198 156.894 167.22 156.917 167.236C157.77 168.869 158.5 171.422 157.597 173.165C157.593 173.175 157.593 173.186 157.596 173.196C157.6 173.206 157.607 173.215 157.616 173.22C157.625 173.226 157.636 173.228 157.647 173.226C157.658 173.224 157.667 173.218 157.674 173.21C158.892 171.491 158.381 168.923 157.332 167.19C158.942 166.059 161.186 164.728 160.958 162.479L160.926 162.461Z" fill="#263238"/>
<path d="M178.789 146.609L198.267 174.738L224.504 180.539L231.039 184.575L210.311 211.796L211.082 246L178.789 234.699L146.492 246L139.957 241.969L147.263 211.796L126.535 184.575L159.302 174.738L172.254 142.573L178.789 146.609Z" fill="#FFC727"/>
<path opacity="0.1" d="M178.789 146.609L198.267 174.738L224.504 180.539L231.039 184.575L210.311 211.796L211.082 246L178.789 234.699L146.492 246L139.957 241.969L147.263 211.796L126.535 184.575L159.302 174.738L172.254 142.573L178.789 146.609Z" fill="black"/>
<path d="M172.254 142.573L191.736 170.702L224.504 180.539L203.776 207.76L204.547 241.969L172.254 230.663L139.957 241.969L140.727 207.76L120 180.539L152.772 170.702L172.254 142.573Z" fill="#FFC727"/>
<g opacity="0.2">
<path d="M140.376 223.353L140.727 207.76L136.235 201.859L181.771 156.323L191.732 170.702L192.726 171.003L140.376 223.353Z" fill="white"/>
<path d="M220.618 179.371L167.753 232.236L152.589 237.545L213.039 177.095L220.618 179.371Z" fill="white"/>
<path d="M137.07 175.413L125.163 187.32L120.903 181.729L122.992 179.64L137.07 175.413Z" fill="white"/>
<path d="M180.189 154.038L134.562 199.666L134.142 199.114L179.793 153.463L180.189 154.038Z" fill="white"/>
<path d="M204.205 226.791L193.05 237.946L192.334 237.695L204.182 225.847L204.205 226.791Z" fill="white"/>
</g>
<path d="M56.9785 76.9229L62.913 75.8336L64.2401 69.5736L65.5672 75.8336L71.5017 76.9354L65.5923 78.3752L64.2401 84.2846L62.888 78.3752L56.9785 76.9229Z" fill="#EEB211"/>
<path d="M23.6378 275.39L29.5722 274.288L30.8994 268.041L32.214 274.288L38.1484 275.39L32.239 276.83L30.8994 282.739L29.5472 276.83L23.6378 275.39Z" fill="#EEB211"/>
<path d="M293.356 7.34923L299.291 6.26L300.618 0L301.933 6.26L307.867 7.36176L301.97 8.80156L300.618 14.711L299.266 8.80156L293.356 7.34923Z" fill="#EEB211"/>
<path d="M323.241 228.202L329.163 227.1L330.49 220.84L331.818 227.1L337.752 228.202L331.843 229.642L330.49 235.551L329.138 229.642L323.241 228.202Z" fill="#EEB211"/>
<path d="M138.634 364.094L144.568 362.993L145.895 356.745L147.223 362.993L153.157 364.094L147.248 365.534L145.895 371.444L144.543 365.534L138.634 364.094Z" fill="#EEB211"/>
<path d="M0 219.901L3.30528 219.288L4.05648 215.782L4.79516 219.288L8.11295 219.901L4.80768 220.703L4.05648 224.008L3.29276 220.703L0 219.901Z" fill="#EEB211"/>
<path d="M42.8184 186.448L46.1362 185.834L46.8749 182.341L47.6136 185.834L50.9313 186.448L47.6261 187.262L46.8749 190.567L46.1112 187.262L42.8184 186.448Z" fill="#EEB211"/>
<path d="M134.565 26.8302L137.883 26.2167L138.622 22.7236L139.361 26.2167L142.678 26.8302L139.373 27.644L138.622 30.9493L137.871 27.644L134.565 26.8302Z" fill="#EEB211"/>
<path d="M274.739 324.231L278.057 323.617L278.796 320.124L279.534 323.617L282.852 324.243L279.547 325.044L278.796 328.35L278.045 325.044L274.739 324.231Z" fill="#EEB211"/>
<path d="M260.353 118.79L263.671 118.176L264.41 114.683L265.161 118.176L268.479 118.79L265.174 119.604L264.41 122.909L263.659 119.604L260.353 118.79Z" fill="#EEB211"/>
<path d="M107.184 104.68L110.502 104.066L111.24 100.573L111.979 104.066L115.297 104.68L111.991 105.481L111.24 108.786L110.476 105.481L107.184 104.68Z" fill="#EEB211"/>
<path d="M351.174 190.567L354.492 189.953L355.23 186.448L355.969 189.953L359.287 190.567L355.982 191.368L355.23 194.673L354.467 191.368L351.174 190.567Z" fill="#EEB211"/>
<path d="M106.708 324.23L110.026 323.617L110.764 320.124L111.503 323.617L114.821 324.243L111.516 325.044L110.764 328.35L110.013 325.044L106.708 324.23Z" fill="#EEB211"/>
<path d="M136.293 84.3724C136.549 84.3724 136.794 84.2708 136.975 84.0901C137.156 83.9093 137.257 83.6641 137.257 83.4084C137.257 83.1527 137.156 82.9075 136.975 82.7267C136.794 82.5459 136.549 82.4443 136.293 82.4443C136.037 82.4443 135.792 82.5459 135.611 82.7267C135.431 82.9075 135.329 83.1527 135.329 83.4084C135.329 83.6641 135.431 83.9093 135.611 84.0901C135.792 84.2708 136.037 84.3724 136.293 84.3724Z" fill="#EEB211"/>
<path d="M347.993 258.914C348.228 258.887 348.445 258.774 348.603 258.598C348.76 258.421 348.847 258.192 348.847 257.956C348.847 257.719 348.76 257.491 348.603 257.314C348.445 257.137 348.228 257.025 347.993 256.998C347.758 257.025 347.541 257.137 347.383 257.314C347.226 257.491 347.139 257.719 347.139 257.956C347.139 258.192 347.226 258.421 347.383 258.598C347.541 258.774 347.758 258.887 347.993 258.914Z" fill="#EEB211"/>
<path d="M197.114 109.763C197.37 109.763 197.615 109.661 197.796 109.481C197.977 109.3 198.078 109.055 198.078 108.799C198.078 108.543 197.977 108.298 197.796 108.117C197.615 107.937 197.37 107.835 197.114 107.835C196.859 107.835 196.614 107.937 196.433 108.117C196.252 108.298 196.15 108.543 196.15 108.799C196.15 109.055 196.252 109.3 196.433 109.481C196.614 109.661 196.859 109.763 197.114 109.763Z" fill="#EEB211"/>
<path d="M4.98326 152.068C5.21841 152.041 5.43543 151.928 5.59299 151.752C5.75054 151.575 5.83762 151.347 5.83762 151.11C5.83762 150.873 5.75054 150.645 5.59299 150.468C5.43543 150.292 5.21841 150.179 4.98326 150.152C4.74811 150.179 4.53109 150.292 4.37353 150.468C4.21598 150.645 4.12891 150.873 4.12891 151.11C4.12891 151.347 4.21598 151.575 4.37353 151.752C4.53109 151.928 4.74811 152.041 4.98326 152.068Z" fill="#EEB211"/>
<path d="M309.419 156.087C309.675 156.087 309.92 155.985 310.101 155.804C310.282 155.624 310.383 155.378 310.383 155.123C310.383 154.867 310.282 154.622 310.101 154.441C309.92 154.26 309.675 154.159 309.419 154.159C309.164 154.159 308.918 154.26 308.738 154.441C308.557 154.622 308.455 154.867 308.455 155.123C308.455 155.378 308.557 155.624 308.738 155.804C308.918 155.985 309.164 156.087 309.419 156.087Z" fill="#EEB211"/>
<path d="M85.9999 277.306C86.235 277.279 86.452 277.166 86.6096 276.989C86.7672 276.813 86.8542 276.584 86.8542 276.348C86.8542 276.111 86.7672 275.883 86.6096 275.706C86.452 275.529 86.235 275.417 85.9999 275.39C85.7647 275.417 85.5477 275.529 85.3901 275.706C85.2326 275.883 85.1455 276.111 85.1455 276.348C85.1455 276.584 85.2326 276.813 85.3901 276.989C85.5477 277.166 85.7647 277.279 85.9999 277.306Z" fill="#EEB211"/>
<path d="M269.13 209.748C269.295 209.725 269.446 209.644 269.556 209.518C269.665 209.393 269.726 209.232 269.726 209.065C269.726 208.899 269.665 208.738 269.556 208.612C269.446 208.487 269.295 208.405 269.13 208.383C268.965 208.405 268.813 208.487 268.704 208.612C268.594 208.738 268.534 208.899 268.534 209.065C268.534 209.232 268.594 209.393 268.704 209.518C268.813 209.644 268.965 209.725 269.13 209.748Z" fill="#EEB211"/>
<path d="M177.008 20.5077C177.173 20.4853 177.324 20.4038 177.434 20.2784C177.544 20.1529 177.604 19.992 177.604 19.8254C177.604 19.6588 177.544 19.4979 177.434 19.3724C177.324 19.247 177.173 19.1655 177.008 19.1431C176.843 19.1655 176.692 19.247 176.582 19.3724C176.472 19.4979 176.412 19.6588 176.412 19.8254C176.412 19.992 176.472 20.1529 176.582 20.2784C176.692 20.4038 176.843 20.4853 177.008 20.5077Z" fill="#EEB211"/>
<path d="M75.2953 106.007C75.4746 106.007 75.6465 105.936 75.7733 105.809C75.9001 105.682 75.9713 105.51 75.9713 105.331C75.9713 105.151 75.9001 104.979 75.7733 104.853C75.6465 104.726 75.4746 104.655 75.2953 104.655C75.116 104.655 74.944 104.726 74.8172 104.853C74.6904 104.979 74.6192 105.151 74.6192 105.331C74.6192 105.51 74.6904 105.682 74.8172 105.809C74.944 105.936 75.116 106.007 75.2953 106.007Z" fill="#EEB211"/>
<path d="M75.9338 162.61C76.0989 162.587 76.2502 162.506 76.3598 162.38C76.4694 162.255 76.5298 162.094 76.5298 161.927C76.5298 161.761 76.4694 161.6 76.3598 161.474C76.2502 161.349 76.0989 161.267 75.9338 161.245C75.7687 161.267 75.6174 161.349 75.5078 161.474C75.3982 161.6 75.3378 161.761 75.3378 161.927C75.3378 162.094 75.3982 162.255 75.5078 162.38C75.6174 162.506 75.7687 162.587 75.9338 162.61Z" fill="#EEB211"/>
<path d="M262.632 231.883C263.121 231.883 263.589 231.689 263.934 231.344C264.279 230.999 264.473 230.531 264.473 230.043C264.473 229.554 264.279 229.086 263.934 228.741C263.589 228.396 263.121 228.202 262.632 228.202C262.144 228.202 261.676 228.396 261.331 228.741C260.986 229.086 260.792 229.554 260.792 230.043C260.792 230.531 260.986 230.999 261.331 231.344C261.676 231.689 262.144 231.883 262.632 231.883Z" fill="#EEB211"/>
<path d="M264.41 34.4676C264.898 34.4676 265.366 34.2737 265.711 33.9285C266.056 33.5834 266.25 33.1152 266.25 32.6271C266.25 32.139 266.056 31.6709 265.711 31.3257C265.366 30.9806 264.898 30.7867 264.41 30.7867C263.922 30.7867 263.454 30.9806 263.109 31.3257C262.763 31.6709 262.569 32.139 262.569 32.6271C262.569 33.1152 262.763 33.5834 263.109 33.9285C263.454 34.2737 263.922 34.4676 264.41 34.4676Z" fill="#EEB211"/>
</svg>
